<svg width="112" height="113" viewBox="0 0 112 113" fill="none" xmlns="http://www.w3.org/2000/svg">
<circle cx="55.7086" cy="56.6061" r="55.7086" fill="#EC8E4F"/>
<path d="M13.6695 74.6606L12.3212 75.3307L15.0564 80.6963L20.4497 78.0162L17.7146 72.6506L16.3662 73.3206L18.4176 77.3448L17.0693 78.0148L15.0179 73.9906L17.0693 78.0148L15.7209 78.6849L13.6695 74.6606Z" fill="#1B1C20"/>
<path d="M14.983 67.8398L14.7058 66.3599L12.6703 63.6705L13.8742 61.9202L13.597 60.4403L12.6703 63.6705L9.15358 61.2516L9.43077 62.7315L11.1891 63.941L10.2624 67.1712L10.5396 68.6511L12.9475 65.1504L14.983 67.8398Z" fill="#1B1C20"/>
<path d="M9.53273 50.6111C9.40317 51.7756 10.1801 53.1164 10.6966 53.7663L9.19975 53.6039L9.03326 55.1003L16.5176 55.9121L16.6841 54.4157L13.6903 54.091C14.3463 53.5682 15.3906 52.425 15.5202 51.2605C15.714 49.5184 14.8429 48.1581 12.8594 47.943C10.876 47.7279 9.72656 48.869 9.53273 50.6111ZM14.0233 51.0982C13.8672 52.501 13.2161 54.0395 12.1935 53.9286C11.1621 53.8168 10.8735 52.1764 11.0296 50.7735C11.1857 49.3706 11.6615 49.3275 12.6929 49.4394C13.7155 49.5503 14.1794 49.6953 14.0233 51.0982Z" fill="#1B1C20"/>
<path d="M9.03326 41.5498L16.1627 43.9674L16.6574 42.5454L9.52794 40.1278L9.03326 41.5498Z" fill="#1B1C20"/>
<path d="M21.0868 34.8257C22.2738 32.9238 21.9335 31.8162 20.1086 30.706C18.2753 29.5906 17.1287 29.7935 15.9417 31.6954C14.7498 33.605 14.2894 35.977 16.1227 37.0924C17.9476 38.2026 19.895 36.7353 21.0868 34.8257ZM19.8006 34.0431C19.0239 35.2875 17.9506 36.4422 16.9199 35.8151C15.8807 35.1829 16.4513 33.7224 17.228 32.4779C17.9998 31.2414 18.2723 31.351 19.3114 31.9832C20.3422 32.6103 20.5723 32.8065 19.8006 34.0431Z" fill="#1B1C20"/>
<path d="M24.3939 21.9205C23.6244 22.6323 23.2886 23.9119 23.2198 25.0575L22.1834 23.9653L21.0781 24.9877L25.2237 29.3564L26.329 28.334L24.2562 26.1497C24.4231 24.8859 24.7588 23.6339 25.4303 23.0127C25.7801 22.6891 26.047 22.2505 26.5356 21.9903L25.4992 20.8981C25.1502 21.084 24.8836 21.4675 24.3939 21.9205Z" fill="#1B1C20"/>
<path d="M34.917 20.0442C33.9793 20.5346 33.4668 20.1526 32.871 19.4152L38.2078 16.6241C36.9548 14.2887 35.9583 14.4025 34.1158 15.3662C32.1499 16.3943 30.5223 18.222 31.5368 20.113C32.5467 21.9953 33.7863 22.3346 35.6288 21.3709C37.422 20.4331 39.3001 19.4258 38.9196 17.9509L37.5854 18.6486C37.5122 19.3565 35.8876 19.5366 34.917 20.0442ZM34.8276 16.6929C35.716 16.2283 36.247 16.7234 36.8736 17.3219L32.871 19.4152C32.7051 18.5758 33.8652 17.1962 34.8276 16.6929Z" fill="#1B1C20"/>
<path d="M58.6652 16.0194L60.1708 16.0326L57.2137 9.98394L54.2025 9.95761L51.1373 15.9536L52.6429 15.9668L54.162 14.4743L57.1732 14.5007L58.6652 16.0194ZM54.1755 12.9688L55.6946 11.4764L57.1867 12.9951L54.1755 12.9688Z" fill="#1B1C20"/>
<path d="M70.5764 12.7234C69.5716 12.4248 68.2863 12.7851 67.2509 13.3061L67.6898 11.8658L66.2465 11.437L64.4908 17.198L65.9341 17.6268L66.8119 14.7463C67.9994 14.2495 69.2605 13.9031 70.1375 14.1636C70.5942 14.2993 71.1102 14.3058 71.5808 14.5924L72.0197 13.1521C71.6836 12.9474 71.2158 12.9133 70.5764 12.7234Z" fill="#1B1C20"/>
<path d="M81.9111 20.0906L82.6928 18.8038L80.1018 17.2694L80.8835 15.9826L79.588 15.2154L78.8063 16.5022L77.5108 15.735L76.729 17.0218L78.0245 17.789L76.4611 20.3626C75.8012 21.4489 76.9706 22.4141 78.2704 23.1838C78.9459 23.5839 79.0277 23.7459 79.5659 23.951L80.3476 22.6642C79.7068 22.3984 79.5139 22.1705 79.0521 21.897C78.1628 21.3704 77.9597 20.7956 78.5383 19.843L79.3201 18.5562L81.9111 20.0906Z" fill="#1B1C20"/>
<path d="M94.2618 29.9139L90.9786 30.7322L92.2807 27.646L90.2997 25.3781L87.0165 26.1965L88.3186 23.1103L87.3281 21.9763L85.8701 27.1726L86.8607 28.3066L90.1439 27.4882L88.8417 30.5744L89.8322 31.7084L95.2523 31.0478L94.2618 29.9139Z" fill="#1B1C20"/>
<path d="M93.9243 43.4107C94.7548 45.493 95.8556 45.8906 97.8465 45.1166C99.8466 44.339 100.368 43.3108 99.5376 41.2284C98.7037 39.1375 97.0578 37.3464 95.0577 38.124C93.0668 38.898 93.0904 41.3198 93.9243 43.4107ZM95.3277 42.8651C94.7843 41.5026 94.491 39.9597 95.6155 39.5225C96.7492 39.0817 97.5909 40.4114 98.1343 41.774C98.6743 43.1279 98.4224 43.2773 97.2887 43.7181C96.1642 44.1552 95.8676 44.2191 95.3277 42.8651Z" fill="#1B1C20"/>
<path d="M101.375 53.5672C101.26 52.5254 100.428 51.4845 99.5456 50.7367L101.042 50.5743L100.876 49.0779L94.8885 49.7273L95.055 51.2237L98.0487 50.899C98.968 51.7962 99.7774 52.8203 99.8786 53.7295C99.9312 54.203 100.126 54.6804 100.045 55.2259L101.542 55.0636C101.6 54.6739 101.449 54.2301 101.375 53.5672Z" fill="#1B1C20"/>
<path d="M101.149 68.3017L101.65 65.3325L99.1799 61.8742L103.637 62.6077L103.887 61.123L96.4592 59.9007L96.2085 61.3853L97.6942 61.6298L98.9292 63.3589L95.4567 65.8392L95.2061 67.3238L98.6786 64.8435L101.149 68.3017Z" fill="#1B1C20"/>
<path d="M95.3071 71.1936C93.6349 70.381 92.8742 72.699 91.9375 74.5779C91.0008 76.4567 90.4716 77.2133 91.9481 77.9309C93.3445 78.6096 93.5455 77.7243 94.6459 75.8942C95.617 74.2788 97.0145 73.6975 97.3436 73.8574C97.646 74.0044 97.3403 73.864 96.6718 75.2049C96.0157 76.5209 95.7641 78.1116 95.3282 77.8998L94.6564 79.2472C96.0973 79.9475 96.4381 79.0479 97.3542 77.2105C98.2208 75.4723 99.3852 73.1757 98.0154 72.5099C96.7524 71.8961 95.848 73.8153 94.6459 75.8942C93.676 77.5512 93.0201 76.778 92.6199 76.5835C92.2107 76.3846 92.5283 76.7672 93.2917 75.236C94.0798 73.6552 94.0749 72.2688 94.6353 72.5411L95.3071 71.1936Z" fill="#1B1C20"/>
<path d="M42.4658 43.7312C42.0627 43.5926 41.6477 43.4916 41.2261 43.4295C40.907 43.3788 40.8264 43.3589 40.4993 43.3795C39.9464 43.4141 39.2556 43.5527 38.7726 43.7532C38.6659 43.7984 38.5645 43.8551 38.4702 43.9224C38.4452 43.944 38.4218 43.9674 38.4002 43.9924L38.3856 44.0183C38.3859 44.0203 38.3859 44.0224 38.3856 44.0243C38.3856 44.0283 38.3856 44.0323 38.3856 44.0357C38.393 44.0492 38.4012 44.0624 38.4102 44.075C38.4451 44.1132 38.4835 44.1482 38.5248 44.1796C38.6183 44.2448 38.7183 44.3001 38.8232 44.3448C38.9326 44.3822 39.0456 44.4081 39.1603 44.422C40.1356 44.508 41.4046 43.9511 42.4658 43.7312Z" fill="#46331E"/>
<path d="M71.6933 55.3808C71.6267 55.7759 71.5748 56.3361 71.6267 56.7212C71.6317 56.7517 71.6384 56.7819 71.6467 56.8118C71.9958 56.5007 72.4334 55.656 72.6459 55.3142C72.5234 55.177 72.4015 55.0398 72.2702 54.9105C71.742 54.4022 71.117 54.0053 70.4323 53.7434C69.9383 53.5608 69.4237 53.4393 68.9001 53.3817C68.9453 53.569 69.0061 53.7522 69.082 53.9293C69.3831 54.6061 69.8401 55.207 70.2971 55.7979C70.4521 55.9786 70.5806 56.1805 70.6788 56.3974C70.7585 56.3239 70.8343 56.2463 70.9059 56.1649C70.9465 56.1017 70.9811 56.0348 71.0092 55.9651C71.1258 55.638 71.1538 55.3369 71.2757 55.0005C71.283 54.9812 71.2903 54.9612 71.2983 54.9419C71.3132 54.9129 71.334 54.8874 71.3593 54.8669C71.3847 54.8465 71.4141 54.8316 71.4455 54.8233C71.4864 54.8117 71.5295 54.811 71.5707 54.8212C71.612 54.8315 71.6498 54.8523 71.6805 54.8816C71.7112 54.911 71.7336 54.9478 71.7457 54.9885C71.7578 55.0292 71.759 55.0724 71.7493 55.1137C71.7258 55.2017 71.7071 55.2909 71.6933 55.3808Z" fill="#46331E"/>
<path d="M47.753 52.7076C47.6035 52.7732 47.4618 52.8554 47.3307 52.9527C47.2573 53.0139 47.1903 53.0824 47.1308 53.1572C47.09 53.2174 47.0552 53.2814 47.0269 53.3484C47.0038 53.4155 46.9875 53.4846 46.9783 53.5549C46.9719 53.6462 46.9746 53.7379 46.9863 53.8287C47.0157 53.9861 47.0621 54.1397 47.1248 54.287C47.2023 54.4685 47.3002 54.6406 47.4166 54.8C47.4907 54.8875 47.5737 54.967 47.6644 55.0371C47.7783 55.1154 47.9005 55.1809 48.0288 55.2323C48.2271 55.3017 48.4327 55.3482 48.6417 55.3709C50.1019 55.5094 51.9851 54.824 53.364 54.3177C53.2768 53.6935 53.2155 53.0913 53.1828 52.4718C51.8645 52.3205 50.1791 52.2239 48.8588 52.4165C48.4798 52.4686 48.1085 52.5663 47.753 52.7076Z" fill="#46331E"/>
<path d="M43.8838 42.1044C43.8507 42.1003 43.8237 42.0976 43.8568 42.101L43.8838 42.1044Z" fill="#46331E"/>
<path d="M51.0118 51.0528C51.7446 50.9115 52.4667 50.7337 53.1922 50.5625V50.5345C53.1455 50.5012 53.0636 50.4126 52.8211 50.2327C51.8219 49.5153 50.5322 49.0943 49.3231 48.9597C48.4238 48.8704 47.5039 48.9251 46.6665 49.2768C46.4571 49.3673 46.2588 49.4818 46.0756 49.6179C45.9728 49.703 45.8794 49.7991 45.7972 49.9043C45.7444 49.9814 45.6998 50.0638 45.6639 50.1501C45.6418 50.2151 45.6255 50.282 45.6153 50.35C45.6024 50.4724 45.6212 50.596 45.6699 50.709C45.7015 50.7748 45.7392 50.8375 45.7825 50.8962C45.847 50.97 45.9189 51.0369 45.997 51.0961C46.1162 51.1766 46.244 51.2436 46.3781 51.2959C46.6077 51.3754 46.8458 51.4282 47.0875 51.4531C47.8016 51.5197 48.597 51.4365 49.3071 51.3325C49.5909 51.2946 50.6914 51.114 51.0118 51.0528Z" fill="#46331E"/>
<path d="M44.1138 47.8987C44.0923 47.8557 44.0673 47.8145 44.0392 47.7755C43.9917 47.7211 43.9391 47.6716 43.8819 47.6276C43.7887 47.5655 43.6894 47.5131 43.5855 47.471C43.5339 47.4552 43.4837 47.4349 43.4356 47.4104C43.3763 47.4137 43.3177 47.4184 43.2591 47.4264C43.1436 47.4459 43.0304 47.4774 42.9214 47.5203C42.8369 47.5589 42.7568 47.6062 42.6822 47.6615C42.6273 47.7085 42.5771 47.7607 42.5323 47.8174C42.4988 47.8672 42.47 47.9201 42.4464 47.9753C42.431 48.0209 42.4196 48.0677 42.4124 48.1152C42.4091 48.1558 42.4091 48.1965 42.4124 48.2371C42.4196 48.2737 42.4298 48.3095 42.4431 48.3444C42.4598 48.3777 42.479 48.4097 42.5003 48.4403C42.5282 48.4711 42.5585 48.4996 42.5909 48.5255C42.6359 48.555 42.6834 48.5804 42.7328 48.6015C42.808 48.6263 42.8854 48.6439 42.964 48.6541C43.228 48.6761 43.4934 48.6355 43.7387 48.5355C43.8129 48.5011 43.8837 48.4596 43.9499 48.4116C43.991 48.376 44.0291 48.337 44.0638 48.2951C44.0858 48.2614 44.1049 48.2259 44.1211 48.1891C44.131 48.1591 44.1386 48.1284 44.1437 48.0972C44.1457 48.0657 44.1457 48.0341 44.1437 48.0026C44.1361 47.9673 44.1261 47.9326 44.1138 47.8987Z" fill="#46331E"/>
<path d="M57.1038 42.59C57.0631 42.2569 57.0911 42.137 57.0651 41.9185C57.0592 41.8874 57.0512 41.8567 57.0412 41.8266C57.0335 41.8121 57.0251 41.7981 57.0159 41.7846C57.0011 41.7687 56.9853 41.7538 56.9686 41.74C56.9225 41.7115 56.8742 41.687 56.824 41.6667C56.7378 41.6342 56.6485 41.6103 56.5575 41.5954C56.0466 41.5588 55.2039 41.8279 54.7296 42.0291C54.551 42.1022 54.3813 42.1957 54.224 42.3075C54.1264 42.3935 54.0347 42.4858 53.9495 42.584C53.9319 42.6114 53.9161 42.6399 53.9022 42.6693C53.8948 42.6944 53.889 42.72 53.8849 42.7459C53.8833 42.7752 53.8833 42.8045 53.8849 42.8338C54.9548 42.7559 56.0299 42.6706 57.1038 42.59Z" fill="#46331E"/>
<path d="M56.6688 40.0247C56.5922 39.958 56.5143 39.8954 56.433 39.8355C56.2096 39.6736 55.9673 39.5394 55.7116 39.4358C55.5416 39.3735 55.3654 39.3302 55.186 39.3065C55.0547 39.2942 54.9224 39.2962 54.7916 39.3125C54.6787 39.3324 54.5682 39.3639 54.4619 39.4065C54.3568 39.4555 54.2572 39.5156 54.1648 39.5857C54.053 39.6794 53.9522 39.7856 53.8643 39.9021C53.8103 39.9791 53.7607 40.0592 53.7158 40.1419C54.6958 40.0286 55.6829 39.9894 56.6688 40.0247Z" fill="#46331E"/>
<path d="M53.6645 49.1343C53.9791 49.0575 54.3058 49.0437 54.6258 49.0936C54.6576 49.1006 54.6876 49.1141 54.7139 49.1334C54.7402 49.1527 54.7621 49.1773 54.7783 49.2055C54.811 49.261 54.8205 49.3271 54.8047 49.3895C54.7888 49.4519 54.7489 49.5055 54.6937 49.5386C54.6386 49.5694 54.5742 49.5791 54.5125 49.5659C54.325 49.5437 54.1354 49.5455 53.9483 49.5713C53.8917 49.5806 53.8357 49.5926 53.7797 49.6066C53.3714 52.3758 53.9476 55.6479 54.7503 58.3265C55.0501 57.3093 55.8981 56.3874 56.7128 55.7019C56.696 55.5975 56.6877 55.4919 56.6882 55.3861C56.6899 55.0156 56.7939 54.6528 56.9886 54.3376C57.1428 54.0925 57.3265 53.8672 57.5355 53.6668C57.1618 53.6868 56.7874 53.6928 56.4131 53.6828C56.3736 53.6899 56.3329 53.6865 56.2951 53.6728C56.2616 53.6643 56.2303 53.6486 56.2033 53.6269C56.1764 53.6052 56.1545 53.5778 56.1391 53.5468C56.1237 53.5158 56.1152 53.4818 56.1142 53.4472C56.1132 53.4126 56.1197 53.3782 56.1333 53.3464C56.1589 52.9016 56.3148 52.4741 56.5816 52.1173C56.4337 52.0927 56.2865 52.062 56.1406 52.0267C56.0864 52.0425 56.0283 52.0387 55.9766 52.0161C55.9248 51.9934 55.8827 51.9533 55.8575 51.9028C55.8209 51.8587 55.8016 51.8028 55.8029 51.7456C55.8043 51.6883 55.8262 51.6334 55.8648 51.591C56.0194 50.8376 56.3731 50.1681 56.8541 49.5679C56.7435 49.3717 56.6672 49.1582 56.6282 48.9364C56.5954 48.7693 56.5829 48.5989 56.5909 48.4288C56.1832 48.3582 55.8408 48.0571 55.555 47.7713C55.5126 47.7295 55.4867 47.6738 55.482 47.6145C55.4774 47.5551 55.4943 47.4961 55.5297 47.4482C55.5412 47.4164 55.5588 47.3872 55.5817 47.3623C55.9201 46.9919 56.2978 46.6528 56.7428 46.4163C58.2856 45.5956 60.4187 45.6056 61.6724 46.3497C61.7174 46.2621 61.7776 46.1831 61.8502 46.1166C61.9814 46.0018 62.1272 45.905 62.2839 45.8288C62.4764 45.7315 62.6756 45.6476 62.8728 45.5623C63.0077 45.4996 63.1458 45.444 63.2865 45.3958C63.5022 45.3278 63.7265 45.2913 63.9526 45.2872C64.8346 45.2872 65.5174 45.8967 66.1549 46.5049C67.9496 48.2143 69.4344 49.847 70.9586 51.8782C71.2917 52.3185 71.6074 52.7315 71.8246 53.2551C71.9678 53.5982 71.9758 53.7414 72.0178 54.0651C72.4554 54.3876 72.6273 54.5734 72.9464 54.9278C73.0675 54.6253 73.2176 54.3353 73.3947 54.0618C73.4794 53.9316 73.5769 53.8102 73.6858 53.6994C73.5432 53.3341 73.3777 52.9781 73.1902 52.6336C71.0725 48.8258 67.6525 45.1666 64.3383 42.3748C63.6731 41.7992 62.9775 41.2598 62.2546 40.7587C62.3072 41.3089 62.3125 41.8172 62.4178 42.3181C62.434 42.3791 62.4268 42.444 62.3978 42.5C62.3827 42.5281 62.3621 42.553 62.3373 42.5732C62.3125 42.5934 62.284 42.6085 62.2534 42.6177C62.2228 42.6268 62.1906 42.6299 62.1588 42.6266C62.127 42.6233 62.0962 42.6138 62.0681 42.5986C62.0392 42.5835 62.0138 42.5627 61.9934 42.5373C61.973 42.512 61.9581 42.4827 61.9495 42.4514C61.7969 41.7226 61.8262 41.1144 61.7277 40.4096C61.0091 39.9481 60.2629 39.531 59.4934 39.1606C58.7213 38.7902 58.3029 38.6363 57.7747 38.4278C56.4997 37.9242 55.2513 37.3146 53.877 37.1548C53.4815 37.1139 53.0825 37.1204 52.6886 37.1741C52.3625 37.225 52.0436 37.3145 51.7386 37.4405C51.506 37.544 51.2862 37.6744 51.0838 37.8289C50.9214 37.9626 50.7749 38.1146 50.6475 38.2819C50.5412 38.4345 50.4519 38.5983 50.381 38.7702C50.3202 38.9412 50.2784 39.1183 50.2564 39.2985C50.2376 39.5409 50.2459 39.7846 50.2811 40.0252C50.3857 40.6627 50.6235 41.2643 50.83 41.8738C51.7133 44.4745 51.7846 47.0152 53.6645 49.1343ZM57.4616 44.2573C57.3481 44.5447 57.2087 44.8212 57.0452 45.0834C56.9248 45.2776 56.7795 45.4552 56.6129 45.6116C56.4386 45.7763 56.2332 45.9045 56.0087 45.9887C55.8978 46.0304 55.7828 46.0603 55.6656 46.0779C55.5788 46.0935 55.4907 46.101 55.4025 46.1006C54.9089 46.0866 54.2407 45.8754 53.9316 45.5057C53.7983 45.3599 53.7227 45.1704 53.7191 44.9728C53.7169 44.8248 53.7602 44.6797 53.843 44.5571C53.8847 44.4946 53.9344 44.438 53.9909 44.3886C54.048 44.3395 54.1088 44.2949 54.1728 44.2553C54.5825 44.0068 55.172 43.8989 55.6416 43.8403C56.1606 43.7737 56.9167 43.7371 57.415 43.803C57.4467 43.8101 57.4767 43.8237 57.503 43.8429C57.5292 43.8622 57.5512 43.8867 57.5675 43.9149C57.5843 43.9442 57.5949 43.9767 57.5985 44.0103C57.6021 44.0438 57.5987 44.0778 57.5884 44.11C57.5782 44.1422 57.5615 44.1719 57.5392 44.1973C57.5169 44.2226 57.4895 44.2431 57.4589 44.2573H57.4616ZM57.4556 41.5654C57.6195 41.8692 57.5329 42.123 57.5955 42.6013C57.6055 42.6579 57.6161 42.7138 57.6295 42.7691C57.6422 42.8126 57.6424 42.8589 57.6301 42.9025C57.6179 42.9461 57.5936 42.9854 57.56 43.0159C57.5265 43.0464 57.485 43.0669 57.4404 43.0749C57.3958 43.083 57.3498 43.0784 57.3077 43.0616H57.2904C56.1459 43.1468 55.0021 43.2381 53.8577 43.3214C53.8205 43.3231 53.7836 43.3157 53.7499 43.2999C53.7162 43.2841 53.6869 43.2604 53.6645 43.2308C53.6229 43.2317 53.5819 43.2218 53.5453 43.2021C53.5163 43.1873 53.4908 43.1665 53.4703 43.1411C53.4499 43.1158 53.435 43.0864 53.4267 43.0549C53.4031 42.9528 53.3937 42.8479 53.3987 42.7432C53.4014 42.6919 53.4081 42.6409 53.4187 42.5906C53.474 42.3774 53.5846 42.2429 53.7478 42.0863C53.929 41.9012 54.1453 41.754 54.3839 41.6533C54.9443 41.3902 55.5409 41.2126 56.1539 41.1264C56.3184 41.1032 56.4852 41.101 56.6502 41.1197C56.7392 41.1332 56.8267 41.1555 56.9113 41.1863C57.0041 41.2147 57.0935 41.2531 57.1778 41.3009C57.2509 41.343 57.3168 41.3965 57.373 41.4595C57.4028 41.4923 57.4295 41.5277 57.4529 41.5654H57.4556ZM53.1542 40.1931C53.3361 39.7594 53.6205 39.3517 54.0162 39.0986C54.3357 38.8958 54.7101 38.7967 55.0881 38.8148C55.2833 38.8231 55.4768 38.8551 55.6643 38.9101C55.8633 38.9688 56.0561 39.0469 56.2399 39.1432C56.6253 39.3505 56.9769 39.6153 57.2824 39.9286C57.3276 39.973 57.3539 40.0331 57.3559 40.0964C57.3579 40.1597 57.3354 40.2213 57.293 40.2684C57.295 40.3017 57.2901 40.3351 57.2786 40.3665C57.2671 40.3979 57.2494 40.4266 57.2264 40.4509C57.2045 40.4742 57.1781 40.4928 57.1488 40.5056C57.1195 40.5185 57.0879 40.5252 57.0559 40.5255C55.8659 40.4633 54.6727 40.5078 53.4906 40.6587C53.4461 40.66 53.4021 40.649 53.3636 40.6267C53.325 40.6045 53.2933 40.572 53.2721 40.5328C53.2389 40.5185 53.2094 40.4969 53.1855 40.4697C53.1617 40.4425 53.1442 40.4104 53.1342 40.3756C53.1176 40.3147 53.1237 40.2498 53.1516 40.1931H53.1542Z" fill="#46331E"/>
<path d="M43.826 45.623C42.9598 45.4279 42.0656 45.3897 41.186 45.5104C40.4932 45.6217 39.9036 45.8841 39.5519 46.1526C39.5024 46.1929 39.4564 46.2375 39.4147 46.2858L39.4367 46.2965C39.527 46.3243 39.6198 46.3433 39.7138 46.3531C40.2407 46.4011 41.118 46.3205 41.649 46.2432C42.5769 46.1033 43.313 45.8668 43.826 45.623Z" fill="#46331E"/>
<path d="M51.6784 56.1222C51.6506 56.1262 51.6269 56.1301 51.6539 56.1255L51.6784 56.1222Z" fill="#46331E"/>
<path d="M54.8569 64.6245C55.2566 64.1356 55.5697 63.8298 55.7602 63.3682C55.7994 63.2587 55.8271 63.1455 55.8428 63.0304C55.8525 62.9054 55.8491 62.7797 55.8328 62.6554C55.8268 62.6234 55.8202 62.5887 55.8142 62.5581C55.655 62.8512 55.5437 63.1157 55.3738 63.3575C55.3033 63.4607 55.2254 63.5586 55.1407 63.6506C54.5625 64.2695 53.7837 64.6192 53.009 64.9543C52.9929 64.9634 52.976 64.9707 52.9584 64.9763L52.6326 65.1175C51.5714 65.5838 51.4762 65.717 50.6734 66.2246C50.6714 66.229 50.6696 66.2334 50.6681 66.238C50.4283 66.7789 50.2205 67.1672 50.1718 67.5203C50.1672 67.5726 50.1672 67.6252 50.1718 67.6775C50.1798 67.7175 50.1912 67.7567 50.2058 67.7948C50.2301 67.8433 50.2589 67.8895 50.2917 67.9327C50.3689 68.021 50.4556 68.1005 50.5502 68.1698C50.8983 68.401 51.2693 68.5956 51.6574 68.7507C51.858 68.826 52.0665 68.8785 52.2789 68.9072C52.4274 68.9195 52.5767 68.9163 52.7245 68.8979C52.8495 68.8751 52.9725 68.8424 53.0923 68.8C53.2585 67.2653 53.8722 65.8133 54.8569 64.6245Z" fill="#46331E"/>
<path d="M60.5565 60.8433C60.591 60.8518 60.6231 60.868 60.6505 60.8906C61.3126 60.5469 61.9828 59.9127 62.4491 59.3498C60.7657 58.9874 58.7852 59.5316 57.0585 59.8267V59.8361C56.9733 60.0692 56.8987 60.3064 56.8334 60.5455C58.0451 60.405 59.3728 60.5582 60.5565 60.8433Z" fill="#46331E"/>
<path d="M50.0739 58.5398C49.8235 58.647 49.593 58.7396 49.2745 58.8629C49.3551 59.3991 49.3045 59.557 49.3645 59.7289C49.3711 59.7409 49.3778 59.7528 49.3851 59.7642C49.3982 59.7777 49.412 59.7906 49.4264 59.8028C49.478 59.835 49.5324 59.8624 49.589 59.8847C49.8271 59.9652 50.0725 60.0223 50.3217 60.0553C50.5769 60.0774 50.8338 60.0698 51.0872 60.0326C51.6834 59.9354 52.2483 59.7142 52.8098 59.4997C53.5426 59.2159 53.6638 59.1859 54.1215 59.06C54.2301 59.0301 54.3387 59.0054 54.4486 58.9854C54.1112 57.9325 53.8332 56.8614 53.6159 55.7772C52.3229 56.1583 50.409 56.0617 49.3318 56.8857C49.1995 56.9958 49.0799 57.1205 48.9754 57.2574C48.933 57.3169 48.8966 57.3805 48.8669 57.4473C48.8576 57.4763 48.8502 57.5059 48.8449 57.5359C48.8435 57.5621 48.8435 57.5883 48.8449 57.6145C48.8935 57.843 49.0447 58.0262 49.1613 58.3879C49.4047 58.296 49.6456 58.1994 49.8841 58.0981C49.9143 58.089 49.946 58.0861 49.9774 58.0895C50.0087 58.0929 50.0391 58.1027 50.0666 58.1181C50.1041 58.1387 50.1354 58.1689 50.1575 58.2056C50.1796 58.2422 50.1916 58.284 50.1923 58.3268C50.1931 58.3696 50.1825 58.4118 50.1617 58.4492C50.1409 58.4866 50.1107 58.5178 50.0739 58.5398Z" fill="#46331E"/>
<path d="M63.1966 45.9494C62.9008 46.0773 62.4691 46.2532 62.232 46.4297C62.1946 46.4615 62.16 46.4965 62.1287 46.5343C62.0946 46.581 62.0737 46.636 62.0681 46.6935C62.0655 46.7429 62.0673 46.7924 62.0734 46.8414C62.1028 46.9837 62.1475 47.1224 62.2067 47.2551C62.7702 48.5368 63.8907 49.7992 64.9292 50.7264C65.1011 50.8797 65.2743 51.0329 65.4588 51.1708C66.4128 51.8502 67.5452 52.0847 68.5285 52.7356C68.5815 52.7662 68.6221 52.8146 68.6431 52.8721C69.2967 52.9095 69.9411 53.0442 70.5549 53.2718C70.8702 53.3875 71.1747 53.5306 71.4649 53.6995C71.4364 53.5956 71.4013 53.4937 71.3596 53.3944C71.1778 52.9914 70.9173 52.6303 70.6535 52.2773C70.3791 51.9115 70.1026 51.5445 69.8175 51.1881C68.6829 49.7732 67.4591 48.4321 66.1536 47.1732C65.5681 46.6103 65.0878 46.1133 64.4969 45.8742C64.3712 45.8288 64.241 45.7971 64.1085 45.7796C63.9824 45.7697 63.8556 45.7728 63.7302 45.7889C63.5467 45.8217 63.3677 45.8756 63.1966 45.9494Z" fill="#46331E"/>
<path d="M57.0925 48.7806C57.1166 48.9278 57.1582 49.0716 57.2164 49.209C58.9271 48.9125 60.7377 48.9478 62.2952 48.4409C62.062 48.0832 61.8637 47.704 61.703 47.3084C61.6458 47.1679 61.6071 47.0206 61.5878 46.8701C61.3974 46.7433 61.1939 46.6375 60.9809 46.5543C60.6427 46.4326 60.2911 46.3516 59.9337 46.3132C58.7826 46.2013 57.4216 46.4418 56.5043 47.1525C56.3449 47.2845 56.1936 47.426 56.0513 47.5762C56.1246 47.6428 56.1999 47.7095 56.2798 47.7687C56.3633 47.8281 56.4525 47.8788 56.5463 47.92C56.5985 47.938 56.6522 47.9511 56.7068 47.9593C56.7564 47.9619 56.8061 47.9606 56.8554 47.9553C56.9317 47.9401 57.0064 47.9178 57.0785 47.8886C57.3677 47.7554 57.6781 47.5183 57.9386 47.3198C57.9744 47.2959 58.0168 47.284 58.0598 47.2858C58.1077 47.2853 58.1546 47.299 58.1948 47.325C58.235 47.3511 58.2666 47.3884 58.2857 47.4323C58.3049 47.4762 58.3106 47.5247 58.3023 47.5719C58.294 47.6191 58.272 47.6627 58.239 47.6975C57.9059 47.9606 57.4776 48.2883 57.0785 48.4023C57.0721 48.5285 57.0768 48.6552 57.0925 48.7806Z" fill="#46331E"/>
<path d="M60.0589 61.7321C58.8172 61.9546 57.4789 62.4888 56.3285 63.0144C56.3223 63.1109 56.308 63.2067 56.2858 63.3009C56.118 63.981 55.6396 64.414 55.1267 65.0622C55.1624 65.0914 55.1876 65.1313 55.1987 65.1761C55.2504 65.4005 55.3213 65.62 55.4105 65.8322C55.4398 65.8989 55.4704 65.9608 55.5031 66.0241C57.0386 64.5073 58.5194 63.1769 60.0589 61.7321Z" fill="#46331E"/>
<path d="M48.1941 61.5575C48.5356 61.8187 48.9079 62.037 49.3025 62.2076C49.5166 62.2878 49.7408 62.3381 49.9687 62.3568C50.0026 62.358 50.0361 62.3645 50.0679 62.3762L50.1186 62.3542C50.2869 62.2802 50.4453 62.1856 50.5902 62.0724C50.8013 61.894 50.9903 61.6909 51.1531 61.4675C51.2077 61.3909 51.2604 61.3123 51.311 61.233C51.3435 61.1763 51.3964 61.1339 51.4589 61.1145C51.5827 61.1075 51.7062 61.132 51.8179 61.1857C51.9332 61.331 52.2449 61.7533 52.3542 61.9012L52.3768 61.9052C52.4541 61.9212 52.5321 61.9332 52.6107 61.9432C52.8548 61.9649 53.1007 61.9586 53.3434 61.9245C53.6602 61.8722 53.9696 61.7828 54.2654 61.6581C54.6031 61.5085 54.9213 61.3181 55.2127 61.0912C55.238 61.0705 55.2626 61.0485 55.2873 61.0279C55.2034 60.828 55.0208 60.4283 54.9109 60.1732C54.8858 60.1507 54.8658 60.123 54.8524 60.0921C54.8389 60.0612 54.8323 60.0277 54.833 59.994C54.7664 59.8374 54.6931 59.6682 54.6091 59.4517C54.4996 59.4679 54.3912 59.4913 54.2847 59.5217C54.0576 59.5843 53.8437 59.6369 53.4607 59.7748C52.3722 60.1659 51.2071 60.7594 49.9667 60.4956C49.7623 60.4551 49.5618 60.3974 49.3672 60.3231C49.3057 60.2998 49.2468 60.2704 49.1913 60.2351C49.1359 60.2014 49.0851 60.1606 49.0401 60.1139C48.9964 60.0678 48.9598 60.0155 48.9315 59.9587C48.9049 59.9048 48.8852 59.8477 48.8729 59.7888C48.8256 59.545 48.8489 59.3318 48.7996 58.9761C48.7666 58.7617 48.7092 58.5519 48.6284 58.3506C48.5618 58.1967 48.4772 58.0475 48.4179 57.8896C48.3508 57.7252 48.3378 57.5437 48.3806 57.3713C48.4585 57.1371 48.5909 56.9248 48.7669 56.7518C48.9121 56.5968 49.0764 56.4609 49.2559 56.3475C50.455 55.594 52.2956 55.6753 53.5193 55.2996C53.49 55.1362 53.4625 54.9727 53.4367 54.8093C51.8686 55.3842 49.188 56.3528 47.6691 55.6087C47.3645 55.4611 47.1063 55.2325 46.923 54.9479C46.76 54.6882 46.6342 54.407 46.5493 54.1125C46.4247 53.6242 46.4827 53.1752 46.8084 52.7882C47.8783 51.5265 51.5188 51.8056 53.1636 51.9888C53.1556 51.6837 53.1556 51.3786 53.1636 51.0735C52.4168 51.2507 51.6714 51.4325 50.916 51.5678C50.7561 51.5964 49.7742 51.759 49.5443 51.7943C48.4858 51.9575 46.9783 52.1513 46.0137 51.6777C45.8083 51.5784 45.6224 51.443 45.4648 51.278C45.3228 51.1241 45.2194 50.9387 45.163 50.7371C45.113 50.5426 45.1112 50.3389 45.1577 50.1435C45.2716 49.6919 45.6054 49.3315 45.9917 49.0883C47.9622 47.85 51.4262 48.5281 53.2435 49.9543C53.2615 49.7945 53.2828 49.6339 53.3068 49.4747C52.7969 48.8968 52.3723 48.249 52.0458 47.5509C51.4329 46.2385 51.1798 44.9955 50.8207 43.5972C50.7746 43.5999 50.7286 43.5903 50.6875 43.5692C50.5676 43.5273 50.2665 43.436 50.0966 43.38C48.8188 42.9707 47.513 42.6541 46.1896 42.4328C46.5539 43.1284 46.8083 43.8762 46.9437 44.6497C46.954 44.6902 46.954 44.7325 46.9437 44.773C46.9357 44.793 46.9284 44.8123 46.921 44.8323C46.8902 44.8889 46.8382 44.931 46.7764 44.9494C46.7147 44.9679 46.6481 44.9612 46.5913 44.9309C46.5624 44.9159 46.5369 44.8951 46.5164 44.8698C46.496 44.8444 46.4811 44.8151 46.4727 44.7836C46.3296 43.9164 46.0223 43.0843 45.5674 42.3322C43.5776 42.0277 41.5745 41.8958 39.5413 41.8419C37.8386 41.7966 35.0854 41.7333 33.7405 42.7705C33.6122 42.875 33.4966 42.9942 33.396 43.1256C33.3185 43.2361 33.2537 43.3549 33.2029 43.48C33.156 43.6115 33.1239 43.7478 33.1069 43.8863C33.0959 44.0171 33.0959 44.1486 33.1069 44.2794C33.1201 44.325 33.125 44.3726 33.1216 44.4199C33.1216 44.4419 33.1216 44.4332 33.1329 44.4939C33.1436 44.5321 33.1449 44.5723 33.1369 44.6111C33.1706 44.8202 33.2296 45.0245 33.3128 45.2193C33.4712 45.5617 33.6712 45.8832 33.9083 46.1766C34.8776 47.3757 36.477 48.5001 37.8227 49.2529C38.0045 49.3548 38.189 49.4527 38.3742 49.548C38.4062 49.5374 38.44 49.5335 38.4735 49.5367C38.507 49.5399 38.5394 49.5501 38.5688 49.5666C38.8308 49.389 39.0988 49.2205 39.3728 49.061C39.4002 49.0447 39.4306 49.0339 39.4622 49.0293C39.4938 49.0246 39.526 49.0263 39.557 49.0341C39.5879 49.0419 39.617 49.0558 39.6426 49.0749C39.6683 49.0939 39.6899 49.1179 39.7062 49.1453C39.7226 49.1727 39.7334 49.2031 39.738 49.2347C39.7426 49.2663 39.741 49.2985 39.7331 49.3295C39.7253 49.3604 39.7115 49.3895 39.6924 49.4151C39.6733 49.4408 39.6494 49.4624 39.6219 49.4787C39.3306 49.647 39.0466 49.8267 38.7699 50.0176C38.7879 50.0709 38.8072 50.1236 38.8286 50.1762C38.9361 50.4035 39.0706 50.617 39.2289 50.8124C39.7872 51.4972 40.5566 51.9888 41.2494 52.4817C41.2881 52.5026 41.3205 52.5334 41.3433 52.571C41.3733 52.6423 41.3533 52.6003 41.3933 52.6556C43.7235 55.8418 44.8912 59.13 48.1941 61.5575ZM38.3516 44.6457C38.2143 44.566 38.0945 44.4596 37.9992 44.3327C37.9304 44.2379 37.8959 44.1225 37.9013 44.0056C37.9089 43.8717 37.9642 43.7451 38.0571 43.6485C38.2244 43.4613 38.5015 43.3354 38.7366 43.2488C39.4208 42.9917 40.4267 42.8578 40.8637 42.8924C41.0362 42.9064 41.4132 42.9684 41.5831 42.9997C42.1633 43.1089 42.7362 43.2741 43.2585 43.5552C43.3057 43.5901 43.3429 43.6368 43.3663 43.6906C43.3896 43.7444 43.3984 43.8034 43.3916 43.8617C43.3849 43.9199 43.3628 43.9754 43.3278 44.0224C43.2927 44.0695 43.2458 44.1064 43.1919 44.1295C42.3785 44.1328 41.1494 44.6777 40.0609 44.8556C39.8511 44.8937 39.6386 44.916 39.4254 44.9222C39.0284 44.9222 38.6887 44.8609 38.3516 44.6457ZM41.3533 46.7741C40.9256 46.8247 40.2208 46.8807 39.7932 46.8494C39.6019 46.8446 39.4127 46.8079 39.2336 46.7408C39.1153 46.6982 39.0163 46.6145 38.9545 46.505C38.93 46.4556 38.9149 46.402 38.9098 46.3471C38.9073 46.313 38.9091 46.2788 38.9152 46.2452C38.923 46.1914 38.9406 46.1394 38.9671 46.092C39.0265 45.9856 39.1062 45.8919 39.2016 45.8162C39.4114 45.6436 39.6519 45.4898 40.0903 45.3119C40.4555 45.1616 40.8397 45.0623 41.232 45.0168C42.3345 44.8722 43.5436 45.0028 44.3323 45.2613C44.3953 45.2781 44.4495 45.3181 44.4842 45.3732C44.5168 45.4488 44.5309 45.5311 44.5253 45.6132C44.5198 45.6953 44.4947 45.775 44.4522 45.8455C43.5103 46.3811 42.4205 46.6475 41.3533 46.7741ZM44.6121 48.2497C44.5389 48.5163 44.3631 48.7431 44.1232 48.8805C43.98 48.9664 43.8249 49.0304 43.6629 49.0704C43.3966 49.1422 43.1188 49.1603 42.8455 49.1236C42.6078 49.0928 42.385 48.9906 42.2066 48.8305C42.0993 48.7268 42.0184 48.5989 41.9708 48.4575C41.9097 48.2576 41.912 48.0438 41.9775 47.8453C42.0018 47.7736 42.0326 47.7043 42.0694 47.6381C42.1536 47.492 42.2669 47.3648 42.4025 47.2644C42.6976 47.0293 43.084 46.9313 43.455 46.92C43.4901 46.9189 43.5249 46.9257 43.5569 46.94L43.5796 46.9447C43.6185 46.9581 43.6565 46.9739 43.6935 46.9919C43.8444 47.0417 43.9876 47.1121 44.1192 47.2011C44.1855 47.2453 44.2483 47.2945 44.307 47.3483C44.3603 47.401 44.4093 47.4578 44.4536 47.5182C44.5311 47.6215 44.5855 47.7404 44.6128 47.8666C44.6402 47.9928 44.6399 48.1235 44.6121 48.2497Z" fill="#46331E"/>
<path d="M67.7791 52.8615C66.7532 52.3286 65.8825 52.1521 64.9446 51.3813C64.3037 51.7078 63.6595 52.0295 63.0054 52.33C62.4867 52.5748 61.9526 52.7858 61.4066 52.9615C60.4044 53.2801 59.3723 53.4954 58.3263 53.6043C58.3197 53.6129 58.3123 53.6209 58.3043 53.6283C58.0124 53.8613 57.7478 54.1265 57.5156 54.419C57.4185 54.5554 57.3369 54.7022 57.2724 54.8567C57.2284 54.9794 57.1978 55.1065 57.1812 55.2357C57.1812 55.2677 57.1765 55.3023 57.1758 55.333C57.8708 54.7964 58.6301 54.3488 59.4361 54.0007C61.4746 53.1527 63.9873 53.3805 66.1596 53.0614C66.5926 52.9968 67.0623 52.8909 67.7791 52.8615Z" fill="#46331E"/>
<path d="M51.2683 65.2621C51.6875 65.017 52.1233 64.8015 52.5727 64.6173C52.5903 64.6071 52.6091 64.5991 52.6286 64.5933C53.2595 64.3208 53.921 64.041 54.4659 63.6174C54.6389 63.4791 54.7954 63.3213 54.9322 63.147C55.2113 62.7474 55.3239 62.353 55.6403 61.926C55.5997 61.8061 55.555 61.6808 55.4818 61.4937C54.8765 61.9731 54.1575 62.2877 53.3947 62.407C53.4435 62.4736 53.4859 62.5448 53.5213 62.6195C53.5756 62.7339 53.6182 62.8535 53.6485 62.9765C53.665 63.0377 53.6579 63.1029 53.6285 63.159C53.6056 63.2018 53.5705 63.2367 53.5276 63.2593C53.4848 63.2819 53.4361 63.2912 53.3879 63.286C53.3398 63.2808 53.2942 63.2613 53.2572 63.23C53.2202 63.1987 53.1934 63.1571 53.1802 63.1104C53.1636 63.0342 53.1414 62.9594 53.1136 62.8866C53.0704 62.7941 53.0179 62.7061 52.957 62.6241C52.947 62.6138 52.9378 62.6027 52.9297 62.5908C51.9578 62.6261 50.9219 63.2476 49.9087 63.6307C49.3058 63.8592 48.7662 64.0191 48.3912 64.3028C48.3307 64.3522 48.2755 64.4078 48.2266 64.4687C48.1996 64.5096 48.176 64.5526 48.156 64.5973C48.1421 64.6408 48.1317 64.6853 48.1247 64.7305C48.1215 64.7909 48.1233 64.8516 48.1301 64.9117C48.1514 65.0207 48.184 65.1272 48.2273 65.2295C48.3246 65.4426 48.4462 65.6438 48.5897 65.829C48.6727 65.9306 48.7663 66.023 48.8688 66.1048C48.9318 66.1482 48.9987 66.1857 49.0687 66.2167C49.1269 66.2358 49.1866 66.2501 49.2472 66.2593C49.3185 66.264 49.3901 66.262 49.461 66.2533C49.7021 66.2034 49.9323 66.1112 50.1412 65.9809C50.5302 65.7544 50.8913 65.4933 51.2683 65.2621Z" fill="#46331E"/>
<path d="M51.6168 56.1315L51.6417 56.1276L51.6168 56.1315Z" fill="#46331E"/>
<path d="M60.0842 61.2358C58.9797 61.0007 57.8293 60.9027 56.7055 61.0486C56.6083 61.4955 56.5415 61.9484 56.5056 62.4043C57.6034 61.9193 58.8898 61.427 60.0842 61.2358Z" fill="#46331E"/>
<path d="M67.0249 60.858C65.125 61.3723 63.3124 62.1304 61.4025 62.6913C61.3748 62.6992 61.3459 62.7019 61.3173 62.6993C61.0781 63.0654 60.8846 63.4593 60.741 63.8724C63.2551 63.4274 64.9645 62.3462 67.0249 60.858Z" fill="#46331E"/>
<path d="M59.7099 71.8629C59.7582 71.9604 59.8162 72.0528 59.8831 72.1387C60.0942 72.3925 60.3494 72.605 60.6158 72.8502C61.3206 70.7564 62.5817 69.0331 62.7209 66.9493C61.8384 67.9352 61.0486 69.0002 60.3614 70.1309C60.1002 70.5699 59.8504 70.9616 59.7232 71.278C59.6924 71.3615 59.67 71.4479 59.6566 71.5358C59.6534 71.5878 59.6545 71.6399 59.6599 71.6917C59.6715 71.7501 59.6882 71.8074 59.7099 71.8629Z" fill="#46331E"/>
<path d="M58.7726 71.6538C59.4627 70.6639 59.6533 69.5267 60.1888 68.3383C60.3887 67.9013 60.6085 67.387 60.883 66.9847C61.0828 66.6909 61.1734 66.591 61.5765 66.2692C61.9488 65.9721 62.4891 65.5744 62.7655 65.216C62.801 65.1652 62.8318 65.1112 62.8575 65.0548C62.8635 65.0348 62.8688 65.0148 62.8728 64.9949C62.7425 64.9931 62.6122 65.0013 62.4831 65.0195C61.4585 65.1874 60.418 65.9042 59.6359 66.585C59.6429 66.6065 59.6465 66.629 59.6466 66.6516C59.4807 68.267 58.5807 69.9404 57.9039 71.5445C58.0561 71.592 58.2121 71.6259 58.3702 71.6458C58.504 71.6575 58.6385 71.6602 58.7726 71.6538Z" fill="#46331E"/>
<path d="M72.6832 61.7814C72.7102 61.5499 72.7102 61.3161 72.6832 61.0846C72.6759 61.0347 72.6673 60.9847 72.6586 60.9347C72.6346 60.9301 72.6086 60.9234 72.5607 60.9161C72.5094 60.9125 72.4579 60.9137 72.4068 60.9194C72.3503 60.9301 72.295 60.9462 72.2416 60.9674C72.1617 61.0058 72.086 61.0525 72.0158 61.1066C71.8782 61.2252 71.7548 61.3593 71.648 61.5063C70.7341 62.7893 70.1825 65.2914 69.7581 66.2107C68.9215 68.0093 67.4046 69.4982 66.3361 71.2069C66.0124 71.7245 65.4501 72.4419 65.1424 73.2207C65.0784 73.3903 65.0337 73.5666 65.0091 73.7463C65.0005 73.8349 65.0005 73.9241 65.0091 74.0127C65.0091 74.0174 65.0091 74.0214 65.0091 74.0261C66.2748 72.3207 67.5705 70.3389 68.683 68.7468C69.7688 67.194 70.8746 65.7257 71.8805 64.1603C72.095 63.2856 72.558 62.6175 72.6832 61.7814Z" fill="#46331E"/>
<path d="M59.5746 64.7916C59.5746 64.7863 59.5713 64.781 59.57 64.7763L59.5553 64.7683C59.5359 64.7628 59.516 64.7585 59.496 64.7557C59.4322 64.7523 59.3682 64.755 59.3048 64.7636C59.0796 64.8081 58.86 64.8773 58.65 64.9702C58.1895 65.1762 57.757 65.4399 57.363 65.7549C56.7634 66.2405 56.1579 66.8834 55.8708 67.6068C55.8165 67.7536 55.7785 67.906 55.7575 68.0611C55.7481 68.1674 55.7497 68.2743 55.7622 68.3802C55.7786 68.4695 55.8036 68.5569 55.8368 68.6413C55.8792 68.7313 55.9307 68.8165 55.9907 68.8958C56.0792 68.9997 56.1791 69.0934 56.2885 69.1749C56.3424 69.2122 56.3984 69.2482 56.4557 69.2815C57.0039 68.5954 57.3337 68.3676 58.1477 67.2571C58.5654 66.6815 58.9411 66.1026 59.2609 65.553C59.36 65.3916 59.4479 65.2236 59.524 65.0501C59.5474 64.9852 59.5648 64.9183 59.576 64.8502C59.5768 64.8307 59.5763 64.8111 59.5746 64.7916Z" fill="#46331E"/>
<path d="M56.938 70.7764C56.9785 70.8615 57.0276 70.9423 57.0845 71.0175C57.1639 71.1117 57.2533 71.197 57.351 71.272C57.3863 71.2966 57.423 71.3199 57.4596 71.3426C58.0651 69.9057 58.8072 68.5074 59.0863 67.0898C58.4262 67.7373 57.7167 68.572 57.2484 69.3748C57.1292 69.5747 57.0248 69.7831 56.936 69.9983C56.9011 70.0963 56.8764 70.1977 56.862 70.3007C56.8559 70.3808 56.8575 70.4614 56.8667 70.5412C56.8824 70.6218 56.9062 70.7006 56.938 70.7764Z" fill="#46331E"/>
<path d="M68.8148 63.588C68.8445 63.5565 68.8819 63.5336 68.9234 63.5214L68.98 63.5127C69.2066 63.0588 69.4648 62.6214 69.7528 62.2037C69.8707 62.0337 69.9982 61.8705 70.1345 61.7148C70.3282 61.4929 70.556 61.3034 70.8093 61.1532C70.8421 61.044 70.8675 60.9327 70.8852 60.8201C70.8892 60.77 70.8892 60.7197 70.8852 60.6696C70.8815 60.6501 70.8763 60.631 70.8699 60.6123C70.8658 60.604 70.8611 60.596 70.8559 60.5883L70.8419 60.575C70.8334 60.5697 70.8245 60.565 70.8153 60.561C70.7935 60.5544 70.7712 60.5494 70.7487 60.5463C70.6922 60.5435 70.6355 60.5459 70.5795 60.5537C70.4113 60.5861 70.2473 60.6373 70.0905 60.7062C69.8186 60.8231 69.562 60.9727 69.3264 61.1519C67.0055 63.0058 65.5527 63.8784 63.2218 66.3925C63.2253 66.4071 63.227 66.4221 63.2271 66.4372C63.2197 66.4919 63.2172 66.5472 63.2198 66.6024C63.1851 69.0845 61.7276 70.945 61.0314 73.1307C61.024 73.1539 61.0142 73.1762 61.0021 73.1973C61.1775 73.3557 61.3658 73.4992 61.565 73.6263C61.6037 73.6023 61.6403 73.5764 61.677 73.549C62.2911 73.0368 62.7941 71.9376 63.2011 71.1342C63.3344 70.8638 63.3577 70.8425 63.808 69.9618C64.3009 68.9999 64.8106 67.9966 65.4321 67.0973C66.2002 65.9808 67.1268 64.9383 68.8148 63.588Z" fill="#46331E"/>
<path d="M76.7515 59.3693C76.7276 59.3413 76.7018 59.315 76.6742 59.2907C76.6547 59.2775 76.6345 59.2655 76.6136 59.2547C76.5918 59.2474 76.5695 59.2414 76.547 59.2367C76.5142 59.2344 76.4812 59.2344 76.4484 59.2367C76.3835 59.2491 76.32 59.2677 76.2585 59.292C76.2219 59.3093 76.1853 59.328 76.15 59.3473C76.199 59.4781 76.2408 59.6116 76.2752 59.747C76.4737 59.6985 76.6691 59.6378 76.8601 59.5651C76.8302 59.4966 76.7939 59.431 76.7515 59.3693Z" fill="#46331E"/>
<path d="M76.7528 53.6103C76.7128 53.9187 76.6455 54.2631 76.3877 54.4383C76.3108 54.4895 76.2196 54.515 76.1273 54.5109C76.0311 54.5049 75.9378 54.4757 75.8555 54.4257C75.7795 54.3781 75.7105 54.3202 75.6503 54.2538C75.5178 54.1066 75.4088 53.9399 75.3272 53.7595C75.2434 53.5841 75.1814 53.3991 75.1427 53.2086C75.0784 53.3087 75.0223 53.4139 74.9748 53.523C74.9528 53.5763 74.9335 53.6303 74.9149 53.6849C74.8978 53.7465 74.8571 53.7989 74.8016 53.8308C74.7667 53.8814 74.7141 53.917 74.6541 53.9307C74.5942 53.9444 74.5313 53.9351 74.4779 53.9047L74.4472 53.8894C74.4255 53.8814 74.4032 53.875 74.3806 53.8701C74.3602 53.8688 74.3397 53.8688 74.3193 53.8701C74.2931 53.8755 74.2672 53.8828 74.2421 53.8921C74.199 53.9129 74.158 53.9377 74.1195 53.966C74.0375 54.0354 73.963 54.1131 73.897 54.1978C73.4726 54.7647 73.1609 55.672 72.9744 56.3542C72.8804 56.6808 72.8072 57.0129 72.7552 57.3488C72.7338 57.553 72.728 57.7585 72.7379 57.9636C72.7645 58.811 72.9277 59.6843 73.0796 60.5343C73.1341 60.7922 73.1708 61.0535 73.1895 61.3164C73.2322 62.3976 72.7186 63.075 72.4214 64.0536C73.0037 63.7732 73.5766 63.2056 73.9743 62.7C74.1461 62.4742 74.1495 62.4289 74.5332 61.9486C74.9169 61.4683 75.5364 60.7535 75.7642 60.2452C75.7876 60.1855 75.8055 60.1237 75.8175 60.0607C75.8212 60.0132 75.8212 59.9656 75.8175 59.9181C75.7829 59.7249 75.7176 59.6084 75.6736 59.4518C75.6183 59.2802 75.6204 59.0952 75.6796 58.9249C75.8128 58.5765 76.1133 58.3253 76.2705 57.9923C76.3269 57.8235 76.367 57.6497 76.3904 57.4733C76.4229 57.2196 76.4252 56.9629 76.3971 56.7086C76.3757 56.551 76.3343 56.3967 76.2738 56.2496C76.2522 56.2124 76.2407 56.1701 76.2405 56.127C76.2348 56.0751 76.2463 56.0226 76.2732 55.9778C76.6062 55.5242 76.9113 55.3276 77.1005 54.918C77.1728 54.7328 77.2241 54.5402 77.2537 54.3437C77.2731 54.1751 77.2731 54.0048 77.2537 53.8361C77.2325 53.6993 77.1963 53.5653 77.1458 53.4364C77.0968 53.3282 77.0368 53.2253 76.9666 53.1293C76.8987 53.045 76.8221 52.9679 76.7381 52.8995C76.7215 52.8868 76.7042 52.8755 76.6868 52.8635C76.7732 53.1025 76.7959 53.3599 76.7528 53.6103ZM73.7224 59.2213C73.7073 59.284 73.6679 59.338 73.613 59.3717C73.5581 59.4054 73.4921 59.416 73.4293 59.4012C73.3646 59.3844 73.3089 59.3431 73.2741 59.2859C73.2187 59.2079 73.158 59.1337 73.0923 59.0641C73.0467 59.0188 73.02 58.9578 73.0177 58.8936C73.0169 58.8607 73.0229 58.828 73.0351 58.7975C73.0474 58.767 73.0658 58.7392 73.089 58.716C73.1123 58.6928 73.1401 58.6745 73.1707 58.6623C73.2012 58.6501 73.2339 58.6443 73.2668 58.6451C73.2969 58.6443 73.3269 58.6498 73.3548 58.6613C73.3826 58.6728 73.4078 58.69 73.4287 58.7117C73.5229 58.8144 73.6108 58.9227 73.6918 59.0361C73.7088 59.0628 73.7203 59.0927 73.7256 59.124C73.7309 59.1552 73.7298 59.1872 73.7224 59.218V59.2213ZM73.9743 56.3222C73.8792 56.2303 73.7846 56.1375 73.6905 56.0438C73.651 55.9981 73.6299 55.9394 73.6313 55.8791C73.6327 55.8188 73.6565 55.7611 73.698 55.7174C73.7395 55.6736 73.7959 55.6468 73.856 55.6423C73.9162 55.6377 73.9759 55.6557 74.0236 55.6927C74.1175 55.786 74.2121 55.8792 74.3073 55.9705C74.3476 56.016 74.3694 56.075 74.3684 56.1357C74.3674 56.1965 74.3436 56.2547 74.3018 56.2988C74.26 56.343 74.2032 56.3699 74.1426 56.3742C74.082 56.3785 74.0219 56.36 73.9743 56.3222ZM75.0521 58.0389C74.9788 58.1837 74.9069 58.3291 74.8363 58.4752C74.8209 58.5036 74.8001 58.5287 74.775 58.549C74.75 58.5694 74.7211 58.5845 74.6902 58.5937C74.6593 58.6029 74.6268 58.6058 74.5947 58.6024C74.5626 58.599 74.5315 58.5893 74.5032 58.5738C74.475 58.5587 74.4502 58.5381 74.43 58.5133C74.4098 58.4885 74.3947 58.46 74.3855 58.4294C74.3764 58.3988 74.3733 58.3666 74.3766 58.3348C74.3799 58.303 74.3894 58.2722 74.4046 58.2441C74.4752 58.0975 74.5472 57.9521 74.6204 57.8077C74.6413 57.7689 74.6725 57.7365 74.7106 57.7142C74.7487 57.6918 74.7921 57.6804 74.8363 57.6812C74.8779 57.6812 74.9189 57.692 74.9552 57.7124C74.9915 57.7329 75.0219 57.7623 75.0436 57.7978C75.0652 57.8334 75.0774 57.874 75.0789 57.9156C75.0804 57.9572 75.0712 57.9985 75.0521 58.0356V58.0389Z" fill="#46331E"/>
<path d="M60.1508 56.0038C59.9036 55.9772 59.6542 55.979 59.4074 56.0091C59.2612 56.0328 59.118 56.0724 58.9804 56.127C58.913 56.1582 58.8488 56.1956 58.7885 56.2389C58.7005 56.3176 58.6212 56.4056 58.5521 56.5014C58.2223 56.9677 57.9971 57.5952 57.8279 58.1421C59.5386 58.5485 62.2865 58.2714 63.7974 57.3674C62.7382 56.7752 61.3559 56.1417 60.1508 56.0038Z" fill="#46331E"/>
<path d="M76.072 53.9839C76.0906 53.9969 76.1102 54.0085 76.1306 54.0186L76.1399 54.0086C76.1563 53.984 76.1708 53.9581 76.1832 53.9313C76.2653 53.6974 76.2971 53.4489 76.2765 53.2019C76.2661 53.1409 76.2502 53.0809 76.2292 53.0227C76.21 52.9828 76.1877 52.9445 76.1626 52.9081C76.134 52.8742 76.1026 52.8428 76.0686 52.8142C75.9461 52.7282 75.9148 52.7416 75.8635 52.6763C75.8011 52.6901 75.7399 52.7086 75.6803 52.7316C75.655 52.7429 75.6296 52.7562 75.6043 52.7695C75.6043 52.7802 75.5997 52.7902 75.5977 52.8008C75.5917 52.8767 75.593 52.953 75.6017 53.0287C75.649 53.3251 75.7659 53.6061 75.9427 53.8487C75.9816 53.8976 76.0249 53.9429 76.072 53.9839Z" fill="#46331E"/>
<path d="M56.5422 44.2554C55.938 44.2734 55.158 44.346 54.5991 44.5765C54.5081 44.6168 54.4215 44.6664 54.3406 44.7244C54.3089 44.7512 54.2797 44.7808 54.2533 44.813C54.2409 44.8322 54.2298 44.8522 54.22 44.8729C54.2145 44.8924 54.2101 44.9122 54.2067 44.9322C54.201 44.9824 54.2088 45.0332 54.2293 45.0794C54.2457 45.1115 54.2647 45.1423 54.286 45.1714C54.3276 45.2182 54.3735 45.261 54.4232 45.2993C54.5297 45.3706 54.6436 45.4303 54.7629 45.4771C54.9327 45.5388 55.1087 45.5815 55.2879 45.6044C55.3826 45.6127 55.4779 45.6114 55.5723 45.6004C55.6833 45.5808 55.792 45.55 55.8967 45.5084C56.0023 45.4593 56.1024 45.399 56.1952 45.3286C56.3228 45.2208 56.4377 45.0988 56.5376 44.9648C56.6922 44.7404 56.8248 44.5015 56.9333 44.2514C56.8027 44.2494 56.6721 44.2514 56.5422 44.2554Z" fill="#46331E"/>
<path d="M53.2075 71.1241C53.085 70.5328 53.0342 69.9289 53.0563 69.3255C52.8637 69.3781 52.6651 69.4054 52.4654 69.4068C52.1801 69.4029 51.8973 69.3527 51.6281 69.2582C51.1558 69.0891 50.7068 68.8611 50.2917 68.5794C50.1391 68.4792 50.0041 68.3545 49.8921 68.2103C49.6196 67.8646 49.6416 67.4596 49.7915 67.0446C49.8454 66.8947 49.9067 66.7475 49.9707 66.6009C49.7122 66.7206 49.4251 66.7644 49.1426 66.7275C48.9575 66.6971 48.7814 66.6262 48.627 66.5196C48.5346 66.4559 48.448 66.3838 48.3686 66.3045C48.1816 66.1082 48.0225 65.8872 47.8956 65.6476C47.7821 65.4502 47.7015 65.2355 47.6571 65.0121C47.6378 64.9141 47.6317 64.814 47.6391 64.7144C47.65 64.5379 47.7077 64.3675 47.8063 64.2207C47.8551 64.1488 47.9109 64.0819 47.9729 64.0209C48.4738 63.5506 49.2892 63.3794 50.2218 62.9797C50.81 62.7239 51.3949 62.4368 52.0144 62.2576C51.8736 62.0666 51.7322 61.8763 51.5901 61.6867C51.4471 61.8957 51.2835 62.0898 51.1018 62.2662C50.8591 62.5074 50.5699 62.6967 50.2518 62.8225C50.1989 62.8391 50.1417 62.8356 50.0912 62.8125C50.0573 62.833 50.0183 62.8436 49.9787 62.8431C49.7725 62.8326 49.5682 62.7984 49.3698 62.7412C49.0121 62.634 48.645 62.4687 48.1101 62.0924C47.1991 61.4548 46.3735 60.7033 45.6533 59.8561C45.5782 60.0244 45.5072 60.1947 45.4401 60.367C45.2075 60.9733 45.0508 61.6061 44.9738 62.2509C44.8319 63.6818 45.1563 65.0907 45.4808 66.521C45.7015 66.2662 45.9079 65.9993 46.099 65.7216C46.1198 65.6831 46.1507 65.6509 46.1882 65.6283L46.2462 65.603C46.3083 65.5853 46.3749 65.593 46.4313 65.6244C46.4878 65.6557 46.5295 65.7082 46.5473 65.7702C46.5563 65.8004 46.5592 65.8322 46.5558 65.8635C46.5524 65.8949 46.5427 65.9252 46.5273 65.9527C46.2807 66.3136 46.0113 66.6583 45.7206 66.9846C47.5252 69.107 49.2685 71.3186 51.5248 72.9754C52.2522 73.5023 53.2069 74.0918 54.0216 74.4096C54.3466 74.5329 54.6852 74.6173 55.0301 74.6607C55.0741 74.6647 55.1187 74.6674 55.1634 74.6701C54.2414 73.6828 53.47 72.4398 53.2075 71.1241Z" fill="#46331E"/>
<path d="M64.281 55.7832C64.3125 55.8494 64.3505 55.9123 64.3942 55.9711C64.4582 56.0449 64.5296 56.1119 64.6074 56.1709C65.207 56.5846 66.2322 56.7905 66.9643 56.8724C67.4885 56.9264 68.1987 56.9483 68.6963 56.8811C68.7945 56.8654 68.8909 56.84 68.9841 56.8051C69.0206 56.7879 69.0556 56.7676 69.0886 56.7445C69.1032 56.7313 69.117 56.7173 69.13 56.7025C69.1366 56.6912 69.1426 56.6805 69.1479 56.6692C69.1533 56.6579 69.1546 56.6432 69.1573 56.6299C69.1586 56.6077 69.1586 56.5855 69.1573 56.5633C69.1477 56.5195 69.1348 56.4765 69.1186 56.4347C69.0669 56.3299 69.0044 56.2308 68.9321 56.139C68.7665 55.9401 68.5782 55.7613 68.3712 55.606C68.2048 55.4923 68.026 55.398 67.8383 55.3249C67.0709 55.0431 66.2049 55.0118 65.4454 54.9046C64.9525 54.838 64.6534 54.7753 64.2257 54.7454C64.196 55.0071 64.1929 55.2711 64.2164 55.5334C64.23 55.6185 64.2517 55.7022 64.281 55.7832Z" fill="#46331E"/>
<path d="M62.8062 75.331C62.7946 75.2996 62.7897 75.2662 62.7917 75.2328C62.7936 75.1994 62.8025 75.1668 62.8176 75.137C62.8328 75.1072 62.8539 75.0808 62.8797 75.0595C62.9055 75.0382 62.9354 75.0225 62.9676 75.0133C62.9997 75.0042 63.0334 75.0017 63.0666 75.0061C63.0997 75.0106 63.1316 75.0218 63.1602 75.0391C63.1888 75.0564 63.2136 75.0794 63.2329 75.1067C63.2522 75.134 63.2657 75.165 63.2725 75.1978C63.3458 75.4679 63.4017 75.7425 63.4397 76.0198C63.8613 75.5215 64.2664 75.0099 64.6614 74.4876C64.6136 74.4041 64.5773 74.3145 64.5535 74.2212C64.0206 74.483 63.3817 74.4983 62.7922 74.393C62.7605 74.3857 62.7306 74.3721 62.7044 74.3528C62.6781 74.3336 62.6561 74.3092 62.6396 74.2811C62.623 74.2544 62.612 74.2245 62.6072 74.1934C62.6024 74.1622 62.6039 74.1305 62.6116 74.0999C63.5602 71.3254 65.4055 69.1271 67.1162 66.6463C67.5698 65.9895 68.0888 65.2014 68.4738 64.4946C67.5725 65.2647 66.7711 66.0747 66.0503 67.0547C65.2056 68.2231 64.6228 69.4528 63.9799 70.6905C63.866 70.9097 63.7481 71.1269 63.6368 71.3474C63.3404 71.9323 63.042 72.5678 62.6716 73.1207C62.4478 73.4538 62.1953 73.7868 61.8582 74.016C61.8482 74.0509 61.8305 74.0832 61.8064 74.1104C61.7823 74.1376 61.7524 74.1591 61.719 74.1732C61.6855 74.1874 61.6493 74.1939 61.613 74.1923C61.5767 74.1907 61.5412 74.181 61.5091 74.1639C60.9169 73.8308 60.4493 73.3592 59.9257 72.8802C59.7823 72.7525 59.6487 72.6142 59.526 72.4665C59.4681 72.397 59.4145 72.3241 59.3655 72.248C59.2947 72.1332 59.2398 72.0092 59.2022 71.8796C59.1203 71.9975 59.033 72.1128 58.9398 72.2227C58.9112 72.252 58.8758 72.2737 58.8366 72.2858C58.7975 72.2978 58.756 72.2999 58.7159 72.2917C58.6758 72.2836 58.6384 72.2655 58.6071 72.2391C58.5758 72.2127 58.5516 72.1789 58.5368 72.1408C58.2706 72.1337 58.0069 72.0888 57.7534 72.0075C57.4438 71.9111 57.1573 71.7525 56.9113 71.5412C56.7413 71.3935 56.6038 71.212 56.5076 71.0083C56.4723 70.9338 56.4434 70.8565 56.421 70.7771C56.3803 70.6269 56.3652 70.4708 56.3764 70.3155C56.3855 70.1544 56.4206 69.9958 56.4803 69.8459C56.3299 69.7786 56.186 69.6974 56.0507 69.6034C55.9045 69.5046 55.7715 69.3875 55.655 69.255C55.5521 69.1359 55.4664 69.0029 55.4005 68.8599C55.3663 68.7852 55.338 68.7079 55.3159 68.6288C55.2578 68.4032 55.2463 68.1682 55.2819 67.938C55.3439 67.4863 55.5903 67.0014 55.8528 66.6363C56.0939 66.2979 56.3694 65.9854 56.6748 65.7037C57.1139 65.2944 57.607 64.9472 58.1404 64.6718C58.5048 64.4906 59.0297 64.2668 59.4341 64.2668C59.5585 64.2619 59.6822 64.2882 59.7938 64.3434C59.8705 64.3834 59.9354 64.4427 59.9821 64.5155C60.0289 64.5883 60.0558 64.672 60.0603 64.7584C60.0929 65.0555 59.8911 65.4326 59.7432 65.691C59.6765 65.8063 59.6099 65.9209 59.54 66.0348C60.0536 65.6111 60.6431 65.1987 61.2367 64.9216C61.5648 64.7606 61.912 64.6418 62.2699 64.5679C62.6056 64.4957 62.9522 64.4907 63.2898 64.5532C63.3258 64.5622 63.3594 64.5792 63.3878 64.603C63.4163 64.6269 63.439 64.6569 63.4542 64.6908C63.4693 64.7247 63.4765 64.7616 63.4753 64.7987C63.4741 64.8358 63.4644 64.8722 63.447 64.905C63.4164 64.9603 63.3804 65.0142 63.3537 65.0708C63.3509 65.0972 63.346 65.1232 63.3391 65.1488C63.3074 65.2595 63.2567 65.3639 63.1892 65.4572C63.0824 65.6055 62.9612 65.743 62.8275 65.8676C62.4085 66.2599 61.9155 66.595 61.6037 66.8815C61.5161 66.9578 61.4373 67.0436 61.3686 67.1373C61.1585 67.4451 60.977 67.7716 60.8263 68.1125C60.6318 68.5329 60.4933 68.8453 60.3434 69.2523C61.25 67.866 62.3292 66.589 63.4816 65.4132C63.8907 64.9976 64.3077 64.5892 64.74 64.1982C66.0663 62.9991 67.5265 61.9692 68.9828 60.8094C68.9375 60.8461 69.132 60.6855 69.2865 60.5869C69.6016 60.3871 70.0952 60.1433 70.457 60.0853C70.5397 60.071 70.6235 60.0632 70.7074 60.062C70.9459 60.062 71.1225 60.1546 71.213 60.2665C71.2424 60.2998 71.2681 60.3363 71.2897 60.3751C71.3084 60.4123 71.3244 60.4508 71.3376 60.4904C71.3788 60.6473 71.3831 60.8117 71.3503 60.9707C71.3876 60.9667 71.4242 60.964 71.4622 60.9627C71.5238 60.8929 71.5906 60.8278 71.662 60.7681C71.7609 60.6813 71.8706 60.6076 71.9885 60.549C72.0529 60.5174 72.1197 60.4909 72.1883 60.4697C72.2869 60.4427 72.3885 60.4283 72.4907 60.4271C72.5147 60.4271 72.5387 60.4271 72.5627 60.4271C72.4075 59.5611 72.2063 58.4033 72.2463 57.5233C72.2677 57.231 72.3149 56.9412 72.3875 56.6573C72.183 56.9537 71.8546 57.4094 71.5062 57.3268C71.4353 57.3103 71.3706 57.2741 71.3196 57.2222C71.2278 57.1161 71.169 56.9855 71.1504 56.8465C71.1389 56.775 71.1302 56.7037 71.1244 56.6326C71.0561 56.7011 70.9843 56.766 70.9093 56.8272C70.8515 56.877 70.7832 56.9132 70.7094 56.9331C70.655 56.9462 70.5982 56.9459 70.5439 56.9322C70.4896 56.9185 70.4394 56.8918 70.3977 56.8545C70.2545 56.7272 70.2318 56.5047 69.9887 56.1883C69.4664 55.5128 68.9554 54.8673 68.6197 54.0799C68.5376 53.8937 68.4727 53.7004 68.4258 53.5024C68.4132 53.4477 68.3985 53.3938 68.3852 53.3398C67.8759 53.325 67.3663 53.3553 66.8624 53.4304C66.502 53.487 66.1896 53.5563 65.5354 53.6243C63.479 53.8361 61.3713 53.7022 59.53 54.481C59.1503 54.6495 58.7822 54.8431 58.4282 55.0605C57.4516 55.6547 56.457 56.4468 55.7795 57.3614C55.5767 57.6378 55.4084 57.9381 55.2786 58.2554C55.2064 58.4489 55.1568 58.6501 55.1307 58.8549C55.1167 59.0102 55.1199 59.1666 55.14 59.3212C55.168 59.4838 55.1867 59.4978 55.1773 59.5717C55.4764 60.2952 55.8208 60.9707 56.0866 61.7461C56.1772 61.0553 56.3413 60.3762 56.5763 59.7203C56.5864 59.6782 56.6075 59.6396 56.6375 59.6084L56.6782 59.5757C56.6832 59.5274 56.7026 59.4818 56.7338 59.4446C56.7651 59.4075 56.8067 59.3805 56.8534 59.3672C58.8145 59.0375 61.0189 58.402 62.9154 58.9675C62.9571 58.9781 62.9953 58.9993 63.0264 59.0291C63.0574 59.0589 63.0802 59.0962 63.0926 59.1374C63.1019 59.1675 63.105 59.1993 63.1017 59.2306C63.0984 59.262 63.0887 59.2924 63.0733 59.3199C62.7464 59.7791 62.3663 60.1979 61.9408 60.5676C61.6196 60.859 61.2647 61.1108 60.8836 61.3177C60.905 61.3662 60.909 61.4205 60.895 61.4716C60.8995 61.5026 60.8984 61.5342 60.8916 61.5649C60.8775 61.6258 60.8402 61.6788 60.7877 61.7127C59.1083 63.3015 57.3823 64.8437 55.7422 66.4731C55.6963 66.5188 55.6345 66.5451 55.5697 66.5464C55.5427 66.5691 55.511 66.5857 55.477 66.5951C55.4429 66.6045 55.4073 66.6064 55.3724 66.6007C55.3375 66.595 55.3043 66.5818 55.275 66.5621C55.2457 66.5424 55.221 66.5166 55.2026 66.4864C55.0265 66.1852 54.888 65.8635 54.7903 65.5285C54.4772 65.9996 54.2157 66.503 54.0102 67.03C53.7939 67.6087 53.6485 68.2116 53.5772 68.8253C53.5156 69.4337 53.5283 70.0473 53.6152 70.6526C53.686 71.1529 53.8226 71.6416 54.0215 72.1061C54.8043 73.8868 56.4723 75.5821 58.3549 76.3189C58.7437 76.4671 59.149 76.5675 59.562 76.618C60.7404 76.7266 61.8482 76.2183 62.986 76.2663C62.9508 75.9503 62.8906 75.6375 62.8062 75.331ZM63.7628 54.4237C63.7621 54.3816 63.7722 54.3401 63.7921 54.3031L63.8307 54.2505C63.8538 54.2263 63.8817 54.2071 63.9126 54.1942C63.9434 54.1813 63.9766 54.1749 64.0101 54.1754C64.0435 54.1759 64.0765 54.1833 64.107 54.1971C64.1374 54.211 64.1647 54.2309 64.1871 54.2558C64.5868 54.2831 64.9865 54.3437 65.3862 54.4057C66.472 54.5749 67.8363 54.5642 68.7296 55.277C68.9122 55.4192 69.0804 55.579 69.2319 55.754C69.3755 55.9103 69.4905 56.0907 69.5716 56.2869C69.6379 56.4415 69.6538 56.6131 69.6169 56.7772C69.5918 56.8653 69.5494 56.9475 69.4923 57.0191C69.4351 57.0907 69.3642 57.1502 69.2839 57.1942C69.0772 57.3016 68.8502 57.3645 68.6177 57.3787C68.1157 57.4238 67.6106 57.4223 67.1089 57.3741C66.3315 57.3035 65.5214 57.1542 64.8073 56.8411C64.5275 56.7179 64.2291 56.5427 64.0345 56.3049C63.9757 56.2364 63.9243 56.1618 63.8813 56.0824C63.795 55.9208 63.7411 55.7438 63.7228 55.5615C63.6815 55.2277 63.7221 54.8673 63.7628 54.4237ZM62.4971 58.4239C60.7457 58.9122 58.7466 58.9069 57.5295 58.5692C57.4726 58.5729 57.4163 58.5559 57.371 58.5212C57.3284 58.5051 57.2912 58.4772 57.2637 58.4409C57.2363 58.4045 57.2196 58.3611 57.2157 58.3158C57.2118 58.2704 57.2208 58.2248 57.2417 58.1843C57.2626 58.1438 57.2945 58.11 57.3337 58.0869C57.4976 57.5493 57.75 56.8318 58.0598 56.3595C58.1504 56.2146 58.2572 56.0805 58.3782 55.9598C58.4859 55.8506 58.6137 55.7632 58.7546 55.7027C58.8994 55.6364 59.0514 55.5872 59.2076 55.5561C59.3725 55.5242 59.5399 55.5062 59.7079 55.5022C60.1318 55.5009 60.554 55.5544 60.9642 55.6614C62.0461 55.9278 63.2585 56.4974 64.2384 57.0636C64.2535 57.0557 64.2693 57.0493 64.2857 57.0443L64.347 57.035C64.4114 57.0337 64.4737 57.0581 64.5203 57.1026C64.5669 57.1472 64.5939 57.2084 64.5955 57.2728C64.5968 57.3048 64.5917 57.3368 64.5802 57.3667C64.5687 57.3966 64.5513 57.4238 64.5288 57.4467L64.4529 57.5066C64.4274 57.539 64.3942 57.5645 64.3563 57.5806C64.1253 57.7512 63.8767 57.8968 63.6149 58.0149C63.2541 58.1812 62.8805 58.318 62.4977 58.4239H62.4971ZM60.2021 63.9637C60.3999 63.2835 60.7238 62.6465 61.1567 62.0858C61.4661 61.6807 61.8216 61.3129 62.2159 60.99C62.3385 60.8887 62.4651 60.7901 62.5897 60.6942C63.2911 60.122 63.7554 59.3286 64.4995 58.741C64.5905 58.6684 64.6859 58.6017 64.7853 58.5412C65.0857 58.36 65.5041 58.2194 65.8458 58.1288C67.4319 57.7071 69.152 57.8104 70.7834 57.7631C70.8241 57.7624 70.8644 57.772 70.9004 57.7909C70.9365 57.8098 70.9673 57.8374 70.99 57.8713C71.0126 57.9051 71.0264 57.9441 71.0302 57.9847C71.0339 58.0253 71.0273 58.0661 71.0112 58.1035C71.0128 58.1465 71.0031 58.1892 70.9832 58.2274C70.3837 59.3785 69.4118 59.7562 68.3852 60.4697C68.3577 60.5049 68.3204 60.5311 68.278 60.545C67.821 60.8681 67.0496 61.4569 66.1709 62.0498C64.3789 63.2589 62.7442 64.0516 60.6032 64.386C60.5628 64.3967 60.5203 64.3967 60.4799 64.386L60.4206 64.3634C60.365 64.3329 60.3232 64.282 60.3041 64.2215C60.2625 64.1943 60.2305 64.1549 60.2123 64.1087C60.1942 64.0626 60.1909 64.0119 60.2028 63.9637H60.2021Z" fill="#46331E"/>
<path d="M69.4237 65.7522C69.7955 64.7643 70.2897 62.8264 71.0099 61.5994C70.9437 61.6382 70.8801 61.6811 70.8193 61.7279C70.0499 62.3621 69.4977 63.5858 69.0001 64.5464C68.3819 65.7415 67.2334 67.333 66.5093 68.3435C65.2743 70.0642 63.9113 71.9494 63.1785 73.9579C63.3932 73.9756 63.609 73.9709 63.8227 73.9439C63.9775 73.9189 64.1292 73.8771 64.275 73.8193C64.349 73.7852 64.4205 73.7458 64.4889 73.7014C64.5008 73.6943 64.5133 73.6881 64.5262 73.6828C64.5462 73.5063 64.5869 73.3328 64.6474 73.1658C64.9212 72.3944 65.3848 71.7702 65.7939 71.1521C65.9118 70.9742 66.023 70.791 66.1416 70.6138C67.0709 69.2262 68.1927 68.0284 68.9801 66.6488C69.1494 66.361 69.2977 66.0614 69.4237 65.7522Z" fill="#46331E"/>
<path d="M67.2787 60.2884C67.5452 60.2218 67.8116 60.1611 68.0781 60.0952C69.0154 59.4357 69.7435 59.1546 70.3224 58.3832C70.3517 58.3419 70.379 58.2999 70.4063 58.2579C68.7536 58.2852 66.7804 58.2026 65.2769 58.8308C65.097 58.9147 64.9275 59.0193 64.772 59.1426C64.1971 59.6136 63.7528 60.2644 63.2305 60.7727C63.0515 60.9448 62.861 61.1047 62.6603 61.251C62.3555 61.4964 62.0712 61.7662 61.8102 62.0577C63.6522 61.4788 65.4375 60.7494 67.2787 60.2884Z" fill="#46331E"/>
<path d="M62.3805 52.0781C63.0593 51.783 63.8853 51.3713 64.5488 51.0349C63.8166 50.3798 63.1556 49.6492 62.577 48.8552C61.8389 49.1217 60.8969 49.2669 60.1122 49.3562C59.1982 49.4601 58.2296 49.522 57.359 49.6733C57.3377 49.7692 57.2924 49.7785 57.0799 50.067C56.8478 50.3888 56.6565 50.7381 56.5103 51.1068C56.4533 51.2611 56.4055 51.4186 56.3671 51.5785C56.5557 51.6215 56.7465 51.6546 56.9386 51.6777C57.3294 51.7128 57.723 51.7012 58.1111 51.6431C58.4048 51.5965 58.6946 51.5318 58.9831 51.4606C59.0424 51.4501 59.1035 51.4621 59.1546 51.494C59.2057 51.526 59.2431 51.5758 59.2597 51.6337C59.2762 51.6917 59.2707 51.7537 59.2443 51.8078C59.2178 51.862 59.1722 51.9044 59.1163 51.9269C58.4408 52.0934 57.8299 52.2127 57.1531 52.1767C57.1484 52.1832 57.1433 52.1894 57.1378 52.1953C57.0838 52.2566 57.0319 52.3192 56.9826 52.3845C56.8797 52.5298 56.7934 52.6863 56.7255 52.8508C56.6858 52.9624 56.656 53.0772 56.6362 53.1939C58.6014 53.2186 60.6465 52.8202 62.3805 52.0781Z" fill="#46331E"/>
<path d="M73.4313 58.7123C73.3846 58.668 73.3223 58.6439 73.258 58.6453C73.1936 58.6467 73.1324 58.6734 73.0876 58.7196C73.0655 58.7427 73.0483 58.77 73.0368 58.7999C73.0254 58.8297 73.02 58.8615 73.021 58.8935C73.0234 58.9577 73.05 59.0187 73.0956 59.064C73.1602 59.1337 73.2198 59.2079 73.2741 59.2858C73.3089 59.3412 73.3634 59.3812 73.4267 59.3978C73.4894 59.4126 73.5554 59.402 73.6103 59.3683C73.6653 59.3346 73.7046 59.2805 73.7198 59.2179C73.7274 59.1874 73.7289 59.1556 73.7241 59.1245C73.7193 59.0934 73.7083 59.0635 73.6918 59.0367C73.6117 58.9234 73.5247 58.815 73.4313 58.7123Z" fill="#46331E"/>
<path d="M74.9535 57.7057C74.9252 57.6903 74.8941 57.6806 74.862 57.6772C74.8299 57.6737 74.7974 57.6767 74.7665 57.6859C74.7355 57.695 74.7067 57.7102 74.6816 57.7305C74.6566 57.7509 74.6358 57.7759 74.6204 57.8043C74.5471 57.9491 74.4752 58.0946 74.4046 58.2407C74.3894 58.2688 74.3799 58.2996 74.3766 58.3314C74.3733 58.3632 74.3763 58.3954 74.3855 58.426C74.3947 58.4566 74.4098 58.4851 74.43 58.5099C74.4501 58.5347 74.475 58.5553 74.5032 58.5704C74.5315 58.5859 74.5626 58.5956 74.5947 58.599C74.6268 58.6024 74.6592 58.5994 74.6902 58.5903C74.7211 58.5811 74.75 58.5659 74.775 58.5456C74.8001 58.5253 74.8209 58.5002 74.8362 58.4718C74.9069 58.3253 74.9788 58.1798 75.0521 58.0355C75.0819 57.9785 75.0883 57.9122 75.0699 57.8506C75.0515 57.789 75.0097 57.737 74.9535 57.7057Z" fill="#46331E"/>
<path d="M74.3106 55.9671C74.2154 55.8758 74.1208 55.7826 74.0268 55.6893C73.9792 55.6523 73.9195 55.6343 73.8593 55.6389C73.7991 55.6434 73.7428 55.6702 73.7013 55.714C73.6597 55.7578 73.636 55.8154 73.6346 55.8757C73.6332 55.9361 73.6543 55.9947 73.6938 56.0404C73.7879 56.1341 73.8825 56.2269 73.9775 56.3188C74.0252 56.3566 74.0852 56.3751 74.1459 56.3708C74.2065 56.3665 74.2633 56.3396 74.3051 56.2955C74.3469 56.2513 74.3707 56.1931 74.3717 56.1323C74.3727 56.0716 74.3509 56.0126 74.3106 55.9671Z" fill="#46331E"/>
</svg>
