<svg width="46" height="46" viewBox="0 0 46 46" fill="none" xmlns="http://www.w3.org/2000/svg">
<rect x="0.25" y="0.25" width="45.5" height="45.5" rx="22.75" fill="white"/>
<g clip-path="url(#clip0_210_2045)">
<path d="M22.4466 22.6202C22.2077 22.6398 21.985 22.7486 21.8227 22.9248C21.6603 23.1011 21.5702 23.3319 21.5702 23.5716C21.5702 23.8112 21.6603 24.0421 21.8227 24.2184C21.985 24.3946 22.2077 24.5034 22.4466 24.523C22.5667 24.5186 22.6849 24.4904 22.7941 24.4401C22.9034 24.3898 23.0016 24.3184 23.083 24.2299C23.1645 24.1415 23.2277 24.0378 23.2689 23.9248C23.3101 23.8118 23.3284 23.6917 23.323 23.5716C23.3289 23.4513 23.3108 23.3311 23.2698 23.2179C23.2287 23.1047 23.1656 23.0009 23.084 22.9123C23.0025 22.8238 22.9041 22.7523 22.7947 22.7022C22.6852 22.652 22.5669 22.6241 22.4466 22.6202ZM25.5751 22.6202C25.3836 22.6044 25.1918 22.6468 25.0248 22.7418C24.8578 22.8369 24.7234 22.9801 24.6391 23.1527C24.5548 23.3254 24.5245 23.5195 24.5523 23.7096C24.5801 23.8997 24.6646 24.0771 24.7948 24.2184C24.925 24.3597 25.0948 24.4585 25.282 24.5017C25.4692 24.545 25.6651 24.5307 25.8441 24.4609C26.0231 24.391 26.1768 24.2687 26.2852 24.1101C26.3936 23.9514 26.4516 23.7637 26.4516 23.5716C26.457 23.4516 26.4387 23.3317 26.3976 23.2189C26.3566 23.106 26.2936 23.0024 26.2124 22.914C26.1311 22.8255 26.0332 22.7541 25.9242 22.7036C25.8152 22.6532 25.6973 22.6248 25.5773 22.6202H25.5751Z" fill="#22252D"/>
<path d="M29.743 15.4287H18.2573C18.0258 15.4293 17.7967 15.4755 17.583 15.5646C17.3694 15.6538 17.1754 15.7842 17.0123 15.9484C16.8491 16.1126 16.7198 16.3073 16.632 16.5215C16.5441 16.7357 16.4993 16.9651 16.5001 17.1966V28.783C16.4993 29.0145 16.5441 29.2439 16.632 29.458C16.7198 29.6722 16.8491 29.867 17.0123 30.0312C17.1754 30.1953 17.3694 30.3258 17.583 30.4149C17.7967 30.5041 18.0258 30.5503 18.2573 30.5509H27.9773L27.523 28.9651L28.6201 29.983L29.6573 30.943L31.5001 32.5716V17.1966C31.501 16.9651 31.4562 16.7357 31.3683 16.5215C31.2804 16.3073 31.1512 16.1126 30.988 15.9484C30.8248 15.7842 30.6309 15.6538 30.4172 15.5646C30.2036 15.4755 29.9745 15.4293 29.743 15.4287V15.4287ZM26.4344 26.6251C26.4344 26.6251 26.1258 26.2566 25.8687 25.9287C26.4905 25.7834 27.0408 25.4229 27.4223 24.9109C27.1139 25.1161 26.7832 25.2858 26.4366 25.4166C26.0378 25.5868 25.6208 25.7104 25.1937 25.7851C24.4596 25.9203 23.7067 25.9174 22.9737 25.7766C22.5434 25.6924 22.1216 25.569 21.7137 25.408C21.3693 25.2744 21.0402 25.1042 20.7323 24.9001C21.0991 25.4018 21.6297 25.7596 22.2323 25.9116C21.9751 26.2373 21.658 26.623 21.658 26.623C21.1488 26.6367 20.6441 26.5251 20.1882 26.2979C19.7323 26.0707 19.3393 25.7349 19.0437 25.3201C19.0709 23.5826 19.4922 21.874 20.2758 20.323C20.9667 19.7804 21.8091 19.4659 22.6866 19.423L22.7723 19.5259C21.9475 19.73 21.1778 20.1133 20.518 20.6487C20.518 20.6487 20.7066 20.5459 21.0237 20.4001C21.6405 20.1187 22.2979 19.9364 22.9716 19.8601C23.0195 19.8502 23.0683 19.8445 23.1173 19.843C23.6917 19.7682 24.2729 19.7624 24.8487 19.8259C25.7541 19.9293 26.6306 20.2088 27.4287 20.6487C26.8024 20.1389 26.0749 19.7678 25.2944 19.5601L25.4144 19.423C26.2918 19.4659 27.1342 19.7804 27.8251 20.323C28.6088 21.874 29.0301 23.5826 29.0573 25.3201C28.7595 25.7349 28.3649 26.0706 27.9078 26.298C27.4506 26.5255 26.9448 26.6378 26.4344 26.6251Z" fill="#22252D"/>
</g>
<rect x="0.25" y="0.25" width="45.5" height="45.5" rx="22.75" stroke="#C6C8D3" stroke-width="0.5"/>
<defs>
<clipPath id="clip0_210_2045">
<rect width="17.1429" height="17.1429" fill="white" transform="translate(15.4287 15.4287)"/>
</clipPath>
</defs>
</svg>
