<svg width="24" height="24" viewBox="0 0 24 24" fill="none" xmlns="http://www.w3.org/2000/svg">
<path fill-rule="evenodd" clip-rule="evenodd" d="M12.0101 0.143555C5.45094 0.143555 0.128891 5.46561 0.128891 12.0247C0.128891 18.5839 5.45094 23.9059 12.0101 23.9059C18.5563 23.9059 23.8913 18.5839 23.8913 12.0247C23.8913 5.46561 18.5563 0.143555 12.0101 0.143555ZM19.8578 5.62024C21.2753 7.34701 22.1259 9.55056 22.1516 11.9345C21.8166 11.8701 18.4661 11.1871 15.0899 11.6124C15.0126 11.4449 14.9482 11.2644 14.8708 11.0841C14.6646 10.5944 14.4327 10.0918 14.2007 9.61502C17.9378 8.09445 19.6388 5.90374 19.8578 5.62024ZM12.0101 1.8961C14.5873 1.8961 16.9455 2.86257 18.7368 4.44759C18.5563 4.70532 17.0228 6.75424 13.4147 8.10729C11.7523 5.05324 9.90963 2.5533 9.62612 2.16671C10.3864 1.9863 11.1854 1.8961 12.0101 1.8961ZM7.6932 2.84968C7.96379 3.2105 9.76788 5.72333 11.456 8.71294C6.7138 9.97583 2.52575 9.95007 2.07473 9.95007C2.73193 6.80578 4.85817 4.18986 7.6932 2.84968ZM1.85566 12.0377C1.85566 11.9345 1.85566 11.8315 1.85566 11.7284C2.29379 11.7412 7.21637 11.8057 12.2807 10.2851C12.5771 10.8521 12.8477 11.4319 13.1055 12.0118C12.9765 12.0505 12.8348 12.0892 12.7059 12.1278C7.47409 13.8159 4.69065 18.4292 4.45869 18.8158C2.8479 17.0246 1.85566 14.6407 1.85566 12.0377ZM12.0101 22.1792C9.66473 22.1792 7.49987 21.3802 5.78599 20.04C5.96639 19.6664 8.02817 15.6974 13.7497 13.7C13.7755 13.6871 13.7884 13.6871 13.8142 13.6742C15.2445 17.3725 15.8245 20.4781 15.9791 21.3673C14.7549 21.8956 13.4147 22.1792 12.0101 22.1792ZM17.6672 20.4395C17.5641 19.821 17.0228 16.8571 15.6956 13.2103C18.8785 12.7077 21.6619 13.5325 22.0099 13.6485C21.5718 16.4705 19.9481 18.906 17.6672 20.4395Z" fill="#46331E"/>
</svg>
