<svg width="54" height="49" viewBox="0 0 54 49" fill="none" xmlns="http://www.w3.org/2000/svg">
<path d="M11.3815 8.65174C10.8917 8.48331 10.3875 8.36057 9.87514 8.28508C9.48744 8.22356 9.3895 8.19928 8.99208 8.22437C8.32027 8.26646 7.48092 8.43482 6.89409 8.67845C6.76445 8.73332 6.64122 8.80227 6.52662 8.88404C6.49631 8.91031 6.46791 8.93871 6.44164 8.96903L6.42383 9.00059C6.42421 9.00301 6.42421 9.00547 6.42383 9.00788C6.42383 9.01273 6.42383 9.01759 6.42383 9.02164C6.43286 9.03813 6.44286 9.05408 6.45378 9.06939C6.49623 9.11589 6.54283 9.15842 6.59299 9.19647C6.70661 9.27572 6.82813 9.34299 6.95561 9.3972C7.08849 9.44267 7.22575 9.47414 7.36517 9.49109C8.55014 9.59551 10.0921 8.91884 11.3815 8.65174Z" fill="#EACAE5"/>
<path d="M46.8943 22.8067C46.8134 23.2867 46.7503 23.9674 46.8134 24.4352C46.8195 24.4724 46.8276 24.5091 46.8377 24.5453C47.2618 24.1673 47.7936 23.141 48.0518 22.7258C47.9029 22.559 47.7547 22.3923 47.5953 22.2353C46.9535 21.6176 46.1941 21.1354 45.3621 20.8172C44.7618 20.5953 44.1366 20.4477 43.5005 20.3777C43.5553 20.6053 43.6292 20.8278 43.7215 21.043C44.0873 21.8654 44.6426 22.5955 45.1978 23.3134C45.3862 23.533 45.5423 23.7783 45.6616 24.0419C45.7584 23.9525 45.8505 23.8582 45.9376 23.7594C45.9869 23.6826 46.029 23.6013 46.0631 23.5166C46.2047 23.1191 46.2387 22.7533 46.3868 22.3445C46.3957 22.3211 46.4046 22.2968 46.4144 22.2733C46.4324 22.2381 46.4577 22.2071 46.4885 22.1823C46.5193 22.1575 46.555 22.1394 46.5932 22.1292C46.6429 22.1152 46.6953 22.1143 46.7454 22.1268C46.7954 22.1392 46.8414 22.1645 46.8787 22.2002C46.916 22.2358 46.9433 22.2806 46.958 22.33C46.9726 22.3795 46.9741 22.4319 46.9623 22.4821C46.9338 22.589 46.9111 22.6974 46.8943 22.8067Z" fill="#EACAE5"/>
<path d="M17.8058 19.5585C17.6241 19.6382 17.4519 19.7381 17.2926 19.8564C17.2034 19.9307 17.1221 20.014 17.0498 20.1049C17.0001 20.178 16.9579 20.2558 16.9235 20.3372C16.8954 20.4186 16.8756 20.5027 16.8644 20.5881C16.8567 20.699 16.86 20.8104 16.8741 20.9207C16.9099 21.1119 16.9663 21.2986 17.0425 21.4776C17.1366 21.6981 17.2555 21.9072 17.397 22.1009C17.487 22.2072 17.5879 22.3038 17.6981 22.389C17.8365 22.4841 17.985 22.5636 18.1408 22.6262C18.3818 22.7105 18.6317 22.767 18.8855 22.7945C20.6597 22.9629 22.9479 22.13 24.6234 21.5148C24.5174 20.7564 24.4429 20.0247 24.4032 19.272C22.8014 19.0882 20.7536 18.9709 19.1494 19.2048C18.6889 19.2681 18.2377 19.3869 17.8058 19.5585Z" fill="#EACAE5"/>
<path d="M13.1037 6.67507C13.064 6.67021 13.0316 6.66698 13.0713 6.67102L13.1037 6.67507Z" fill="#EACAE5"/>
<path d="M21.7655 17.5479C22.6558 17.3763 23.5332 17.1601 24.4146 16.9521V16.9181C24.358 16.8777 24.2584 16.77 23.9638 16.5515C22.7497 15.6797 21.1827 15.1682 19.7136 15.0047C18.6209 14.8962 17.5031 14.9626 16.4857 15.39C16.2312 15.5 15.9903 15.6391 15.7677 15.8044C15.6428 15.9079 15.5293 16.0246 15.4294 16.1524C15.3653 16.2461 15.3111 16.3462 15.2675 16.4511C15.2406 16.5301 15.2208 16.6114 15.2084 16.6939C15.1927 16.8426 15.2156 16.9929 15.2748 17.1302C15.3132 17.2101 15.359 17.2863 15.4116 17.3576C15.49 17.4473 15.5773 17.5286 15.6722 17.6005C15.8171 17.6983 15.9724 17.7798 16.1352 17.8433C16.4142 17.9399 16.7035 18.004 16.9972 18.0343C17.8649 18.1152 18.8314 18.0141 19.6942 17.8878C20.039 17.8417 21.3761 17.6223 21.7655 17.5479Z" fill="#EACAE5"/>
<path d="M13.3837 13.7154C13.3576 13.6631 13.3273 13.613 13.2931 13.5656C13.2354 13.4996 13.1715 13.4394 13.1021 13.3859C12.9887 13.3105 12.8681 13.2468 12.7419 13.1957C12.6791 13.1765 12.6182 13.1519 12.5598 13.1221C12.4877 13.1261 12.4165 13.1318 12.3453 13.1415C12.2049 13.1652 12.0674 13.2035 11.9349 13.2556C11.8323 13.3025 11.7349 13.36 11.6443 13.4272C11.5776 13.4842 11.5166 13.5477 11.4622 13.6166C11.4214 13.6771 11.3865 13.7414 11.3578 13.8084C11.3391 13.8638 11.3253 13.9207 11.3165 13.9784C11.3125 14.0277 11.3125 14.0773 11.3165 14.1265C11.3252 14.171 11.3377 14.2146 11.3537 14.2569C11.3741 14.2973 11.3974 14.3363 11.4234 14.3734C11.4572 14.4108 11.4941 14.4455 11.5334 14.477C11.5881 14.5128 11.6458 14.5437 11.7058 14.5693C11.7972 14.5995 11.8913 14.6209 11.9867 14.6332C12.3074 14.66 12.63 14.6106 12.928 14.4892C13.0182 14.4474 13.1041 14.3969 13.1846 14.3386C13.2346 14.2953 13.2809 14.2479 13.323 14.197C13.3497 14.156 13.373 14.113 13.3926 14.0683C13.4047 14.0318 13.4139 13.9945 13.4202 13.9566C13.4226 13.9183 13.4226 13.8799 13.4202 13.8416C13.4109 13.7988 13.3987 13.7566 13.3837 13.7154Z" fill="#EACAE5"/>
<path d="M29.1675 7.26528C29.1181 6.86058 29.1521 6.71489 29.1205 6.4494C29.1133 6.41157 29.1035 6.37425 29.0914 6.3377C29.0821 6.32015 29.0718 6.30312 29.0606 6.28671C29.0427 6.2674 29.0235 6.24929 29.0031 6.23248C28.9472 6.19785 28.8885 6.16806 28.8275 6.14345C28.7227 6.10395 28.6143 6.07494 28.5037 6.05684C27.8829 6.01232 26.859 6.33932 26.2827 6.58376C26.0657 6.67265 25.8595 6.78617 25.6684 6.9221C25.5499 7.0265 25.4385 7.13872 25.3349 7.258C25.3135 7.29126 25.2943 7.32587 25.2774 7.3616C25.2684 7.39214 25.2614 7.42324 25.2564 7.45469C25.2544 7.49027 25.2544 7.52594 25.2564 7.56153C26.5563 7.46683 27.8627 7.36322 29.1675 7.26528Z" fill="#EACAE5"/>
<path d="M28.6389 4.14832C28.5458 4.06738 28.4511 3.99129 28.3524 3.91845C28.0808 3.72176 27.7865 3.55869 27.4758 3.4328C27.2693 3.35718 27.0551 3.30452 26.8371 3.27578C26.6776 3.2608 26.517 3.26324 26.358 3.28306C26.2209 3.30722 26.0866 3.34546 25.9573 3.39719C25.8296 3.45678 25.7086 3.52977 25.5963 3.61492C25.4605 3.72888 25.3381 3.85786 25.2313 3.99939C25.1656 4.09301 25.1054 4.19029 25.0508 4.29078C26.2415 4.15311 27.441 4.10549 28.6389 4.14832Z" fill="#EACAE5"/>
<path d="M24.9883 15.2169C25.3705 15.1236 25.7675 15.1069 26.1563 15.1675C26.1949 15.176 26.2314 15.1924 26.2633 15.2159C26.2953 15.2393 26.3219 15.2691 26.3416 15.3035C26.3814 15.3709 26.3929 15.4512 26.3736 15.527C26.3544 15.6029 26.3059 15.668 26.2388 15.7082C26.1719 15.7456 26.0936 15.7574 26.0187 15.7414C25.7908 15.7144 25.5604 15.7166 25.3331 15.7479C25.2643 15.7592 25.1963 15.7738 25.1283 15.7908C24.6321 19.1555 25.3323 23.1313 26.3076 26.3859C26.6718 25.1499 27.7022 24.0297 28.6921 23.1968C28.6716 23.07 28.6616 22.9417 28.6622 22.8132C28.6643 22.363 28.7906 21.9221 29.0272 21.5392C29.2146 21.2413 29.4378 20.9676 29.6917 20.7241C29.2377 20.7484 28.7828 20.7557 28.3279 20.7435C28.2799 20.7522 28.2305 20.7481 28.1846 20.7314C28.1438 20.7211 28.1058 20.7021 28.0731 20.6756C28.0403 20.6492 28.0137 20.616 27.995 20.5783C27.9763 20.5407 27.966 20.4994 27.9648 20.4573C27.9636 20.4153 27.9715 20.3735 27.9879 20.3348C28.0191 19.7943 28.2085 19.275 28.5327 18.8414C28.353 18.8115 28.1741 18.7742 27.9968 18.7313C27.931 18.7505 27.8604 18.7459 27.7976 18.7184C27.7347 18.6909 27.6835 18.6422 27.6528 18.5808C27.6085 18.5272 27.5849 18.4593 27.5865 18.3897C27.5882 18.3201 27.6149 18.2535 27.6618 18.202C27.8495 17.2865 28.2793 16.4731 28.8637 15.7438C28.7294 15.5054 28.6366 15.246 28.5893 14.9765C28.5495 14.7735 28.5342 14.5664 28.544 14.3597C28.0486 14.2739 27.6326 13.9081 27.2854 13.5608C27.2338 13.5101 27.2023 13.4424 27.1967 13.3703C27.191 13.2982 27.2116 13.2264 27.2546 13.1683C27.2685 13.1296 27.29 13.0941 27.3178 13.0639C27.7289 12.6138 28.1879 12.2018 28.7286 11.9145C30.6031 10.9173 33.1949 10.9295 34.7182 11.8336C34.7728 11.7271 34.846 11.6311 34.9343 11.5503C35.0936 11.4109 35.2708 11.2933 35.4612 11.2006C35.6951 11.0824 35.9371 10.9804 36.1767 10.8768C36.3406 10.8007 36.5084 10.7331 36.6794 10.6745C36.9414 10.5919 37.214 10.5475 37.4888 10.5426C38.5604 10.5426 39.3901 11.2832 40.1647 12.0222C42.3452 14.0991 44.1494 16.083 46.0013 18.5508C46.406 19.0859 46.7897 19.5877 47.0535 20.2239C47.2276 20.6407 47.2373 20.8148 47.2883 21.2081C47.8201 21.5999 48.0289 21.8257 48.4166 22.2563C48.5637 21.8888 48.7461 21.5364 48.9613 21.2041C49.0642 21.0458 49.1827 20.8983 49.315 20.7638C49.1417 20.3198 48.9406 19.8873 48.7128 19.4687C46.1397 14.8421 41.9842 10.3961 37.9574 7.00383C37.1492 6.30454 36.304 5.64906 35.4256 5.04021C35.4895 5.70878 35.496 6.32635 35.6239 6.93503C35.6436 7.00914 35.6349 7.08792 35.5996 7.156C35.5812 7.1902 35.5562 7.22043 35.5261 7.24496C35.496 7.26949 35.4613 7.28785 35.4241 7.29898C35.3869 7.3101 35.3479 7.31378 35.3092 7.3098C35.2706 7.30582 35.2331 7.29427 35.199 7.27579C35.1639 7.25748 35.1331 7.23215 35.1083 7.20137C35.0835 7.17059 35.0653 7.13503 35.0549 7.09691C34.8695 6.21142 34.9051 5.47243 34.7853 4.61607C33.9122 4.05533 33.0056 3.5485 32.0706 3.09844C31.1325 2.6484 30.6242 2.46143 29.9823 2.20809C28.4331 1.59617 26.9163 0.855567 25.2465 0.661309C24.7659 0.611648 24.2812 0.619528 23.8025 0.684782C23.4063 0.746703 23.0189 0.855382 22.6483 1.00855C22.3656 1.13427 22.0985 1.29264 21.8526 1.48043C21.6553 1.64283 21.4774 1.82752 21.3225 2.03083C21.1934 2.2163 21.0849 2.41523 20.9987 2.62412C20.9248 2.83186 20.8741 3.04712 20.8473 3.26598C20.8245 3.56054 20.8346 3.85672 20.8773 4.14905C21.0044 4.92365 21.2933 5.65455 21.5442 6.39515C22.6175 9.55508 22.7041 12.6422 24.9883 15.2169ZM29.6019 9.29121C29.464 9.64037 29.2946 9.9763 29.096 10.2949C28.9497 10.5309 28.7731 10.7466 28.5707 10.9367C28.359 11.1369 28.1094 11.2926 27.8366 11.3949C27.7018 11.4455 27.5621 11.4819 27.4197 11.5033C27.3142 11.5222 27.2072 11.5314 27.1 11.5308C26.5003 11.5138 25.6884 11.2573 25.3129 10.808C25.1508 10.6308 25.059 10.4006 25.0547 10.1605C25.052 9.98073 25.1045 9.80444 25.2052 9.65545C25.2558 9.57955 25.3162 9.51069 25.3849 9.45067C25.4542 9.39104 25.5281 9.33692 25.6059 9.28879C26.1036 8.98688 26.82 8.85575 27.3906 8.78452C28.0211 8.70358 28.9398 8.65907 29.5452 8.7392C29.5839 8.74779 29.6203 8.76432 29.6522 8.78772C29.6841 8.81113 29.7108 8.84091 29.7306 8.87518C29.751 8.91077 29.7638 8.95021 29.7682 8.99101C29.7726 9.03181 29.7684 9.07307 29.756 9.11219C29.7436 9.1513 29.7232 9.18741 29.6962 9.21823C29.6691 9.24905 29.6359 9.2739 29.5987 9.29121H29.6019ZM29.5946 6.0204C29.7937 6.38949 29.6885 6.69787 29.7646 7.27903C29.7767 7.34783 29.7897 7.41582 29.8059 7.483C29.8213 7.53587 29.8216 7.59202 29.8067 7.64504C29.7918 7.69807 29.7622 7.74583 29.7215 7.78288C29.6807 7.81993 29.6304 7.84477 29.5762 7.85458C29.522 7.86438 29.4661 7.85875 29.4149 7.83833H29.3939C28.0033 7.94193 26.6136 8.05282 25.223 8.154C25.1779 8.15606 25.1329 8.14712 25.092 8.12794C25.0512 8.10877 25.0155 8.07993 24.9883 8.04392C24.9378 8.04503 24.8879 8.03304 24.8434 8.00911C24.8082 7.99105 24.7772 7.96579 24.7524 7.93498C24.7275 7.90416 24.7095 7.86848 24.6993 7.83023C24.6707 7.70612 24.6592 7.57866 24.6653 7.45143C24.6686 7.38911 24.6767 7.32713 24.6896 7.26607C24.7568 7.00706 24.8911 6.84356 25.0895 6.65335C25.3097 6.42847 25.5724 6.24963 25.8624 6.12724C26.5433 5.80758 27.2682 5.59177 28.013 5.487C28.2129 5.45882 28.4155 5.4561 28.616 5.4789C28.7242 5.49532 28.8305 5.52243 28.9333 5.55984C29.046 5.59424 29.1546 5.64093 29.2571 5.69906C29.346 5.75016 29.426 5.8152 29.4943 5.8917C29.5305 5.93157 29.563 5.97465 29.5914 6.0204H29.5946ZM24.3683 4.35302C24.5892 3.82609 24.9349 3.33074 25.4156 3.02316C25.8038 2.77675 26.2587 2.65632 26.718 2.67835C26.9552 2.68837 27.1903 2.72724 27.4181 2.7941C27.6599 2.86539 27.8942 2.96027 28.1174 3.07739C28.5858 3.32918 29.013 3.65098 29.3842 4.03168C29.4391 4.08557 29.4711 4.15858 29.4735 4.23548C29.4759 4.31239 29.4486 4.38725 29.3971 4.44448C29.3995 4.48501 29.3935 4.52559 29.3796 4.56373C29.3656 4.60187 29.3441 4.63676 29.3162 4.66626C29.2895 4.69456 29.2575 4.71719 29.2218 4.73276C29.1862 4.74834 29.1478 4.75656 29.109 4.75691C27.6631 4.68126 26.2133 4.73544 24.777 4.91879C24.7229 4.92037 24.6695 4.9069 24.6226 4.87989C24.5757 4.85288 24.5373 4.81339 24.5115 4.76582C24.4712 4.74835 24.4353 4.72216 24.4063 4.68912C24.3773 4.65609 24.3561 4.61704 24.344 4.5748C24.3237 4.50078 24.3312 4.42191 24.365 4.35302H24.3683Z" fill="#EACAE5"/>
<path d="M13.0342 10.9505C11.9818 10.7134 10.8953 10.667 9.82653 10.8137C8.98475 10.9489 8.26842 11.2678 7.84105 11.594C7.78087 11.643 7.72507 11.6971 7.67432 11.7558L7.70103 11.7688C7.81076 11.8026 7.92353 11.8257 8.03774 11.8376C8.67798 11.8959 9.74397 11.7979 10.3891 11.704C11.5166 11.5341 12.411 11.2467 13.0342 10.9505Z" fill="#EACAE5"/>
<path d="M22.5753 23.7075C22.5413 23.7124 22.5122 23.7172 22.5454 23.7116L22.5753 23.7075Z" fill="#EACAE5"/>
<path d="M26.437 34.0381C26.9227 33.444 27.3031 33.0725 27.5346 32.5116C27.5822 32.3786 27.6158 32.2411 27.635 32.1012C27.6467 31.9493 27.6426 31.7966 27.6228 31.6455C27.6155 31.6067 27.6074 31.5646 27.6002 31.5273C27.4067 31.8835 27.2715 32.2048 27.0651 32.4986C26.9794 32.624 26.8847 32.743 26.7819 32.8548C26.0793 33.6067 25.1331 34.0316 24.1918 34.4388C24.1723 34.4498 24.1516 34.4588 24.1302 34.4655L23.7344 34.6371C22.445 35.2037 22.3293 35.3656 21.354 35.9823C21.3515 35.9876 21.3493 35.993 21.3475 35.9985C21.0561 36.6557 20.8036 37.1276 20.7445 37.5566C20.7388 37.6202 20.7388 37.6841 20.7445 37.7476C20.7542 37.7962 20.768 37.8439 20.7858 37.8901C20.8153 37.9491 20.8503 38.0052 20.8902 38.0576C20.9839 38.165 21.0892 38.2616 21.2042 38.3458C21.6272 38.6266 22.078 38.8632 22.5495 39.0516C22.7933 39.1431 23.0466 39.2069 23.3046 39.2418C23.485 39.2567 23.6665 39.2529 23.8461 39.2305C23.998 39.2028 24.1474 39.163 24.2929 39.1115C24.495 37.2468 25.2406 35.4826 26.437 34.0381Z" fill="#EACAE5"/>
<path d="M33.3626 29.4437C33.4045 29.4541 33.4435 29.4737 33.4768 29.5012C34.2813 29.0836 35.0956 28.313 35.6622 27.6291C33.6168 27.1887 31.2104 27.85 29.1124 28.2086V28.2199C29.0088 28.5032 28.9182 28.7914 28.8389 29.0819C30.3112 28.9112 31.9243 29.0973 33.3626 29.4437Z" fill="#EACAE5"/>
<path d="M20.6254 26.6449C20.3211 26.7753 20.041 26.8878 19.6541 27.0375C19.7521 27.6891 19.6906 27.8809 19.7634 28.0897C19.7715 28.1043 19.7796 28.1189 19.7885 28.1326C19.8044 28.1491 19.8212 28.1648 19.8387 28.1796C19.9014 28.2187 19.9675 28.252 20.0362 28.2791C20.3255 28.3769 20.6237 28.4463 20.9265 28.4863C21.2366 28.5132 21.5486 28.504 21.8565 28.4588C22.581 28.3407 23.2673 28.0719 23.9497 27.8113C24.84 27.4665 24.9873 27.4301 25.5434 27.2771C25.6753 27.2407 25.8073 27.2107 25.9408 27.1864C25.5308 25.907 25.1931 24.6056 24.929 23.2883C23.358 23.7513 21.0326 23.6339 19.7237 24.6352C19.5629 24.769 19.4177 24.9205 19.2907 25.0868C19.2391 25.1591 19.1949 25.2364 19.1588 25.3175C19.1475 25.3528 19.1386 25.3887 19.1321 25.4252C19.1305 25.457 19.1305 25.4889 19.1321 25.5207C19.1912 25.7983 19.3749 26.0209 19.5165 26.4604C19.8122 26.3487 20.105 26.2313 20.3947 26.1083C20.4314 26.0972 20.47 26.0937 20.5081 26.0978C20.5462 26.102 20.5831 26.1138 20.6165 26.1326C20.6621 26.1577 20.7002 26.1943 20.727 26.2389C20.7538 26.2834 20.7684 26.3342 20.7693 26.3862C20.7702 26.4382 20.7574 26.4895 20.7321 26.5349C20.7069 26.5803 20.6701 26.6183 20.6254 26.6449Z" fill="#EACAE5"/>
<path d="M36.5703 11.347C36.2109 11.5024 35.6864 11.7161 35.3982 11.9306C35.3528 11.9693 35.3109 12.0118 35.2728 12.0577C35.2314 12.1144 35.2059 12.1812 35.1991 12.2511C35.196 12.3111 35.1982 12.3712 35.2056 12.4308C35.2413 12.6037 35.2956 12.7723 35.3675 12.9335C36.0522 14.4908 37.4137 16.0246 38.6755 17.1513C38.8844 17.3375 39.0948 17.5236 39.319 17.6912C40.4781 18.5168 41.8541 18.8017 43.0488 19.5925C43.1132 19.6297 43.1625 19.6885 43.188 19.7584C43.9822 19.8037 44.7651 19.9674 45.511 20.244C45.894 20.3846 46.264 20.5585 46.6166 20.7637C46.582 20.6375 46.5393 20.5137 46.4888 20.393C46.2678 19.9033 45.9513 19.4646 45.6308 19.0356C45.2973 18.5912 44.9614 18.1453 44.615 17.7122C43.2364 15.993 41.7495 14.3636 40.1632 12.8339C39.4518 12.15 38.8682 11.5462 38.1502 11.2556C37.9975 11.2005 37.8393 11.1619 37.6783 11.1406C37.5251 11.1286 37.3711 11.1324 37.2186 11.152C36.9957 11.1919 36.7782 11.2573 36.5703 11.347Z" fill="#EACAE5"/>
<path d="M29.1538 14.787C29.183 14.9658 29.2336 15.1405 29.3043 15.3074C31.3829 14.9472 33.5829 14.9901 35.4753 14.3742C35.1919 13.9396 34.9509 13.4788 34.7557 12.9982C34.6862 12.8274 34.6391 12.6484 34.6157 12.4656C34.3844 12.3116 34.1371 12.1829 33.8783 12.0819C33.4673 11.934 33.0402 11.8356 32.6059 11.7889C31.2072 11.6529 29.5536 11.9451 28.4391 12.8088C28.2454 12.9691 28.0616 13.141 27.8887 13.3236C27.9777 13.4045 28.0692 13.4854 28.1663 13.5575C28.2677 13.6296 28.3762 13.6912 28.4901 13.7412C28.5535 13.7631 28.6188 13.7791 28.6851 13.789C28.7453 13.7922 28.8057 13.7906 28.8656 13.7841C28.9583 13.7656 29.0491 13.7385 29.1368 13.7032C29.4881 13.5413 29.8652 13.2531 30.1817 13.0119C30.2252 12.983 30.2768 12.9685 30.329 12.9707C30.3872 12.9701 30.4443 12.9867 30.4931 13.0183C30.5419 13.05 30.5803 13.0953 30.6036 13.1486C30.6268 13.202 30.6338 13.261 30.6237 13.3183C30.6136 13.3756 30.5868 13.4287 30.5468 13.4709C30.1421 13.7906 29.6216 14.1888 29.1368 14.3272C29.1289 14.4807 29.1346 14.6345 29.1538 14.787Z" fill="#EACAE5"/>
<path d="M32.758 30.5234C31.2493 30.7938 29.6232 31.4429 28.2253 32.0815C28.2178 32.1988 28.2005 32.3152 28.1735 32.4296C27.9695 33.256 27.3884 33.7821 26.7651 34.5697C26.8085 34.6051 26.8391 34.6537 26.8526 34.7081C26.9154 34.9807 27.0015 35.2474 27.1099 35.5053C27.1456 35.5863 27.1828 35.6616 27.2225 35.7385C29.0881 33.8954 30.8875 32.279 32.758 30.5234Z" fill="#EACAE5"/>
<path d="M18.3415 30.3116C18.7565 30.6289 19.2088 30.8942 19.6883 31.1015C19.9485 31.199 20.2209 31.26 20.4977 31.2828C20.5389 31.2842 20.5796 31.2922 20.6183 31.3063L20.6799 31.2796C20.8844 31.1898 21.0769 31.0747 21.2529 30.9372C21.5094 30.7204 21.739 30.4737 21.9369 30.2023C22.0032 30.1092 22.0672 30.0137 22.1287 29.9174C22.1682 29.8484 22.2324 29.7969 22.3084 29.7733C22.4588 29.7648 22.6089 29.7946 22.7447 29.8599C22.8847 30.0364 23.2635 30.5495 23.3962 30.7292L23.4237 30.7341C23.5176 30.7535 23.6123 30.7681 23.7079 30.7802C24.0045 30.8066 24.3033 30.799 24.5982 30.7575C24.983 30.694 25.359 30.5853 25.7184 30.4338C26.1288 30.2521 26.5153 30.0208 26.8694 29.745C26.9002 29.7199 26.9301 29.6932 26.9601 29.6681C26.8581 29.4253 26.6363 28.9396 26.5027 28.6296C26.4722 28.6023 26.448 28.5687 26.4316 28.5311C26.4153 28.4935 26.4072 28.4529 26.408 28.4119C26.3271 28.2217 26.2381 28.0161 26.1361 27.753C26.003 27.7727 25.8713 27.8011 25.7419 27.838C25.4659 27.9141 25.2061 27.978 24.7407 28.1456C23.4181 28.6207 22.0024 29.3419 20.4953 29.0214C20.247 28.9722 20.0033 28.902 19.7668 28.8117C19.6922 28.7835 19.6206 28.7477 19.5532 28.7049C19.4858 28.6639 19.4241 28.6144 19.3694 28.5576C19.3163 28.5016 19.2719 28.4381 19.2375 28.369C19.2051 28.3035 19.1812 28.2341 19.1663 28.1626C19.1088 27.8663 19.1371 27.6073 19.0772 27.1751C19.0372 26.9146 18.9674 26.6596 18.8692 26.4151C18.7883 26.2281 18.6855 26.0468 18.6134 25.855C18.532 25.6552 18.5161 25.4347 18.5681 25.2252C18.6628 24.9407 18.8237 24.6827 19.0376 24.4725C19.2139 24.2842 19.4136 24.119 19.6317 23.9812C21.0886 23.0657 23.325 23.1645 24.8119 22.708C24.7763 22.5094 24.7428 22.3108 24.7115 22.1123C22.8062 22.8108 19.5491 23.9877 17.7037 23.0835C17.3335 22.9042 17.0198 22.6264 16.7971 22.2806C16.5991 21.9652 16.4462 21.6235 16.3431 21.2656C16.1917 20.6723 16.2621 20.1268 16.6579 19.6565C17.9578 18.1235 22.3812 18.4626 24.3797 18.6852C24.3699 18.3145 24.3699 17.9438 24.3797 17.5731C23.4723 17.7884 22.5666 18.0094 21.6487 18.1737C21.4545 18.2085 20.2614 18.406 19.9821 18.4489C18.696 18.6472 16.8643 18.8827 15.6923 18.3072C15.4427 18.1865 15.2168 18.022 15.0253 17.8216C14.8528 17.6346 14.7271 17.4094 14.6587 17.1644C14.5979 16.9281 14.5956 16.6805 14.6522 16.4432C14.7906 15.8944 15.1961 15.4565 15.6656 15.1611C18.0598 13.6564 22.2687 14.4804 24.4768 16.2133C24.4986 16.019 24.5245 15.824 24.5537 15.6305C23.9341 14.9284 23.4182 14.1412 23.0215 13.293C22.2768 11.6984 21.9692 10.1881 21.533 8.48912C21.4769 8.49242 21.4211 8.48068 21.3711 8.45512C21.2254 8.40413 20.8595 8.29324 20.6531 8.22525C19.1005 7.72784 17.514 7.34318 15.906 7.07428C16.3487 7.91948 16.6577 8.82816 16.8222 9.76798C16.8348 9.81711 16.8348 9.8686 16.8222 9.91772C16.8125 9.94201 16.8036 9.96548 16.7947 9.98976C16.7572 10.0585 16.6941 10.1097 16.619 10.1321C16.544 10.1545 16.4631 10.1464 16.394 10.1096C16.3589 10.0914 16.3279 10.0661 16.3031 10.0353C16.2783 10.0045 16.2602 9.96888 16.25 9.93068C16.076 8.87689 15.7027 7.86595 15.15 6.95206C12.7323 6.58216 10.2984 6.42189 7.82808 6.35633C5.75924 6.30129 2.41396 6.2244 0.779761 7.48465C0.623905 7.61162 0.48346 7.75641 0.361297 7.91606C0.267082 8.05029 0.188339 8.19474 0.126569 8.34666C0.0696775 8.50646 0.0305894 8.67204 0.0100146 8.8404C-0.00333819 8.99931 -0.00333819 9.15905 0.0100146 9.31795C0.0259628 9.37339 0.0319911 9.43121 0.0278215 9.48874C0.0278215 9.51545 0.0278215 9.50493 0.0415815 9.57858C0.0545161 9.625 0.056181 9.67384 0.0464379 9.72104C0.0873202 9.97515 0.159079 10.2233 0.260122 10.46C0.452619 10.876 0.695655 11.2666 0.983732 11.6231C2.16142 13.0801 4.10481 14.4464 5.73981 15.361C5.96078 15.4848 6.18499 15.6038 6.41 15.7196C6.4488 15.7066 6.48987 15.702 6.53057 15.7059C6.57128 15.7098 6.61071 15.7222 6.64635 15.7422C6.96472 15.5264 7.29037 15.3216 7.6233 15.1279C7.65663 15.108 7.69354 15.0949 7.73193 15.0893C7.77032 15.0837 7.80945 15.0857 7.84706 15.0952C7.88468 15.1047 7.92006 15.1215 7.95117 15.1447C7.98229 15.1679 8.00854 15.1969 8.02841 15.2303C8.04829 15.2636 8.06141 15.3005 8.06702 15.3389C8.07263 15.3773 8.07063 15.4164 8.06112 15.454C8.05161 15.4917 8.03479 15.527 8.01161 15.5581C7.98843 15.5893 7.95934 15.6155 7.92602 15.6354C7.57204 15.8399 7.22696 16.0582 6.89079 16.2902C6.91264 16.3549 6.93612 16.4189 6.96202 16.4828C7.09274 16.759 7.25606 17.0185 7.44847 17.2558C8.12675 18.0879 9.06162 18.6852 9.90341 19.2842C9.95044 19.3095 9.98984 19.347 10.0175 19.3927C10.054 19.4793 10.0297 19.4283 10.0782 19.4954C12.9095 23.3668 14.3284 27.3621 18.3415 30.3116ZM6.38248 9.76313C6.21571 9.66629 6.0701 9.53692 5.9543 9.38271C5.87072 9.26756 5.82876 9.12742 5.83532 8.98529C5.84459 8.82269 5.91178 8.66878 6.02472 8.55144C6.22788 8.324 6.5646 8.17102 6.85032 8.0658C7.68158 7.75337 8.90379 7.59068 9.43476 7.63277C9.64439 7.64976 10.1025 7.72504 10.3089 7.76308C11.0139 7.89582 11.71 8.09656 12.3446 8.43813C12.4019 8.48044 12.4471 8.53716 12.4755 8.60254C12.5039 8.66792 12.5146 8.73964 12.5063 8.81044C12.4981 8.88125 12.4714 8.94863 12.4287 9.00577C12.3861 9.06291 12.3292 9.10778 12.2636 9.13584C11.2753 9.13988 9.78199 9.80198 8.45942 10.0181C8.20443 10.0644 7.94631 10.0915 7.68725 10.099C7.20484 10.099 6.79204 10.0246 6.38248 9.76313ZM10.0297 12.3492C9.51003 12.4107 8.65368 12.4787 8.13404 12.4406C7.90164 12.4349 7.67184 12.3903 7.45414 12.3087C7.31042 12.2569 7.19008 12.1552 7.115 12.0222C7.08526 11.9621 7.06687 11.8971 7.06076 11.8304C7.05771 11.789 7.05989 11.7474 7.06724 11.7065C7.07671 11.6411 7.09811 11.578 7.13037 11.5204C7.20255 11.3911 7.29934 11.2773 7.41529 11.1853C7.67025 10.9756 7.96245 10.7886 8.49504 10.5725C8.93884 10.39 9.40566 10.2693 9.88236 10.214C11.2219 10.0383 12.691 10.197 13.6493 10.511C13.7258 10.5315 13.7917 10.58 13.8339 10.647C13.8735 10.7389 13.8906 10.8388 13.8838 10.9386C13.8771 11.0384 13.8466 11.1352 13.795 11.2209C12.6505 11.8716 11.3263 12.1954 10.0297 12.3492ZM13.9893 14.142C13.9003 14.466 13.6867 14.7415 13.3952 14.9085C13.2213 15.0129 13.0328 15.0906 12.8359 15.1392C12.5124 15.2265 12.1748 15.2485 11.8427 15.204C11.5539 15.1665 11.2833 15.0423 11.0665 14.8478C10.9361 14.7218 10.8379 14.5664 10.78 14.3946C10.7057 14.1517 10.7085 13.8919 10.7881 13.6507C10.8176 13.5636 10.855 13.4793 10.8998 13.399C11.002 13.2214 11.1398 13.0668 11.3045 12.9449C11.6631 12.6592 12.1325 12.5402 12.5834 12.5264C12.6259 12.5251 12.6683 12.5334 12.7072 12.5507L12.7347 12.5564C12.782 12.5727 12.8282 12.5919 12.8731 12.6139C13.0564 12.6743 13.2305 12.7598 13.3903 12.868C13.4709 12.9217 13.5472 12.9815 13.6186 13.0469C13.6833 13.1109 13.7428 13.1799 13.7967 13.2533C13.8909 13.3788 13.9569 13.5232 13.9901 13.6766C14.0234 13.83 14.0231 13.9888 13.9893 14.142Z" fill="#EACAE5"/>
<path d="M42.1382 19.7455C40.8917 19.098 39.8338 18.8835 38.6942 17.947C37.9155 18.3436 37.1328 18.7346 36.338 19.0996C35.7078 19.3971 35.0589 19.6534 34.3954 19.8669C33.1777 20.254 31.9236 20.5157 30.6527 20.648C30.6447 20.6585 30.6357 20.6682 30.626 20.6772C30.2713 20.9602 29.9498 21.2825 29.6677 21.6379C29.5497 21.8036 29.4506 21.982 29.3722 22.1697C29.3188 22.3188 29.2816 22.4732 29.2614 22.6303C29.2614 22.6691 29.2557 22.7112 29.2549 22.7484C30.0993 22.0965 31.0219 21.5526 32.0012 21.1296C34.478 20.0992 37.5311 20.3761 40.1706 19.9883C40.6967 19.9098 41.2673 19.7811 42.1382 19.7455Z" fill="#EACAE5"/>
<path d="M22.0769 34.8127C22.5862 34.5149 23.1158 34.253 23.6617 34.0292C23.6831 34.0169 23.7059 34.0071 23.7297 34.0001C24.4962 33.669 25.2999 33.3291 25.962 32.8143C26.1722 32.6462 26.3624 32.4545 26.5286 32.2428C26.8677 31.7572 27.0045 31.278 27.389 30.7592C27.3396 30.6135 27.2854 30.4613 27.1964 30.2339C26.461 30.8164 25.5874 31.1987 24.6605 31.3436C24.7198 31.4246 24.7713 31.511 24.8143 31.6018C24.8803 31.7408 24.9321 31.8862 24.9689 32.0356C24.989 32.11 24.9803 32.1892 24.9446 32.2574C24.9168 32.3093 24.8741 32.3517 24.822 32.3792C24.7699 32.4067 24.7108 32.418 24.6523 32.4116C24.5937 32.4053 24.5384 32.3816 24.4934 32.3436C24.4485 32.3056 24.4159 32.255 24.3999 32.1983C24.3797 32.1058 24.3527 32.0148 24.3189 31.9264C24.2664 31.8139 24.2027 31.7071 24.1287 31.6074C24.1165 31.5949 24.1054 31.5814 24.0955 31.567C22.9146 31.6099 21.656 32.3651 20.4249 32.8305C19.6923 33.1081 19.0367 33.3023 18.581 33.6472C18.5075 33.7072 18.4405 33.7747 18.3811 33.8487C18.3483 33.8983 18.3196 33.9506 18.2953 34.0049C18.2784 34.0578 18.2657 34.1119 18.2573 34.1668C18.2533 34.2402 18.2555 34.3139 18.2637 34.387C18.2897 34.5194 18.3293 34.6488 18.3819 34.773C18.5001 35.032 18.6478 35.2765 18.8222 35.5015C18.9231 35.6249 19.0368 35.7372 19.1614 35.8366C19.2379 35.8894 19.3192 35.9349 19.4042 35.9726C19.4749 35.9958 19.5475 36.0132 19.6211 36.0244C19.7078 36.0301 19.7947 36.0276 19.8809 36.0171C20.1738 35.9564 20.4536 35.8444 20.7073 35.6861C21.18 35.4109 21.6187 35.0936 22.0769 34.8127Z" fill="#EACAE5"/>
<path d="M22.5 23.719L22.5308 23.7141L22.5 23.719Z" fill="#EACAE5"/>
<path d="M32.7886 29.9205C31.4466 29.6348 30.0487 29.5158 28.6833 29.693C28.5652 30.236 28.484 30.7863 28.4404 31.3402C29.7743 30.7509 31.3373 30.1528 32.7886 29.9205Z" fill="#EACAE5"/>
<path d="M41.2221 29.4617C38.9136 30.0865 36.7112 31.0076 34.3907 31.6892C34.357 31.6988 34.3219 31.702 34.2871 31.6989C33.9964 32.1437 33.7613 32.6223 33.5869 33.1242C36.6416 32.5836 38.7186 31.2699 41.2221 29.4617Z" fill="#EACAE5"/>
<path d="M32.3335 42.833C32.3923 42.9515 32.4628 43.0637 32.544 43.1681C32.8006 43.4765 33.1106 43.7347 33.4343 44.0325C34.2907 41.4886 35.8229 39.3946 35.9921 36.8628C34.9198 38.0606 33.9601 39.3547 33.1251 40.7285C32.8078 41.2619 32.5043 41.7379 32.3497 42.1223C32.3123 42.2237 32.2851 42.3287 32.2688 42.4356C32.2649 42.4987 32.2662 42.5621 32.2728 42.625C32.2869 42.696 32.3072 42.7656 32.3335 42.833Z" fill="#EACAE5"/>
<path d="M31.1951 42.5789C32.0337 41.3761 32.2652 39.9945 32.9159 38.5505C33.1587 38.0195 33.4258 37.3947 33.7593 36.9058C34.0021 36.5488 34.1122 36.4274 34.6019 36.0365C35.0544 35.6755 35.7108 35.1923 36.0467 34.7568C36.0898 34.695 36.1272 34.6295 36.1584 34.5609C36.1657 34.5366 36.1722 34.5124 36.177 34.4881C36.0187 34.4859 35.8604 34.4959 35.7035 34.518C34.4586 34.722 33.1944 35.5929 32.2441 36.4201C32.2526 36.4463 32.2569 36.4736 32.2571 36.5011C32.0555 38.4639 30.962 40.4971 30.1396 42.4462C30.3245 42.5038 30.5141 42.545 30.7062 42.5692C30.8688 42.5834 31.0321 42.5867 31.1951 42.5789Z" fill="#EACAE5"/>
<path d="M48.0969 30.5834C48.1297 30.3022 48.1297 30.0181 48.0969 29.7368C48.088 29.6761 48.0775 29.6154 48.067 29.5547C48.0378 29.549 48.0063 29.5409 47.948 29.532C47.8857 29.5277 47.8231 29.529 47.761 29.5361C47.6924 29.549 47.6252 29.5685 47.5603 29.5943C47.4632 29.641 47.3712 29.6977 47.2859 29.7635C47.1187 29.9076 46.9688 30.0706 46.8391 30.2491C45.7286 31.8081 45.0584 34.8482 44.5428 35.9652C43.5262 38.1506 41.6832 39.9596 40.3849 42.0357C39.9915 42.6646 39.3084 43.5364 38.9344 44.4826C38.8567 44.6887 38.8024 44.9029 38.7725 45.1212C38.762 45.2289 38.762 45.3373 38.7725 45.445C38.7725 45.4506 38.7725 45.4555 38.7725 45.4611C40.3104 43.3891 41.8847 40.9811 43.2364 39.0466C44.5558 37.1599 45.8994 35.3759 47.1216 33.4738C47.3822 32.4111 47.9447 31.5992 48.0969 30.5834Z" fill="#EACAE5"/>
<path d="M32.1692 34.2412C32.1692 34.2347 32.1652 34.2282 32.1636 34.2226L32.1457 34.2129C32.1221 34.2061 32.098 34.201 32.0737 34.1975C31.9961 34.1934 31.9184 34.1967 31.8414 34.2072C31.5677 34.2611 31.3009 34.3453 31.0458 34.4581C30.4862 34.7085 29.9608 35.0289 29.482 35.4116C28.7535 36.0017 28.0178 36.7827 27.6689 37.6617C27.6029 37.8401 27.5568 38.0253 27.5313 38.2138C27.5198 38.3428 27.5217 38.4728 27.537 38.6015C27.5569 38.7099 27.5873 38.8162 27.6276 38.9188C27.6791 39.028 27.7418 39.1316 27.8146 39.228C27.9221 39.3542 28.0435 39.468 28.1764 39.5671C28.242 39.6124 28.31 39.6561 28.3796 39.6966C29.0457 38.8629 29.4464 38.5861 30.4355 37.2368C30.943 36.5375 31.3995 35.8341 31.788 35.1663C31.9084 34.9702 32.0152 34.766 32.1077 34.5552C32.1362 34.4764 32.1573 34.3951 32.1708 34.3124C32.1718 34.2887 32.1713 34.2649 32.1692 34.2412Z" fill="#EACAE5"/>
<path d="M28.9658 41.513C29.0151 41.6164 29.0747 41.7146 29.1439 41.806C29.2404 41.9204 29.3489 42.024 29.4677 42.1152C29.5106 42.1451 29.5551 42.1734 29.5996 42.201C30.3354 40.4551 31.237 38.7561 31.5762 37.0337C30.7741 37.8204 29.912 38.8346 29.343 39.81C29.1982 40.0529 29.0713 40.3061 28.9634 40.5676C28.9211 40.6867 28.891 40.8098 28.8736 40.935C28.8662 41.0324 28.8681 41.1302 28.8792 41.2272C28.8982 41.3252 28.9273 41.4209 28.9658 41.513Z" fill="#EACAE5"/>
<path d="M43.3965 32.7785C43.4325 32.7403 43.4781 32.7123 43.5285 32.6975L43.5973 32.687C43.8726 32.1355 44.1863 31.604 44.5362 31.0965C44.6795 30.8899 44.8343 30.6916 45 30.5024C45.2353 30.2329 45.5121 30.0025 45.8199 29.8201C45.8598 29.6874 45.8906 29.5522 45.9122 29.4154C45.917 29.3545 45.917 29.2933 45.9122 29.2325C45.9076 29.2089 45.9014 29.1856 45.8936 29.1628C45.8885 29.1528 45.8828 29.1431 45.8766 29.1337L45.8596 29.1175C45.8492 29.1111 45.8384 29.1054 45.8272 29.1005C45.8007 29.0925 45.7737 29.0865 45.7463 29.0827C45.6776 29.0792 45.6088 29.0822 45.5407 29.0916C45.3363 29.1311 45.1371 29.1933 44.9466 29.277C44.6162 29.4189 44.3044 29.6008 44.0182 29.8185C41.1982 32.0711 39.4329 33.1314 36.6008 36.1861C36.605 36.2038 36.6072 36.222 36.6072 36.2403C36.5982 36.3068 36.5952 36.374 36.5983 36.441C36.5562 39.4569 34.7853 41.7176 33.9394 44.3732C33.9304 44.4014 33.9185 44.4285 33.9038 44.4542C34.1169 44.6467 34.3457 44.821 34.5878 44.9754C34.6347 44.9463 34.6792 44.9147 34.7237 44.8815C35.47 44.2591 36.0811 42.9236 36.5757 41.9474C36.7375 41.6188 36.7659 41.5929 37.313 40.5229C37.912 39.3541 38.5312 38.1351 39.2864 37.0424C40.2196 35.6859 41.3455 34.4191 43.3965 32.7785Z" fill="#EACAE5"/>
<path d="M53.04 27.6527C53.011 27.6187 52.9796 27.5868 52.9461 27.5572C52.9224 27.5412 52.8978 27.5266 52.8724 27.5135C52.8459 27.5046 52.8189 27.4973 52.7915 27.4916C52.7516 27.4888 52.7116 27.4888 52.6717 27.4916C52.5929 27.5067 52.5156 27.5292 52.441 27.5588C52.3965 27.5799 52.352 27.6025 52.3091 27.626C52.3687 27.785 52.4195 27.9471 52.4613 28.1116C52.7025 28.0527 52.9398 27.9789 53.1719 27.8907C53.1356 27.8073 53.0914 27.7276 53.04 27.6527Z" fill="#EACAE5"/>
<path d="M53.0416 20.6551C52.993 21.0299 52.9113 21.4484 52.598 21.6612C52.5046 21.7235 52.3937 21.7544 52.2815 21.7495C52.1647 21.7422 52.0514 21.7066 51.9513 21.6459C51.859 21.588 51.7751 21.5178 51.702 21.437C51.541 21.2582 51.4086 21.0557 51.3094 20.8365C51.2076 20.6234 51.1323 20.3985 51.0852 20.1671C51.0071 20.2888 50.9389 20.4165 50.8813 20.5491C50.8546 20.6139 50.8311 20.6794 50.8084 20.7458C50.7877 20.8207 50.7382 20.8844 50.6708 20.9231C50.6284 20.9845 50.5644 21.0278 50.4916 21.0445C50.4188 21.0611 50.3424 21.0498 50.2774 21.0129L50.2402 20.9943C50.2138 20.9846 50.1868 20.9768 50.1593 20.9708C50.1345 20.9692 50.1096 20.9692 50.0848 20.9708C50.0529 20.9773 50.0215 20.9863 49.9909 20.9975C49.9387 21.0229 49.8888 21.053 49.842 21.0874C49.7424 21.1717 49.6518 21.2661 49.5716 21.369C49.0561 22.0579 48.6773 23.1603 48.4506 23.9891C48.3364 24.3859 48.2475 24.7895 48.1843 25.1975C48.1583 25.4457 48.1513 25.6954 48.1633 25.9446C48.1957 26.9742 48.394 28.0353 48.5785 29.0681C48.6447 29.3814 48.6894 29.6989 48.7121 30.0184C48.7639 31.332 48.1398 32.1552 47.7788 33.3442C48.4862 33.0035 49.1823 32.3139 49.6655 31.6995C49.8744 31.4251 49.8784 31.3701 50.3446 30.7865C50.8109 30.2029 51.5636 29.3344 51.8404 28.7168C51.8688 28.6443 51.8905 28.5692 51.9052 28.4926C51.9096 28.435 51.9096 28.3771 51.9052 28.3194C51.8631 28.0847 51.7838 27.9431 51.7303 27.7528C51.6631 27.5443 51.6657 27.3195 51.7376 27.1126C51.8995 26.6893 52.2645 26.3841 52.4556 25.9794C52.5241 25.7744 52.5729 25.5632 52.6013 25.3489C52.6408 25.0406 52.6435 24.7287 52.6094 24.4197C52.5834 24.2282 52.5331 24.0408 52.4596 23.862C52.4333 23.8168 52.4193 23.7654 52.4191 23.7131C52.4122 23.6499 52.4261 23.5863 52.4588 23.5318C52.8635 22.9806 53.2342 22.7418 53.4641 22.244C53.5518 22.0191 53.6143 21.7851 53.6502 21.5463C53.6737 21.3414 53.6737 21.1345 53.6502 20.9295C53.6244 20.7633 53.5805 20.6005 53.5191 20.4439C53.4596 20.3124 53.3866 20.1873 53.3014 20.0708C53.2188 19.9682 53.1258 19.8747 53.0238 19.7915C53.0035 19.7761 52.9825 19.7624 52.9614 19.7478C53.0664 20.0382 53.094 20.3509 53.0416 20.6551ZM49.3596 27.4728C49.3411 27.5489 49.2933 27.6146 49.2266 27.6555C49.1599 27.6965 49.0796 27.7094 49.0034 27.6913C48.9248 27.671 48.8571 27.6207 48.8148 27.5513C48.7475 27.4564 48.6737 27.3664 48.5939 27.2818C48.5385 27.2267 48.5061 27.1526 48.5032 27.0746C48.5023 27.0346 48.5096 26.9949 48.5245 26.9578C48.5394 26.9207 48.5617 26.887 48.59 26.8588C48.6183 26.8306 48.652 26.8084 48.6891 26.7936C48.7262 26.7788 48.766 26.7717 48.8059 26.7727C48.8426 26.7717 48.879 26.7784 48.9128 26.7924C48.9467 26.8063 48.9773 26.8272 49.0026 26.8536C49.1172 26.9783 49.2239 27.11 49.3223 27.2478C49.343 27.2802 49.357 27.3165 49.3634 27.3545C49.3698 27.3924 49.3685 27.4313 49.3596 27.4687V27.4728ZM49.6655 23.9502C49.5501 23.8385 49.4351 23.7258 49.3207 23.6119C49.2728 23.5565 49.2471 23.4852 49.2488 23.4119C49.2505 23.3386 49.2794 23.2685 49.3299 23.2153C49.3803 23.1621 49.4488 23.1296 49.5219 23.1241C49.595 23.1185 49.6675 23.1404 49.7254 23.1854C49.8396 23.2987 49.9545 23.412 50.0702 23.5229C50.1192 23.5782 50.1457 23.6498 50.1444 23.7237C50.1432 23.7975 50.1143 23.8682 50.0635 23.9218C50.0128 23.9755 49.9437 24.0081 49.8701 24.0134C49.7964 24.0187 49.7234 23.9961 49.6655 23.9502ZM50.9752 26.0361C50.8861 26.212 50.7987 26.3887 50.7129 26.5663C50.6943 26.6007 50.669 26.6312 50.6385 26.6559C50.6081 26.6806 50.573 26.6991 50.5354 26.7102C50.4978 26.7213 50.4584 26.7249 50.4194 26.7208C50.3804 26.7166 50.3426 26.7048 50.3082 26.686C50.274 26.6676 50.2438 26.6426 50.2192 26.6125C50.1947 26.5824 50.1764 26.5478 50.1652 26.5106C50.1541 26.4733 50.1504 26.4343 50.1544 26.3957C50.1584 26.357 50.1699 26.3196 50.1884 26.2854C50.2742 26.1073 50.3616 25.9306 50.4507 25.7552C50.4761 25.708 50.514 25.6687 50.5602 25.6415C50.6065 25.6144 50.6593 25.6005 50.7129 25.6014C50.7635 25.6015 50.8133 25.6146 50.8574 25.6394C50.9015 25.6642 50.9385 25.7 50.9648 25.7432C50.9911 25.7864 51.0059 25.8357 51.0077 25.8863C51.0095 25.9368 50.9983 25.987 50.9752 26.032V26.0361Z" fill="#EACAE5"/>
<path d="M32.8698 23.5634C32.5694 23.5312 32.2663 23.5334 31.9665 23.5699C31.7889 23.5988 31.6149 23.6468 31.4476 23.7132C31.3658 23.751 31.2878 23.7966 31.2145 23.8492C31.1075 23.9448 31.0112 24.0517 30.9272 24.1681C30.5265 24.7346 30.253 25.4971 30.0474 26.1616C32.1259 26.6554 35.4647 26.3187 37.3005 25.2203C36.0135 24.5007 34.334 23.731 32.8698 23.5634Z" fill="#EACAE5"/>
<path d="M52.2146 21.1094C52.2372 21.1252 52.261 21.1393 52.2858 21.1515L52.2971 21.1393C52.317 21.1094 52.3346 21.078 52.3497 21.0454C52.4494 20.7613 52.4881 20.4592 52.463 20.1591C52.4504 20.085 52.4311 20.0121 52.4056 19.9414C52.3822 19.893 52.3552 19.8464 52.3246 19.8022C52.2899 19.761 52.2517 19.7228 52.2105 19.6881C52.0616 19.5836 52.0235 19.5998 51.9612 19.5205C51.8854 19.5373 51.811 19.5598 51.7386 19.5877C51.7079 19.6014 51.6771 19.6176 51.6464 19.6338C51.6464 19.6468 51.6407 19.6589 51.6383 19.6719C51.631 19.7641 51.6326 19.8568 51.6431 19.9487C51.7007 20.3089 51.8427 20.6503 52.0575 20.9451C52.1048 21.0045 52.1574 21.0595 52.2146 21.1094Z" fill="#EACAE5"/>
<path d="M28.485 9.28877C27.7508 9.31062 26.803 9.39885 26.1239 9.6789C26.0134 9.72793 25.9082 9.78813 25.8099 9.85859C25.7714 9.89118 25.7359 9.92722 25.7039 9.96624C25.6888 9.98962 25.6753 10.014 25.6634 10.0391C25.6567 10.0628 25.6513 10.0869 25.6472 10.1111C25.6403 10.1721 25.6498 10.2339 25.6747 10.29C25.6947 10.329 25.7177 10.3664 25.7435 10.4017C25.7941 10.4586 25.8499 10.5106 25.9103 10.5571C26.0396 10.6438 26.178 10.7163 26.3231 10.7732C26.5293 10.8482 26.7432 10.9 26.9609 10.9278C27.0759 10.9379 27.1917 10.9363 27.3065 10.923C27.4413 10.8992 27.5734 10.8617 27.7007 10.8113C27.829 10.7515 27.9505 10.6783 28.0633 10.5927C28.2184 10.4618 28.358 10.3135 28.4793 10.1508C28.6672 9.87807 28.8283 9.58775 28.9601 9.28391C28.8015 9.28148 28.6428 9.28391 28.485 9.28877Z" fill="#EACAE5"/>
<path d="M24.4331 41.9355C24.2843 41.2171 24.2226 40.4833 24.2494 39.7501C24.0153 39.814 23.774 39.8472 23.5314 39.8489C23.1847 39.8441 22.8411 39.7832 22.514 39.6684C21.9402 39.4629 21.3946 39.1858 20.8903 38.8436C20.7048 38.7219 20.5408 38.5704 20.4047 38.3952C20.0736 37.9751 20.1003 37.483 20.2825 36.9787C20.348 36.7966 20.4225 36.6177 20.5002 36.4396C20.1861 36.585 19.8372 36.6383 19.4941 36.5934C19.2692 36.5566 19.0552 36.4703 18.8676 36.3409C18.7552 36.2634 18.6501 36.1759 18.5536 36.0795C18.3264 35.8409 18.1331 35.5724 17.9789 35.2814C17.841 35.0414 17.7431 34.7806 17.6891 34.5092C17.6657 34.3901 17.6583 34.2684 17.6673 34.1474C17.6805 33.933 17.7506 33.7259 17.8704 33.5476C17.9297 33.4602 17.9975 33.3789 18.0728 33.3048C18.6814 32.7334 19.6722 32.5253 20.8053 32.0397C21.52 31.7289 22.2307 31.38 22.9834 31.1623C22.8124 30.9303 22.6405 30.699 22.4679 30.4686C22.2941 30.7226 22.0953 30.9585 21.8746 31.1728C21.5797 31.4659 21.2283 31.6958 20.8418 31.8487C20.7775 31.8689 20.708 31.8646 20.6467 31.8365C20.6055 31.8615 20.5581 31.8744 20.5099 31.8738C20.2594 31.861 20.0111 31.8194 19.7701 31.7499C19.3354 31.6196 18.8895 31.4189 18.2395 30.9616C17.1326 30.1869 16.1294 29.2738 15.2544 28.2444C15.1632 28.4489 15.0769 28.6558 14.9954 28.8652C14.7127 29.6019 14.5224 30.3707 14.4288 31.1542C14.2564 32.8928 14.6506 34.6047 15.0448 36.3425C15.3129 36.0329 15.5637 35.7086 15.7959 35.3712C15.8213 35.3244 15.8587 35.2853 15.9044 35.2579L15.9748 35.2271C16.0502 35.2057 16.1311 35.215 16.1997 35.2531C16.2683 35.2912 16.319 35.3549 16.3406 35.4303C16.3516 35.467 16.3551 35.5056 16.351 35.5437C16.3468 35.5817 16.335 35.6186 16.3164 35.6521C16.0168 36.0905 15.6893 36.5093 15.3362 36.9059C17.5288 39.4846 19.6471 42.1719 22.3885 44.1849C23.2724 44.8251 24.4323 45.5414 25.4222 45.9275C25.8171 46.0774 26.2285 46.1798 26.6476 46.2327C26.7011 46.2375 26.7553 46.2408 26.8095 46.244C25.6893 45.0445 24.752 43.5341 24.4331 41.9355Z" fill="#EACAE5"/>
<path d="M37.888 23.2955C37.9263 23.3759 37.9724 23.4523 38.0256 23.5237C38.1032 23.6134 38.19 23.6948 38.2846 23.7666C39.013 24.2692 40.2587 24.5193 41.1483 24.6189C41.7853 24.6844 42.6481 24.7111 43.2527 24.6294C43.3721 24.6104 43.4892 24.5795 43.6024 24.5371C43.6468 24.5162 43.6893 24.4916 43.7295 24.4635C43.7472 24.4475 43.7639 24.4305 43.7796 24.4125C43.7877 24.3987 43.795 24.3858 43.8015 24.372C43.808 24.3582 43.8096 24.3404 43.8128 24.3242C43.8145 24.2973 43.8145 24.2703 43.8128 24.2433C43.8012 24.1901 43.7855 24.1379 43.7659 24.0871C43.703 23.9598 43.627 23.8393 43.5392 23.7277C43.338 23.4861 43.1093 23.2688 42.8577 23.0802C42.6556 22.942 42.4383 22.8274 42.2102 22.7386C41.2778 22.3962 40.2255 22.3582 39.3028 22.2279C38.7038 22.1469 38.3404 22.0708 37.8208 22.0344C37.7847 22.3524 37.7809 22.6732 37.8095 22.992C37.8261 23.0954 37.8523 23.197 37.888 23.2955Z" fill="#EACAE5"/>
<path d="M36.0961 47.0469C36.082 47.0087 36.076 46.9681 36.0784 46.9275C36.0808 46.887 36.0916 46.8473 36.11 46.8111C36.1284 46.7749 36.1541 46.7429 36.1854 46.717C36.2168 46.6912 36.2531 46.6721 36.2922 46.6609C36.3313 46.6497 36.3722 46.6468 36.4125 46.6521C36.4528 46.6575 36.4915 46.6712 36.5263 46.6922C36.561 46.7132 36.5911 46.7412 36.6146 46.7744C36.638 46.8075 36.6544 46.8452 36.6626 46.885C36.7518 47.2132 36.8196 47.5468 36.8658 47.8838C37.3782 47.2784 37.8703 46.6567 38.3503 46.0222C38.2921 45.9206 38.248 45.8117 38.2191 45.6984C37.5716 46.0165 36.7954 46.0351 36.0791 45.9072C36.0405 45.8983 36.0042 45.8817 35.9724 45.8583C35.9405 45.835 35.9137 45.8053 35.8937 45.7712C35.8735 45.7387 35.8601 45.7024 35.8543 45.6646C35.8485 45.6268 35.8503 45.5882 35.8597 45.5511C37.0123 42.1799 39.2544 39.5088 41.3329 36.4946C41.8841 35.6965 42.5147 34.739 42.9825 33.8802C41.8874 34.8159 40.9137 35.8001 40.0379 36.9908C39.0115 38.4105 38.3033 39.9046 37.5222 41.4085C37.3838 41.6748 37.2406 41.9387 37.1054 42.2066C36.7452 42.9173 36.3826 43.6894 35.9326 44.3612C35.6606 44.766 35.3538 45.1707 34.9443 45.4491C34.9321 45.4915 34.9106 45.5307 34.8813 45.5638C34.852 45.5968 34.8157 45.6229 34.7751 45.6401C34.7344 45.6574 34.6904 45.6653 34.6463 45.6633C34.6022 45.6614 34.5591 45.6496 34.5201 45.6288C33.8006 45.2241 33.2324 44.651 32.5962 44.0691C32.422 43.9139 32.2596 43.7458 32.1105 43.5664C32.0402 43.482 31.975 43.3933 31.9155 43.3009C31.8295 43.1614 31.7628 43.0108 31.7172 42.8533C31.6176 42.9966 31.5116 43.1366 31.3983 43.2702C31.3636 43.3058 31.3205 43.3322 31.2729 43.3468C31.2254 43.3615 31.175 43.364 31.1262 43.354C31.0775 43.3441 31.032 43.3221 30.994 43.2901C30.956 43.258 30.9266 43.217 30.9086 43.1706C30.5852 43.162 30.2647 43.1075 29.9567 43.0087C29.5806 42.8916 29.2324 42.6988 28.9336 42.4421C28.727 42.2626 28.56 42.0421 28.4431 41.7946C28.4002 41.7041 28.365 41.6102 28.3379 41.5138C28.2884 41.3312 28.2701 41.1415 28.2837 40.9528C28.2947 40.7571 28.3374 40.5644 28.4099 40.3822C28.2271 40.3005 28.0523 40.2018 27.8879 40.0876C27.7102 39.9675 27.5487 39.8252 27.4071 39.6643C27.282 39.5195 27.178 39.358 27.0979 39.1843C27.0563 39.0935 27.022 38.9996 26.9951 38.9034C26.9245 38.6293 26.9105 38.3437 26.9538 38.0641C27.0291 37.5153 27.3286 36.926 27.6475 36.4825C27.9404 36.0713 28.2751 35.6916 28.6463 35.3493C29.1798 34.852 29.7789 34.4301 30.427 34.0955C30.8697 33.8754 31.5075 33.6034 31.9988 33.6034C32.15 33.5974 32.3003 33.6294 32.4359 33.6965C32.5291 33.7451 32.608 33.8172 32.6648 33.9056C32.7215 33.9941 32.7543 34.0958 32.7597 34.2007C32.7993 34.5617 32.5541 35.0199 32.3744 35.3339C32.2935 35.4739 32.2125 35.6132 32.1275 35.7516C32.7516 35.2368 33.4679 34.7358 34.1891 34.3991C34.5878 34.2035 35.0096 34.059 35.4445 33.9693C35.8523 33.8815 36.2735 33.8755 36.6837 33.9515C36.7275 33.9623 36.7682 33.983 36.8028 34.012C36.8374 34.0409 36.865 34.0774 36.8834 34.1186C36.9018 34.1598 36.9106 34.2046 36.9091 34.2497C36.9076 34.2948 36.8958 34.3389 36.8747 34.3788C36.8375 34.446 36.7938 34.5116 36.7614 34.5804C36.758 34.6123 36.752 34.644 36.7436 34.6751C36.7051 34.8096 36.6435 34.9364 36.5615 35.0498C36.4317 35.23 36.2845 35.397 36.122 35.5484C35.6128 36.0252 35.0139 36.4323 34.6351 36.7803C34.5286 36.8731 34.4328 36.9773 34.3494 37.0911C34.0941 37.4652 33.8735 37.8619 33.6905 38.2761C33.4542 38.7869 33.2858 39.1665 33.1037 39.661C34.2053 37.9766 35.5165 36.425 36.9168 34.9964C37.4138 34.4913 37.9205 33.9952 38.4458 33.52C40.0573 32.0631 41.8315 30.8118 43.6009 29.4026C43.5458 29.4471 43.7822 29.252 43.97 29.1322C44.3528 28.8894 44.9526 28.5932 45.3921 28.5228C45.4926 28.5053 45.5944 28.4959 45.6964 28.4944C45.9862 28.4944 46.2007 28.6069 46.3108 28.7429C46.3465 28.7834 46.3777 28.8276 46.4039 28.8748C46.4266 28.9201 46.4461 28.9669 46.4621 29.0149C46.5121 29.2056 46.5174 29.4053 46.4775 29.5985C46.5228 29.5936 46.5674 29.5904 46.6135 29.5887C46.6884 29.5039 46.7695 29.4249 46.8563 29.3524C46.9765 29.2469 47.1098 29.1573 47.2529 29.0861C47.3312 29.0477 47.4124 29.0155 47.4958 28.9898C47.6155 28.9569 47.739 28.9395 47.8632 28.938C47.8924 28.938 47.9215 28.938 47.9506 28.938C47.762 27.8858 47.5176 26.479 47.5662 25.4098C47.5922 25.0547 47.6496 24.7025 47.7378 24.3575C47.4893 24.7177 47.0902 25.2714 46.6669 25.171C46.5808 25.151 46.5022 25.1069 46.4403 25.0439C46.3287 24.9151 46.2573 24.7564 46.2347 24.5874C46.2207 24.5005 46.2101 24.4139 46.2031 24.3276C46.1201 24.4108 46.0328 24.4897 45.9417 24.5639C45.8714 24.6245 45.7884 24.6685 45.6989 24.6926C45.6327 24.7086 45.5637 24.7082 45.4977 24.6916C45.4317 24.675 45.3707 24.6425 45.3201 24.5971C45.146 24.4425 45.1185 24.1722 44.8231 23.7877C44.1885 22.967 43.5677 22.1827 43.1598 21.2259C43.06 20.9997 42.9812 20.7648 42.9242 20.5242C42.9088 20.4578 42.891 20.3923 42.8748 20.3267C42.256 20.3087 41.6369 20.3455 41.0245 20.4368C40.5866 20.5056 40.207 20.5898 39.4122 20.6723C36.9136 20.9297 34.3526 20.767 32.1154 21.7132C31.654 21.918 31.2068 22.1533 30.7766 22.4174C29.59 23.1394 28.3816 24.1018 27.5584 25.2131C27.3119 25.5489 27.1075 25.9137 26.9497 26.2993C26.862 26.5344 26.8017 26.7789 26.7701 27.0278C26.7531 27.2165 26.7569 27.4065 26.7814 27.5944C26.8154 27.7919 26.8381 27.8089 26.8267 27.8987C27.1901 28.7777 27.6086 29.5985 27.9316 30.5406C28.0416 29.7013 28.241 28.8761 28.5265 28.0792C28.5388 28.0281 28.5645 27.9811 28.6009 27.9432L28.6503 27.9036C28.6565 27.8449 28.68 27.7894 28.718 27.7443C28.7559 27.6991 28.8065 27.6664 28.8632 27.6502C31.2461 27.2496 33.9244 26.4774 36.2288 27.1646C36.2795 27.1775 36.3259 27.2032 36.3636 27.2394C36.4014 27.2756 36.4291 27.3209 36.4441 27.371C36.4554 27.4076 36.4592 27.4461 36.4552 27.4843C36.4511 27.5224 36.4394 27.5593 36.4206 27.5927C36.0235 28.1507 35.5616 28.6596 35.0446 29.1088C34.6544 29.4628 34.2232 29.7688 33.7601 30.0202C33.7861 30.079 33.791 30.1451 33.7739 30.2071C33.7794 30.2448 33.778 30.2832 33.7698 30.3204C33.7526 30.3945 33.7073 30.4589 33.6435 30.5001C31.603 32.4306 29.5059 34.3044 27.5131 36.2842C27.4573 36.3397 27.3822 36.3716 27.3035 36.3732C27.2706 36.4008 27.2322 36.421 27.1908 36.4324C27.1494 36.4438 27.1061 36.4461 27.0637 36.4392C27.0214 36.4323 26.981 36.4163 26.9454 36.3923C26.9098 36.3684 26.8798 36.337 26.8575 36.3004C26.6435 35.9343 26.4752 35.5434 26.3565 35.1364C25.976 35.7088 25.6583 36.3205 25.4086 36.9608C25.1457 37.664 24.9691 38.3965 24.8825 39.1422C24.8076 39.8814 24.8231 40.6269 24.9287 41.3624C25.0147 41.9703 25.1807 42.5641 25.4224 43.1285C26.3734 45.2921 28.4002 47.352 30.6876 48.2472C31.16 48.4273 31.6525 48.5493 32.1542 48.6106C33.5861 48.7426 34.9321 48.125 36.3146 48.1833C36.2718 47.7993 36.1987 47.4193 36.0961 47.0469ZM37.2584 21.6436C37.2575 21.5925 37.2698 21.5421 37.294 21.4971L37.3409 21.4332C37.369 21.4038 37.4029 21.3805 37.4404 21.3648C37.4779 21.3491 37.5182 21.3413 37.5589 21.3419C37.5995 21.3426 37.6396 21.3515 37.6766 21.3684C37.7136 21.3852 37.7468 21.4094 37.774 21.4396C38.2596 21.4728 38.7452 21.5465 39.2309 21.6217C40.5502 21.8273 42.2079 21.8144 43.2933 22.6805C43.5152 22.8533 43.7196 23.0474 43.9036 23.26C44.0781 23.4499 44.2179 23.6691 44.3164 23.9075C44.397 24.0954 44.4162 24.3038 44.3714 24.5032C44.3409 24.6103 44.2894 24.7102 44.2199 24.7972C44.1505 24.8842 44.0644 24.9565 43.9667 25.0099C43.7156 25.1404 43.4398 25.2168 43.1573 25.2341C42.5474 25.2889 41.9336 25.287 41.324 25.2285C40.3794 25.1427 39.3952 24.9614 38.5275 24.5809C38.1876 24.4312 37.825 24.2183 37.5886 23.9294C37.5171 23.8461 37.4547 23.7555 37.4024 23.659C37.2975 23.4626 37.2321 23.2476 37.2098 23.0261C37.1596 22.6206 37.209 22.1827 37.2584 21.6436ZM35.7205 26.5041C33.5926 27.0974 31.1635 27.0909 29.6847 26.6805C29.6156 26.6851 29.5471 26.6644 29.4921 26.6223C29.4403 26.6027 29.3952 26.5688 29.3618 26.5247C29.3284 26.4805 29.3082 26.4278 29.3035 26.3727C29.2987 26.3175 29.3097 26.2621 29.335 26.2129C29.3604 26.1637 29.3991 26.1227 29.4468 26.0945C29.6459 25.4413 29.9527 24.5696 30.329 23.9957C30.4391 23.8197 30.5689 23.6567 30.7159 23.5101C30.8467 23.3774 31.002 23.2713 31.1732 23.1977C31.3491 23.1171 31.5339 23.0573 31.7236 23.0196C31.9241 22.9808 32.1274 22.9589 32.3315 22.954C32.8466 22.9525 33.3596 23.0175 33.858 23.1475C35.1725 23.4712 36.6456 24.1633 37.8363 24.8513C37.8547 24.8417 37.8739 24.8338 37.8938 24.8278L37.9682 24.8165C38.0465 24.815 38.1222 24.8445 38.1788 24.8987C38.2354 24.9528 38.2682 25.0271 38.2701 25.1054C38.2718 25.1443 38.2655 25.1831 38.2516 25.2195C38.2377 25.2558 38.2164 25.2889 38.1892 25.3167L38.0969 25.3895C38.066 25.4289 38.0256 25.4598 37.9795 25.4794C37.6988 25.6867 37.3968 25.8637 37.0787 26.0071C36.6404 26.2091 36.1864 26.3753 35.7213 26.5041H35.7205ZM32.9321 33.2351C33.1724 32.4086 33.5659 31.6346 34.092 30.9534C34.4679 30.4612 34.8998 30.0144 35.3789 29.6219C35.5279 29.4989 35.6816 29.3791 35.833 29.2626C36.6853 28.5673 37.2495 27.6033 38.1536 26.8894C38.2641 26.8012 38.38 26.7201 38.5008 26.6465C38.8658 26.4264 39.3742 26.2556 39.7894 26.1455C41.7166 25.6332 43.8065 25.7586 45.7887 25.7012C45.8382 25.7004 45.8871 25.712 45.931 25.7349C45.9748 25.7579 46.0122 25.7915 46.0397 25.8326C46.0673 25.8737 46.0841 25.9211 46.0886 25.9704C46.0931 26.0197 46.0851 26.0693 46.0655 26.1148C46.0674 26.1671 46.0557 26.2189 46.0315 26.2653C45.3031 27.664 44.1221 28.1229 42.8748 28.9898C42.8415 29.0326 42.7961 29.0644 42.7445 29.0812C42.1893 29.4738 41.252 30.1893 40.1844 30.9097C38.0071 32.3788 36.0208 33.342 33.4193 33.7483C33.3703 33.7612 33.3187 33.7612 33.2696 33.7483L33.1976 33.7208C33.1299 33.6837 33.0792 33.6219 33.0559 33.5484C33.0054 33.5154 32.9665 33.4675 32.9444 33.4114C32.9224 33.3552 32.9184 33.2937 32.9329 33.2351H32.9321Z" fill="#EACAE5"/>
<path d="M44.1365 35.4084C44.5882 34.208 45.1888 31.8535 46.0637 30.3625C45.9834 30.4097 45.9061 30.4619 45.8322 30.5188C44.8974 31.2893 44.2264 32.7762 43.6218 33.9434C42.8706 35.3954 41.4752 37.3291 40.5954 38.557C39.0947 40.6477 37.4387 42.9383 36.5483 45.3787C36.8091 45.4002 37.0714 45.3945 37.331 45.3617C37.5192 45.3313 37.7034 45.2805 37.8806 45.2103C37.9705 45.1688 38.0574 45.1209 38.1404 45.0671C38.155 45.0584 38.1701 45.0508 38.1858 45.0444C38.2101 44.83 38.2595 44.6192 38.3331 44.4163C38.6657 43.479 39.2291 42.7206 39.7261 41.9695C39.8693 41.7533 40.0045 41.5308 40.1486 41.3155C41.2777 39.6295 42.6407 38.1741 43.5975 36.4979C43.8032 36.1482 43.9833 35.7841 44.1365 35.4084Z" fill="#EACAE5"/>
<path d="M41.5302 28.7696C41.8539 28.6886 42.1777 28.615 42.5015 28.5348C43.6403 27.7335 44.525 27.392 45.2284 26.4547C45.264 26.4045 45.2972 26.3535 45.3303 26.3025C43.3222 26.3357 40.9247 26.2353 39.0979 26.9986C38.8793 27.1004 38.6734 27.2276 38.4844 27.3774C37.7858 27.9496 37.246 28.7404 36.6114 29.358C36.3939 29.5672 36.1624 29.7614 35.9185 29.9392C35.5483 30.2373 35.2029 30.5651 34.8857 30.9194C37.1238 30.216 39.293 29.3297 41.5302 28.7696Z" fill="#EACAE5"/>
<path d="M35.5785 18.7936C36.4033 18.435 37.4069 17.9348 38.2131 17.5261C37.3234 16.7301 36.5204 15.8424 35.8173 14.8777C34.9204 15.2014 33.7759 15.3779 32.8225 15.4864C31.712 15.6126 30.5351 15.6879 29.4772 15.8716C29.4513 15.9882 29.3962 15.9995 29.138 16.35C28.8561 16.741 28.6237 17.1654 28.446 17.6135C28.3768 17.8009 28.3187 17.9923 28.272 18.1865C28.5012 18.2388 28.733 18.2791 28.9664 18.3071C29.4413 18.3498 29.9195 18.3357 30.391 18.2651C30.748 18.2084 31.1 18.1299 31.4505 18.0433C31.5226 18.0306 31.5969 18.0451 31.6589 18.084C31.721 18.1228 31.7665 18.1833 31.7866 18.2537C31.8067 18.3241 31.8 18.3994 31.7679 18.4652C31.7357 18.531 31.6803 18.5825 31.6124 18.6099C30.7917 18.8122 30.0494 18.9571 29.2271 18.9134C29.2213 18.9213 29.2151 18.9289 29.2085 18.9361C29.1429 19.0105 29.0798 19.0866 29.0199 19.1659C28.8948 19.3425 28.79 19.5325 28.7074 19.7325C28.6593 19.8681 28.623 20.0075 28.599 20.1494C30.9867 20.1793 33.4716 19.6953 35.5785 18.7936Z" fill="#EACAE5"/>
<path d="M49.0061 26.8546C48.9493 26.8008 48.8736 26.7716 48.7954 26.7733C48.7172 26.7749 48.6428 26.8074 48.5884 26.8635C48.5616 26.8916 48.5406 26.9248 48.5267 26.961C48.5128 26.9973 48.5063 27.036 48.5075 27.0748C48.5103 27.1528 48.5427 27.2269 48.5981 27.282C48.6766 27.3667 48.749 27.4568 48.815 27.5515C48.8573 27.6188 48.9236 27.6674 49.0004 27.6875C49.0766 27.7055 49.1568 27.6927 49.2236 27.6517C49.2903 27.6108 49.3381 27.5451 49.3565 27.469C49.3658 27.4319 49.3676 27.3933 49.3617 27.3555C49.3559 27.3177 49.3426 27.2814 49.3225 27.2488C49.2252 27.1111 49.1195 26.9795 49.0061 26.8546Z" fill="#EACAE5"/>
<path d="M50.8554 25.6316C50.8209 25.6128 50.7831 25.601 50.7441 25.5969C50.7052 25.5927 50.6657 25.5963 50.6281 25.6075C50.5905 25.6186 50.5555 25.637 50.525 25.6617C50.4946 25.6864 50.4693 25.7169 50.4507 25.7514C50.3616 25.9273 50.2742 26.104 50.1884 26.2816C50.1699 26.3157 50.1584 26.3532 50.1544 26.3918C50.1504 26.4305 50.1541 26.4695 50.1652 26.5067C50.1763 26.544 50.1947 26.5786 50.2192 26.6087C50.2438 26.6388 50.274 26.6638 50.3082 26.6822C50.3426 26.701 50.3804 26.7128 50.4194 26.717C50.4584 26.7211 50.4978 26.7175 50.5354 26.7064C50.573 26.6953 50.6081 26.6768 50.6385 26.6521C50.669 26.6274 50.6942 26.5969 50.7129 26.5624C50.7987 26.3844 50.8861 26.2076 50.9751 26.0323C51.0114 25.9631 51.0191 25.8824 50.9968 25.8076C50.9744 25.7327 50.9236 25.6696 50.8554 25.6316Z" fill="#EACAE5"/>
<path d="M50.0744 23.519C49.9587 23.4081 49.8437 23.2948 49.7296 23.1815C49.6717 23.1365 49.5992 23.1147 49.526 23.1202C49.4529 23.1258 49.3845 23.1583 49.334 23.2115C49.2836 23.2647 49.2547 23.3347 49.253 23.408C49.2513 23.4813 49.2769 23.5526 49.3249 23.6081C49.4393 23.7219 49.5542 23.8347 49.6697 23.9464C49.7276 23.9923 49.8006 24.0148 49.8742 24.0095C49.9479 24.0043 50.0169 23.9716 50.0677 23.918C50.1185 23.8644 50.1474 23.7937 50.1486 23.7198C50.1498 23.646 50.1234 23.5743 50.0744 23.519Z" fill="#EACAE5"/>
</svg>
