<svg width="24" height="25" viewBox="0 0 24 25" fill="none" xmlns="http://www.w3.org/2000/svg">
<path fill-rule="evenodd" clip-rule="evenodd" d="M7.66482 22.7286H16.3243C19.7118 22.7286 21.9869 20.3525 21.9869 16.8168V8.65691C21.9869 5.12121 19.7118 2.74506 16.3253 2.74506H7.66482C4.27832 2.74506 2.0033 5.12121 2.0033 8.65691V16.8168C2.0033 20.3525 4.27832 22.7286 7.66482 22.7286ZM8.49681 11.7377C7.1193 11.7377 6.00001 10.6168 6.00001 9.23971C6.00001 7.86257 7.1193 6.74177 8.49681 6.74177C9.87332 6.74177 10.9936 7.86257 10.9936 9.23971C10.9936 10.6168 9.87332 11.7377 8.49681 11.7377ZM19.8095 15.6684C20.144 16.5263 19.9702 17.5574 19.6125 18.4071C19.1885 19.4176 18.3767 20.1827 17.3539 20.5168C16.8997 20.6653 16.4235 20.7303 15.9482 20.7303H7.5274C6.68944 20.7303 5.94793 20.5292 5.34006 20.1549C4.95926 19.9198 4.89194 19.3774 5.17427 19.0258C5.64651 18.438 6.11271 17.8482 6.58293 17.2532C7.47917 16.1149 8.08302 15.7849 8.7542 16.0746C9.02648 16.1943 9.29978 16.3737 9.58111 16.5634C10.3306 17.0728 11.3726 17.7729 12.7451 17.013C13.6843 16.4869 14.229 15.5846 14.7034 14.7989L14.7114 14.7857C14.7449 14.7306 14.7782 14.6756 14.8114 14.6206L14.8115 14.6205L14.8115 14.6205C14.971 14.3567 15.1282 14.0964 15.3062 13.8567C15.5292 13.5566 16.3561 12.6183 17.4272 13.2864C18.1094 13.7071 18.6831 14.2763 19.297 14.8857C19.5311 15.1188 19.6979 15.3838 19.8095 15.6684Z" fill="white"/>
</svg>
