<svg width="46" height="46" viewBox="0 0 46 46" fill="none" xmlns="http://www.w3.org/2000/svg">
<rect x="0.25" y="0.25" width="45.5" height="45.5" rx="22.75" fill="white"/>
<g clip-path="url(#clip0_210_2054)">
<path d="M24.0002 26.7144C25.4993 26.7144 26.7145 25.4992 26.7145 24.0001C26.7145 22.5011 25.4993 21.2859 24.0002 21.2859C22.5012 21.2859 21.2859 22.5011 21.2859 24.0001C21.2859 25.4992 22.5012 26.7144 24.0002 26.7144Z" fill="#22252D"/>
<path d="M27.3923 15.8573H20.6066C17.988 15.8573 15.8573 17.9887 15.8573 20.6079V27.3937C15.8573 30.0123 17.9887 32.143 20.6079 32.143H27.3937C30.0123 32.143 32.143 30.0116 32.143 27.3923V20.6066C32.143 17.988 30.0116 15.8573 27.3923 15.8573ZM24.0001 28.0716C21.7547 28.0716 19.9287 26.2455 19.9287 24.0001C19.9287 21.7547 21.7547 19.9287 24.0001 19.9287C26.2455 19.9287 28.0716 21.7547 28.0716 24.0001C28.0716 26.2455 26.2455 28.0716 24.0001 28.0716ZM28.7501 19.9287C28.3756 19.9287 28.0716 19.6247 28.0716 19.2501C28.0716 18.8756 28.3756 18.5716 28.7501 18.5716C29.1247 18.5716 29.4287 18.8756 29.4287 19.2501C29.4287 19.6247 29.1247 19.9287 28.7501 19.9287Z" fill="#22252D"/>
</g>
<rect x="0.25" y="0.25" width="45.5" height="45.5" rx="22.75" stroke="#C6C8D3" stroke-width="0.5"/>
<defs>
<clipPath id="clip0_210_2054">
<rect width="17.1429" height="17.1429" fill="white" transform="translate(15.4287 15.4287)"/>
</clipPath>
</defs>
</svg>
