<svg width="25" height="24" viewBox="0 0 25 24" fill="none" xmlns="http://www.w3.org/2000/svg">
<path d="M22.5679 0.143555H2.31886C1.34887 0.143555 0.564529 0.909335 0.564529 1.85612V22.1887C0.564529 23.1355 1.34887 23.9059 2.31886 23.9059H22.5679C23.5379 23.9059 24.3269 23.1355 24.3269 22.1934V1.85612C24.3269 0.909335 23.5379 0.143555 22.5679 0.143555ZM7.61434 20.3926H4.08712V9.0498H7.61434V20.3926ZM5.85073 7.50432C4.71831 7.50432 3.80401 6.59003 3.80401 5.46224C3.80401 4.33446 4.71831 3.42016 5.85073 3.42016C6.97852 3.42016 7.89281 4.33446 7.89281 5.46224C7.89281 6.58539 6.97852 7.50432 5.85073 7.50432ZM20.8136 20.3926H17.291V14.879C17.291 13.5656 17.2678 11.8716 15.4578 11.8716C13.6246 11.8716 13.3461 13.3057 13.3461 14.7862V20.3926H9.82815V9.0498H13.2069V10.5999H13.2533C13.722 9.70884 14.873 8.7667 16.5856 8.7667C20.1546 8.7667 20.8136 11.1151 20.8136 14.1689V20.3926Z" fill="#46331E"/>
</svg>
