<svg width="48" height="48" viewBox="0 0 48 48" fill="none" xmlns="http://www.w3.org/2000/svg">
<rect width="48" height="48" rx="24" fill="#FCFCF9"/>
<g clip-path="url(#clip0_138_6029)">
<path d="M32.5365 17.2334C32.5227 17.1701 32.4924 17.1117 32.4486 17.0639C32.4049 17.0162 32.3492 16.981 32.2874 16.9618C32.0623 16.9174 31.8294 16.9341 31.6129 17.01C31.6129 17.01 16.5931 22.4084 15.7354 23.0063C15.5501 23.1348 15.4885 23.2093 15.4579 23.2977C15.3095 23.723 15.7713 23.9105 15.7713 23.9105L19.6424 25.1722C19.7078 25.1835 19.7749 25.1794 19.8385 25.1604C20.7192 24.6043 28.6986 19.5654 29.1599 19.3961C29.2322 19.3741 29.2858 19.3961 29.274 19.4497C29.0854 20.0957 22.1945 26.2195 22.1565 26.257C22.138 26.2721 22.1235 26.2916 22.1141 26.3136C22.1048 26.3356 22.101 26.3596 22.1029 26.3834L21.7429 30.1607C21.7429 30.1607 21.5919 31.3393 22.7683 30.1607C23.6024 29.3255 24.4028 28.6345 24.804 28.2986C26.1353 29.2173 27.5678 30.2336 28.1854 30.7629C28.2891 30.8635 28.4119 30.9423 28.5467 30.9944C28.6814 31.0465 28.8253 31.0709 28.9697 31.0661C29.559 31.0436 29.7197 30.3991 29.7197 30.3991C29.7197 30.3991 32.4561 19.3875 32.5483 17.9116C32.5569 17.767 32.5692 17.6743 32.5702 17.5752C32.5751 17.4602 32.5638 17.3452 32.5365 17.2334Z" fill="#22252D"/>
</g>
<defs>
<clipPath id="clip0_138_6029">
<rect width="17.1429" height="17.1429" fill="white" transform="translate(15.4285 15.4287)"/>
</clipPath>
</defs>
</svg>
