<svg width="47" height="46" viewBox="0 0 47 46" fill="none" xmlns="http://www.w3.org/2000/svg">
<rect x="0.75" y="0.25" width="45.5" height="45.5" rx="22.75" fill="white"/>
<g clip-path="url(#clip0_210_2050)">
<path d="M32.5715 18.6966C31.9287 18.9644 31.2858 19.1787 30.5358 19.2323C31.2858 18.8037 31.8216 18.1073 32.0894 17.3037C31.393 17.7323 30.643 18.0001 29.8394 18.1609C29.1966 17.4644 28.2858 17.0359 27.3216 17.0359C25.393 17.0359 23.7858 18.5894 23.7858 20.5716C23.7858 20.8394 23.8394 21.1073 23.893 21.3751C20.9466 21.2144 18.3751 19.8216 16.6073 17.6787C16.2858 18.2144 16.1251 18.8037 16.1251 19.4466C16.1251 20.6787 16.768 21.7501 17.6787 22.393C17.0894 22.393 16.5537 22.2323 16.0716 21.9644V22.018C16.0716 23.7323 17.3037 25.1251 18.9108 25.4466C18.5894 25.5001 18.3216 25.5537 18.0001 25.5537C17.7858 25.5537 17.5716 25.5537 17.3573 25.5001C17.7858 26.893 19.1251 27.9109 20.6251 27.9644C19.4466 28.9287 17.893 29.4644 16.2323 29.4644C15.9644 29.4644 15.643 29.4644 15.3751 29.4109C16.9823 30.3751 18.8573 30.9644 20.8394 30.9644C27.3216 30.9644 30.8573 25.6073 30.8573 20.9466C30.8573 20.7859 30.8573 20.6251 30.8573 20.518C31.5001 19.9823 32.0894 19.393 32.5715 18.6966Z" fill="#22252D"/>
</g>
<rect x="0.75" y="0.25" width="45.5" height="45.5" rx="22.75" stroke="#C6C8D3" stroke-width="0.5"/>
<defs>
<clipPath id="clip0_210_2050">
<rect width="17.1429" height="17.1429" fill="white" transform="translate(15.4287 15.4287)"/>
</clipPath>
</defs>
</svg>
