<svg width="24" height="20" viewBox="0 0 24 20" fill="none" xmlns="http://www.w3.org/2000/svg">
<path d="M7.4754 19.6782C16.4401 19.6782 21.3448 12.2493 21.3448 5.80882C21.3448 5.59997 21.3402 5.38648 21.3309 5.17763C22.285 4.48763 23.1084 3.63297 23.7624 2.6538C22.8738 3.04915 21.9303 3.30735 20.9643 3.41958C21.9815 2.80985 22.7431 1.852 23.108 0.723575C22.151 1.29069 21.1045 1.69075 20.0133 1.90659C19.2781 1.12535 18.3059 0.608079 17.2472 0.434747C16.1885 0.261415 15.1022 0.441678 14.1562 0.947664C13.2102 1.45365 12.4572 2.25718 12.0137 3.23402C11.5702 4.21085 11.4608 5.30659 11.7025 6.35182C9.76484 6.25459 7.86925 5.75124 6.1386 4.8744C4.40795 3.99756 2.88088 2.76681 1.6564 1.26194C1.03406 2.33494 0.84362 3.60464 1.12379 4.81301C1.40397 6.02137 2.13373 7.07771 3.16476 7.76736C2.39072 7.74278 1.63364 7.53438 0.956065 7.15937V7.21971C0.955371 8.34574 1.34465 9.43726 2.05773 10.3087C2.77081 11.1802 3.76369 11.7778 4.86757 12C4.15055 12.1962 3.398 12.2248 2.66816 12.0836C2.97966 13.052 3.58572 13.8989 4.40175 14.5063C5.21779 15.1137 6.20309 15.4511 7.22014 15.4716C5.49349 16.8279 3.36057 17.5635 1.16491 17.5601C0.775532 17.5595 0.386534 17.5356 0 17.4886C2.23055 18.9196 4.82528 19.6796 7.4754 19.6782Z" fill="#46331E"/>
</svg>
