<svg width="379" height="420" viewBox="0 0 379 420" fill="none" xmlns="http://www.w3.org/2000/svg">
<g opacity="0.1">
<path d="M55.8069 42.33C55.8045 42.7961 55.7268 43.2587 55.5769 43.7L55.2469 44.37C54.7269 46.27 54.2469 48.18 53.8269 50.11C52.0782 59.3035 51.4869 68.6797 52.0669 78.02C52.9273 88.2533 54.4977 98.4145 56.7669 108.43C57.3052 108.136 57.899 107.957 58.5103 107.906C59.1216 107.854 59.7369 107.93 60.3169 108.13C61.4285 108.525 62.3409 109.34 62.8587 110.4C63.3765 111.46 63.4585 112.68 63.087 113.8C61.9048 117.317 60.9691 120.913 60.2869 124.56C60.3152 125.19 60.2023 125.819 59.9568 126.4C57.6968 139.82 57.327 155.92 58.137 169.4C59.0747 182.458 61.1458 195.41 64.3269 208.11C65.6869 203.68 67.0169 199.24 67.9969 194.71C71.3669 177.71 71.8168 157.97 70.7268 140.78V140.96C70.1868 132.52 69.9268 130.22 66.9568 120.4C65.8588 117.14 65.0294 113.795 64.4768 110.4C63.3468 101.8 65.0569 97.84 67.5269 89.65C73.0369 71.29 78.677 52.09 77.637 32.92C77.266 27.7576 76.2788 22.6581 74.6968 17.73C73.8041 15.0223 72.5852 12.4332 71.0669 10.02C68.0578 13.7918 65.4503 17.8672 63.2869 22.18C60.2287 28.6733 57.7264 35.4141 55.8069 42.33Z" fill="#FBF9FB"/>
<path d="M148.977 386.37C129.777 344.56 122.737 301.74 124.407 256.68C118.907 241.58 113.237 219.83 103.227 204.68C101.342 201.915 99.1555 199.37 96.7068 197.09C96.0654 196.597 95.3978 196.14 94.7068 195.72C93.743 195.156 93.0266 194.251 92.6992 193.183C92.3719 192.116 92.4578 190.964 92.94 189.957C93.4221 188.95 94.2652 188.161 95.302 187.747C96.3388 187.332 97.4934 187.323 98.5369 187.72C97.6777 183.069 97.0667 178.376 96.7068 173.66C95.6443 161.45 96.1721 149.154 98.2769 137.08C98.1635 136.629 98.1198 136.164 98.147 135.7C98.227 135.32 98.307 134.94 98.377 134.56C100.327 126.811 101.172 118.825 100.887 110.84C100.55 106.538 99.7149 102.289 98.397 98.18C97.6471 96.1103 96.7755 94.0868 95.7869 92.12C95.2565 91.0591 95.1691 89.831 95.5442 88.7058C95.9193 87.5806 96.726 86.6504 97.7869 86.12C98.8478 85.5896 100.076 85.5023 101.201 85.8774C102.326 86.2524 103.256 87.0591 103.787 88.12C105.359 91.2439 106.644 94.5039 107.627 97.86C110.741 86.7446 112.441 75.2808 112.687 63.74C112.607 63.2902 112.607 62.8298 112.687 62.38C112.687 60.75 112.687 59.12 112.557 57.49C112.229 52.1324 111.256 46.834 109.657 41.71C107.682 36.8282 105.076 32.2258 101.907 28.02C101.671 27.7435 101.466 27.4416 101.297 27.12C99.379 27.7769 97.5461 28.6597 95.8369 29.75C94.4317 30.7677 93.1318 31.9234 91.9568 33.2C90.7239 34.7135 89.6484 36.3486 88.7468 38.08C87.8776 39.9796 87.1425 41.9377 86.5469 43.94C85.4269 62.55 79.1368 81.87 74.2068 98.52C76.9268 96.24 79.867 94.22 82.657 92.03C83.5677 91.2455 84.7466 90.8441 85.9468 90.91C86.8239 90.9728 87.6631 91.2928 88.3592 91.8301C89.0552 92.3674 89.5773 93.0981 89.8601 93.9307C90.143 94.7632 90.1739 95.6607 89.9492 96.5108C89.7245 97.361 89.2542 98.1259 88.5969 98.71C84.5969 101.86 80.2369 104.64 76.7569 108.4C76.0037 109.34 75.3345 110.343 74.7569 111.4C74.5406 111.902 74.3536 112.416 74.1968 112.94C74.7668 115.29 75.4768 117.61 76.1968 119.94C77.8522 124.858 78.8837 129.965 79.2669 135.14C81.2669 159.62 80.007 179.38 77.147 194.58C78.3608 193.698 79.6373 192.906 80.9668 192.21C81.4921 191.947 82.0641 191.791 82.6499 191.749C83.2357 191.707 83.824 191.782 84.3811 191.967C84.9383 192.153 85.4533 192.447 85.897 192.831C86.3407 193.216 86.7042 193.685 86.9668 194.21C87.2295 194.735 87.3861 195.307 87.4278 195.893C87.4694 196.479 87.3952 197.067 87.2095 197.624C87.0238 198.181 86.7303 198.696 86.3455 199.14C85.9607 199.584 85.4921 199.947 84.9668 200.21C84.2668 200.58 83.5868 200.96 82.9668 201.38C81.4684 202.47 80.0848 203.71 78.8369 205.08C74.1169 210.82 71.017 218.68 70.177 219.84C67.317 229.65 66.247 235.84 66.937 247.84C68.537 269.62 76.1969 291.41 86.2769 310.59C94.6171 326.464 104.71 341.354 116.367 354.98C127.657 367.91 136.127 374.31 139.837 377.66C142.937 380.45 145.577 383.07 148.977 386.37ZM88.5069 221.31C87.6396 221.485 86.7399 221.399 85.9217 221.062C85.1034 220.726 84.4034 220.154 83.9104 219.419C83.4174 218.684 83.1535 217.82 83.1521 216.935C83.1508 216.05 83.4121 215.185 83.9029 214.449C84.3937 213.713 85.092 213.139 85.9092 212.8C86.7264 212.461 87.6259 212.372 88.4937 212.544C89.3615 212.717 90.1585 213.143 90.784 213.769C91.4094 214.395 91.835 215.192 92.0069 216.06C92.2258 217.219 91.9822 218.418 91.3279 219.399C90.6737 220.38 89.6609 221.066 88.5069 221.31Z" fill="#FBF9FB"/>
<path d="M293.747 53.51C290.792 54.9601 287.935 56.6037 285.197 58.43C273.406 66.666 263.635 77.4663 256.617 90.02C256.523 90.1753 256.416 90.3225 256.297 90.46C245.357 130.46 239.297 162.33 230.997 203.55C228.777 214.55 227.337 223.38 223.597 234.07C217.177 252.37 207.547 267.42 195.807 282.67C195.627 282.9 195.447 283.11 195.257 283.31C194.937 285.26 194.587 287.21 194.257 289.17C190.737 310.27 193.587 335.3 195.087 358.81C195.087 358.41 195.087 358.02 195.017 357.62C195.527 365.49 196.097 373.53 198.537 381.09C198.817 381.86 199.127 382.6 199.477 383.33C216.787 345.51 237.867 306.63 249.857 266.69C251.347 261.69 252.747 256.75 253.857 251.69C255.711 242.307 256.383 232.73 255.857 223.18C255.506 218.407 254.898 213.657 254.037 208.95C250.974 212.525 247.489 215.715 243.657 218.45C243.059 218.958 242.338 219.303 241.567 219.45L240.377 219.52C239.196 219.435 238.096 218.886 237.32 217.991C236.544 217.097 236.154 215.931 236.237 214.75C236.27 214.175 236.418 213.613 236.675 213.097C236.931 212.582 237.289 212.123 237.727 211.75C245.187 206.61 251.727 198.58 256.077 190.75C259.777 178.86 264.207 166.37 270.937 150.1C270.878 149.475 270.949 148.845 271.147 148.25C276.587 131.68 279.227 118.07 278.147 100.36C278.177 99.7847 278.325 99.2218 278.582 98.7058C278.838 98.1899 279.197 97.7319 279.637 97.36C280.224 96.8375 280.938 96.4793 281.708 96.3217C282.477 96.164 283.275 96.2125 284.02 96.4621C284.765 96.7118 285.431 97.1538 285.95 97.7435C286.469 98.3331 286.823 99.0495 286.977 99.82C287.317 104.479 287.38 109.154 287.167 113.82C291.747 104.13 298.527 90.14 301.777 83.56C301.955 82.7206 302.336 81.9377 302.887 81.28C306.007 74.91 308.977 68.44 310.537 61.51C311.316 57.4757 311.518 53.3512 311.137 49.26C309.947 49.2 308.757 49.19 307.567 49.26C303.603 49.6556 299.679 50.3849 295.837 51.44C295.405 52.3537 294.665 53.0864 293.747 53.51Z" fill="#FBF9FB"/>
<path d="M29.5168 86.16C29.5168 85.97 29.5168 85.68 29.5168 85.47C29.4868 85.7 29.5068 85.93 29.5168 86.16Z" fill="#FBF9FB"/>
<path d="M85.9568 26.64C86.1368 26.44 86.3168 26.23 86.5068 26.03C88.831 23.6554 91.5606 21.715 94.5669 20.3C90.6736 18.02 86.7301 15.83 82.7368 13.73C84.1507 17.5972 85.1856 21.5926 85.8269 25.66C85.8769 26.02 85.9068 26.31 85.9568 26.64Z" fill="#FBF9FB"/>
<path d="M237.817 169.65C237.657 170.43 237.557 170.96 237.717 170.16C237.727 170.14 237.797 169.78 237.817 169.65Z" fill="#FBF9FB"/>
<path d="M48.0668 208.24C51.0468 216.82 54.4102 225.247 58.1569 233.52C58.4983 230.461 59.0224 227.426 59.7267 224.43C59.6267 224.14 59.5269 223.86 59.4369 223.58C53.5159 204.944 50.0302 185.62 49.0668 166.09C48.3185 152.416 49.009 138.7 51.1268 125.17C48.516 123.833 45.988 122.341 43.5568 120.7C43.0689 120.372 42.6504 119.951 42.3253 119.461C42.0002 118.971 41.7748 118.421 41.662 117.844C41.5492 117.267 41.5512 116.673 41.6679 116.097C41.7845 115.521 42.0134 114.973 42.3417 114.485C42.67 113.997 43.0912 113.579 43.5812 113.254C44.0712 112.929 44.6205 112.703 45.1976 112.59C45.7748 112.478 46.3684 112.479 46.9447 112.596C47.5211 112.713 48.0689 112.942 48.5568 113.27L48.7367 113.39C44.7367 95.05 41.4169 76.26 43.6569 57.48C44.3321 52.009 45.3913 46.5923 46.8268 41.27C46.1468 32.45 45.3768 23.55 42.6068 15.11C41.5522 12.1407 40.1667 9.29948 38.4767 6.64001C32.3467 22.2 29.9567 40.03 29.2367 56.7C28.7799 67.4778 28.9569 78.273 29.7667 89.03C29.9225 89.8097 29.8709 90.6166 29.6168 91.37L29.5067 91.58C34.7567 126.02 30.2168 155.76 48.0668 208.24Z" fill="#FBF9FB"/>
<path d="M117.197 96.45C117.907 95.75 118.627 95.06 119.387 94.45C120.28 93.7205 121.421 93.3647 122.571 93.4569C123.721 93.5492 124.791 94.0824 125.557 94.9451C126.322 95.8077 126.725 96.9331 126.68 98.0858C126.636 99.2385 126.147 100.329 125.317 101.13C124.048 102.227 122.852 103.407 121.737 104.66C118.663 108.33 116.013 112.336 113.837 116.6C110.994 122.779 108.896 129.275 107.587 135.95C103.537 156.5 104.447 180.03 110.727 199.75C110.727 199.88 110.787 200.01 110.807 200.14C117.697 210.44 122.267 222.9 126.327 234.83C127.928 224.089 130.342 213.486 133.547 203.11C133.451 202.87 133.374 202.622 133.317 202.37C131.757 178.32 134.847 153.24 136.657 129.93C136.604 129.343 136.651 128.751 136.797 128.18C137.212 123.823 137.355 119.445 137.227 115.07C136.98 111.838 136.366 108.644 135.397 105.55C135.057 104.63 134.687 103.73 134.287 102.84C134.024 102.315 133.867 101.743 133.826 101.157C133.784 100.571 133.858 99.983 134.044 99.4258C134.23 98.8687 134.524 98.3536 134.908 97.9099C135.293 97.4662 135.761 97.1027 136.287 96.84C136.812 96.5774 137.384 96.4208 137.97 96.3792C138.556 96.3375 139.144 96.4117 139.701 96.5974C140.258 96.7831 140.773 97.0768 141.217 97.4615C141.661 97.8463 142.024 98.3148 142.287 98.84C142.727 99.84 143.127 100.79 143.487 101.79C144.32 98.3842 144.948 94.9313 145.367 91.45C145.939 87.0112 146.14 82.5323 145.967 78.06C145.602 73.2255 144.663 68.4518 143.167 63.84C141.362 58.9525 139.014 54.2832 136.167 49.92C132.252 52.352 128.688 55.3096 125.577 58.71C124.141 60.4522 122.834 62.2971 121.667 64.23C121.413 75.1055 119.913 85.9161 117.197 96.45Z" fill="#FBF9FB"/>
<path d="M183.357 315.16C177.757 307.82 171.457 299.44 167.097 290.89C164.237 285.28 160.357 276.06 157.937 269.61C149.737 247.73 144.237 225.17 143.377 201.67C137.481 219.007 134.113 237.103 133.377 255.4C133.519 255.893 133.576 256.407 133.547 256.92L133.307 258.05C133.313 258.076 133.313 258.104 133.307 258.13C133.187 261.95 133.127 265.77 133.127 269.59C133.382 270.017 133.552 270.489 133.627 270.98C137.697 299.57 143.577 332.43 159.397 356.14C162.608 360.858 166.364 365.181 170.587 369.02C173.042 371.15 175.725 373.001 178.587 374.54C181.774 375.962 185.076 377.113 188.457 377.98C186.827 370.46 186.457 362.73 185.957 355.07C185.097 341.92 183.827 328.74 183.637 315.55C183.535 315.427 183.441 315.296 183.357 315.16Z" fill="#FBF9FB"/>
<path d="M399.757 141.56C401.941 137.066 403.599 132.335 404.697 127.46C405.448 123.686 405.707 119.831 405.467 115.99C405.462 115.501 405.571 115.018 405.787 114.58C404.345 111.582 402.701 108.685 400.867 105.91C398.815 102.977 396.542 100.206 394.067 97.62C384.082 98.7477 374.509 102.234 366.137 107.79C363.488 109.603 361.071 111.732 358.937 114.13C358.552 114.527 358.074 114.822 357.547 114.99C348.627 130.91 335.267 148.4 324.107 162.77C323.805 163.767 323.142 164.616 322.247 165.15C313.687 176.15 303.857 188.69 295.597 200.63C286.407 213.93 277.467 227.49 265.887 240.77C265.459 241.216 264.915 241.535 264.317 241.69C263.117 253.2 260.447 263.02 256.897 274.14C273.637 256.82 310.787 223.97 326.507 209.94C329.76 204.048 332.234 197.759 333.867 191.23C334.367 188.594 334.595 185.913 334.547 183.23C334.581 182.656 334.731 182.094 334.987 181.579C335.243 181.063 335.6 180.605 336.037 180.23C336.475 179.84 336.985 179.541 337.539 179.348C338.092 179.156 338.679 179.075 339.264 179.109C339.849 179.144 340.421 179.293 340.949 179.549C341.476 179.805 341.948 180.162 342.337 180.6C343.113 181.515 343.513 182.691 343.457 183.89C343.512 188.043 342.967 192.183 341.837 196.18C355.697 183.62 369.217 171.53 384.777 160.94C386.958 159.117 388.997 157.132 390.877 155C394.344 150.877 397.324 146.367 399.757 141.56Z" fill="#FBF9FB"/>
<path d="M318.257 67.02C323.402 63.7984 328.982 61.33 334.827 59.69C327.037 54.88 324.927 53.24 320.137 51.34C320.383 56.6347 319.748 61.9336 318.257 67.02Z" fill="#FBF9FB"/>
<path d="M345.287 66.8401C341.543 67.1728 337.851 67.9448 334.287 69.1401C329.71 70.7934 325.346 72.9855 321.287 75.6701C318.034 77.909 315.048 80.5126 312.387 83.4301C311.64 84.3367 310.93 85.2767 310.257 86.2501C304.337 98.5101 293.837 119.59 284.687 140.46C277.347 157.009 270.871 173.929 265.287 191.15C265.299 191.669 265.221 192.187 265.057 192.68L264.547 193.68C264.487 193.81 264.407 193.94 264.347 194.07C261.957 201.73 262.177 201.57 261.787 202.32C263.636 210.796 264.678 219.428 264.897 228.1C269.897 221.81 274.617 215.26 279.207 208.65C293.447 188.15 290.987 190.85 315.967 158.72C318.507 149.11 322.137 141.61 324.037 132.89C324.76 129.038 325.045 125.116 324.887 121.2C324.924 120.626 325.074 120.065 325.33 119.55C325.586 119.035 325.942 118.576 326.377 118.2C326.965 117.678 327.68 117.32 328.45 117.163C329.22 117.006 330.018 117.054 330.764 117.304C331.509 117.553 332.176 117.995 332.696 118.584C333.216 119.173 333.572 119.889 333.727 120.66C334.113 126.326 333.555 132.017 332.077 137.5C339.347 127.5 347.437 115.7 352.957 104.77C356.07 98.5107 358.42 91.9 359.957 85.0801C360.603 81.7239 361.001 78.3247 361.147 74.9101C355.307 71.5701 352.227 69.9101 346.877 66.8101C346.337 66.8201 345.807 66.8201 345.287 66.8401Z" fill="#FBF9FB"/>
<path d="M365.627 97.67C371.808 94.1974 378.451 91.6216 385.357 90.02C380.657 86.56 374.737 82.9 369.717 79.91C369.048 85.9689 367.676 91.9291 365.627 97.67Z" fill="#FBF9FB"/>
<path d="M313.377 284.45C330.104 268.77 347.38 253.693 365.207 239.22C372.047 233.7 384.457 223.89 391.637 218.75C400.357 212.52 408.157 207.62 418.447 204.24C420.057 192.36 418.617 182.19 417.347 170.32C416.757 164.8 416.287 159.27 415.637 153.76C406.92 157.674 398.555 162.331 390.637 167.68C388.794 169.19 386.861 170.586 384.847 171.86C384.702 171.949 384.548 172.023 384.387 172.08C369.387 183.08 355.977 195.43 341.227 208.76C345.987 207.76 350.227 207.14 355.337 206.36C356.5 206.142 357.703 206.378 358.697 207.02C359.432 207.51 360.005 208.208 360.344 209.024C360.682 209.839 360.772 210.737 360.601 211.604C360.429 212.471 360.005 213.267 359.382 213.893C358.758 214.519 357.963 214.946 357.097 215.12C348.317 216.47 339.527 217.83 331.097 220.63C329.507 221.2 327.947 221.81 326.397 222.47C326.147 222.578 325.89 222.668 325.627 222.74C310.467 236.25 271.247 271.05 257.857 286.28C254.506 290.146 251.464 294.269 248.757 298.61C248.495 299.036 248.156 299.409 247.757 299.71C235.617 330.12 220.257 359.24 206.757 389.05C206.501 389.616 206.164 390.141 205.757 390.61C205.997 390.88 206.227 391.17 206.467 391.45C230.447 366.85 288.487 307.8 313.377 284.45Z" fill="#FBF9FB"/>
<path d="M200.067 397.81C197.437 394.37 194.527 392.89 191.787 387.9C191.364 387.872 190.945 387.802 190.537 387.69C183.307 385.84 175.927 383.95 169.717 379.6C157.877 371.3 149.447 358.83 143.357 345.71C148.662 364.242 156.021 382.122 165.297 399.02C165.909 399.524 166.487 400.069 167.027 400.65L167.427 400.95C168.504 401.323 169.456 401.988 170.177 402.87C171.077 403.42 171.997 403.94 172.937 404.42C179.537 407.57 187.577 409.77 195.017 409.48C196.398 409.369 197.765 409.121 199.097 408.74C199.666 408.51 200.217 408.24 200.747 407.93C201.002 407.73 201.245 407.517 201.477 407.29C201.627 407.09 201.757 406.89 201.887 406.68C201.995 406.412 202.089 406.138 202.167 405.86C202.227 405.349 202.257 404.835 202.257 404.32C202.108 403.156 201.854 402.008 201.497 400.89C201.117 399.821 200.638 398.79 200.067 397.81Z" fill="#FBF9FB"/>
<path d="M20.2069 58.29C20.8569 39.79 23.6769 18.69 30.7769 1.77002H30.6968C27.8884 2.79876 25.2049 4.14055 22.6969 5.77002C20.002 7.69231 17.53 9.90937 15.3269 12.38C12.5305 15.7435 10.1251 19.4137 8.15686 23.32C6.89627 25.9633 5.79112 28.6779 4.84692 31.45C11.2769 41.77 15.6069 47.71 20.2069 58.29Z" fill="#FBF9FB"/>
<path d="M348.157 314.02L347.717 314.53L348.157 314.02Z" fill="#FBF9FB"/>
<path d="M153.167 419.09C155.537 415.66 158.167 412.39 160.737 409.14C160.227 408.26 159.737 407.37 159.217 406.47C149.707 400.58 140.777 390.28 132.147 382.68C129.917 380.77 127.667 378.91 125.487 376.95C118.832 370.977 112.622 364.527 106.907 357.65C93.327 341.3 78.847 318.54 70.117 297.11C64.4669 283.27 60.357 269.5 58.617 254.78C58.5274 254.649 58.4473 254.512 58.377 254.37C49.0023 236.639 41.4116 218.021 35.7168 198.79C28.7168 175.22 25.9669 156.42 24.2869 132.48C22.8069 111.35 22.0769 90.26 15.0769 69.48C11.1969 58.58 7.35693 52.01 1.71693 43.15C0.132491 51.6762 -0.358216 60.3697 0.256847 69.02C1.50685 86.29 5.71695 102.54 10.117 119.24C27.727 186.1 37.957 228.62 50.907 266.55C62.397 299.83 76.9868 332.28 96.6968 361.55C111.207 382.81 129.547 403.55 151.487 417.03C152.265 417.505 152.858 418.232 153.167 419.09Z" fill="#FBF9FB"/>
<path d="M153.497 175.94C152.203 185.851 151.868 195.864 152.497 205.84C154.197 230.56 161.137 255.73 171.357 278.84C174.64 286.754 178.885 294.234 183.997 301.11C184.201 297.265 184.602 293.434 185.197 289.63C187.746 275.615 189.194 261.421 189.527 247.18C190.427 219.81 188.807 191.27 191.137 163.84C192.537 147.18 196.067 132.27 195.257 116.59C195.034 113.613 194.62 110.654 194.017 107.73C189.397 114.31 185.017 121.07 180.677 127.84C170.347 144.02 162.067 157.11 153.497 175.94Z" fill="#FBF9FB"/>
<path d="M400.757 223.2C390.147 230.48 371.457 245.52 361.097 254.15C364.764 253.528 368.463 253.11 372.177 252.9C372.751 252.931 373.313 253.079 373.828 253.333C374.344 253.587 374.803 253.944 375.177 254.38C375.699 254.968 376.056 255.683 376.214 256.453C376.371 257.223 376.323 258.021 376.073 258.767C375.824 259.512 375.382 260.179 374.793 260.699C374.204 261.219 373.487 261.575 372.717 261.73C366.198 262.067 359.747 263.223 353.517 265.17C350.186 266.339 347.001 267.889 344.027 269.79C343.107 270.44 342.227 271.13 341.367 271.87C340.779 272.371 340.074 272.715 339.317 272.87C328.977 282.037 318.84 291.42 308.907 301.02C292.197 317.18 259.627 350.02 241.857 368.02C243.167 368.02 244.477 368.02 245.787 367.91C265.787 366.44 287.107 358.35 305.017 349.42C311.287 346.3 317.287 343.02 322.837 339.68C324.437 338.68 326.057 337.76 327.637 336.76C352.377 310.03 364.757 294.61 381.747 272.06C392.257 258.06 402.427 243.72 410.297 228.06C412.501 223.728 414.399 219.247 415.977 214.65C410.657 217.038 405.564 219.899 400.757 223.2Z" fill="#FBF9FB"/>
<path d="M347.407 314.88C347.617 314.64 347.837 314.38 347.637 314.62L347.407 314.88Z" fill="#FBF9FB"/>
<path d="M170.067 73.55C169.067 74.09 168.067 74.6501 167.067 75.2801C164.79 76.9187 162.692 78.7924 160.807 80.87C158.917 83.1335 157.278 85.5944 155.917 88.2101C155.295 89.5508 154.75 90.9264 154.287 92.33C153.847 95.81 153.197 99.2701 152.447 102.71C154.447 100.6 156.587 98.56 158.717 96.54C159.15 96.1196 159.663 95.791 160.226 95.5742C160.789 95.3575 161.39 95.2569 161.993 95.2787C162.596 95.3005 163.189 95.4441 163.735 95.7009C164.281 95.9577 164.769 96.3224 165.17 96.773C165.571 97.2236 165.877 97.7507 166.07 98.3227C166.262 98.8947 166.336 99.4996 166.288 100.101C166.24 100.703 166.071 101.288 165.79 101.822C165.51 102.357 165.125 102.829 164.657 103.21C161.467 106.21 158.307 109.29 155.387 112.57C152.616 115.774 150.214 119.279 148.227 123.02C147.211 125.172 146.362 127.398 145.687 129.68C144.357 146.99 142.547 163.09 142.017 180.03C150.547 159.91 159.527 144.52 170.907 126.62C177.067 116.94 183.297 107.23 190.077 97.9501C184.547 88.4601 181.997 83.32 175.837 77.79C173.991 76.2738 172.065 74.8584 170.067 73.55Z" fill="#FBF9FB"/>
<path d="M120.797 50.7C123.393 48.081 126.252 45.7354 129.327 43.7C124.974 40.4133 120.56 37.21 116.087 34.09C118.525 39.3427 120.115 44.949 120.797 50.7Z" fill="#FBF9FB"/>
<path d="M53.5469 22.08C56.1636 15.8823 59.6266 10.0771 63.8369 4.83C59.8267 3.12304 55.6697 1.7842 51.417 0.83C49.1802 0.410153 46.9189 0.132927 44.647 0C49.517 6.39 52.0669 14.13 53.5469 22.08Z" fill="#FBF9FB"/>
<path d="M201.587 150.61C200.306 159.897 199.495 169.242 199.157 178.61C197.907 208.52 199.847 236.68 197.427 265.29C201.723 259.066 205.598 252.561 209.027 245.82C213.865 235.886 217.459 225.394 219.727 214.58C224.797 189.69 229.667 164.36 235.217 139.15C244.947 94.9001 249.047 84.8201 251.327 74.1501C252.322 69.3942 252.741 64.536 252.577 59.6801C244.462 61.3882 236.769 64.6959 229.947 69.4101C218.587 77.2901 209.097 87.6201 200.697 98.5901C206.627 115.58 203.927 133.02 201.587 150.61Z" fill="#FBF9FB"/>
<path d="M273.687 55.95C269.567 56.57 265.437 57.1699 261.327 57.8899C261.62 61.2783 261.593 64.6867 261.247 68.07C265.034 63.6764 269.196 59.621 273.687 55.95Z" fill="#FBF9FB"/>
<path d="M154.547 74.5201C156.605 72.1562 158.957 70.0659 161.547 68.3001C158.647 66.5601 155.767 64.7801 153.037 62.7901C152.657 62.5101 152.287 62.2101 151.917 61.9301C153.236 66.0221 154.117 70.2423 154.547 74.5201Z" fill="#FBF9FB"/>
<path d="M347.717 314.53C347.867 314.35 347.787 314.44 347.637 314.62L347.717 314.53Z" fill="#FBF9FB"/>
<path d="M86.7568 212.55C85.8891 212.721 85.0918 213.147 84.4657 213.771C83.8397 214.396 83.4131 215.193 83.2399 216.06C83.0667 216.927 83.1546 217.826 83.4926 218.644C83.8306 219.461 84.4036 220.16 85.1388 220.651C85.8741 221.143 86.7388 221.405 87.6232 221.405C88.5077 221.405 89.3723 221.143 90.1076 220.651C90.8429 220.16 91.4157 219.461 91.7538 218.644C92.0919 217.827 92.1799 216.927 92.0068 216.06C91.763 214.905 91.0776 213.892 90.0966 213.236C89.1156 212.58 87.9169 212.334 86.7568 212.55Z" fill="#FBF9FB"/>
<path d="M237.827 169.62C237.827 169.78 237.827 169.75 237.767 169.94L237.827 169.62Z" fill="#FBF9FB"/>
<path d="M237.767 169.94C237.767 170.11 237.697 170.26 237.767 170.09V169.94Z" fill="#FBF9FB"/>
</g>
</svg>
