<svg xmlns="http://www.w3.org/2000/svg" width="1440" height="1007" viewBox="0 0 1440 1017" fill="none">

































































































<path d="M583.391 24.1039C583.39 24.3692 583.346 24.6327 583.26 24.884L583.072 25.2655C582.776 26.3474 582.503 27.435 582.264 28.534C581.268 33.769 580.931 39.108 581.261 44.4267C581.751 50.2538 582.646 56.0398 583.938 61.7429C584.244 61.5754 584.582 61.4737 584.93 61.4443C585.279 61.4149 585.629 61.4584 585.959 61.5721C586.592 61.7971 587.112 62.2611 587.407 62.8646C587.701 63.4682 587.748 64.1632 587.537 64.8007C586.863 66.8036 586.331 68.8509 585.942 70.9278C585.958 71.2867 585.894 71.6446 585.754 71.9755C584.467 79.6172 584.257 88.785 584.718 96.4608C585.252 103.897 586.431 111.272 588.243 118.503C589.017 115.981 589.774 113.453 590.332 110.873C592.251 101.193 592.508 89.9523 591.887 80.1639V80.2664C591.579 75.4604 591.431 74.1507 589.74 68.559C589.115 66.7026 588.643 64.7981 588.328 62.8647C587.685 57.9676 588.658 55.7127 590.065 51.0491C593.202 40.5944 596.414 29.6615 595.822 18.7456C595.61 15.8059 595.048 12.9021 594.148 10.096C593.639 8.5541 592.945 7.07984 592.081 5.70569C590.367 7.85344 588.882 10.1741 587.65 12.6299C585.909 16.3273 584.484 20.1657 583.391 24.1039Z" fill="#EADCEA"/>
<path d="M636.444 220.009C625.512 196.202 621.503 171.819 622.454 146.16C619.322 137.562 616.093 125.177 610.393 116.55C609.32 114.976 608.075 113.526 606.681 112.228C606.315 111.948 605.935 111.687 605.542 111.448C604.993 111.127 604.585 110.612 604.399 110.004C604.212 109.396 604.261 108.74 604.536 108.167C604.81 107.593 605.29 107.144 605.881 106.908C606.471 106.672 607.128 106.667 607.723 106.893C607.233 104.244 606.886 101.572 606.681 98.8866C606.076 91.934 606.376 84.9322 607.575 78.057C607.51 77.8003 607.485 77.5353 607.501 77.2712C607.546 77.0548 607.592 76.8384 607.632 76.622C608.742 72.2096 609.223 67.6624 609.061 63.1152C608.869 60.6654 608.393 58.2462 607.643 55.9063C607.216 54.7278 606.72 53.5755 606.157 52.4556C605.855 51.8515 605.805 51.1522 606.019 50.5114C606.232 49.8707 606.692 49.3411 607.296 49.039C607.9 48.737 608.599 48.6873 609.24 48.9009C609.881 49.1144 610.41 49.5738 610.712 50.1779C611.607 51.9567 612.339 53.813 612.899 55.7241C614.672 49.3947 615.64 42.8669 615.78 36.2953C615.735 36.0391 615.735 35.777 615.78 35.5208C615.78 34.5927 615.78 33.6645 615.706 32.7363C615.52 29.6856 614.965 26.6685 614.055 23.7508C612.93 20.971 611.446 18.3503 609.642 15.9554C609.507 15.7979 609.391 15.626 609.294 15.4429C608.202 15.8169 607.159 16.3196 606.185 16.9405C605.385 17.5199 604.645 18.1781 603.976 18.905C603.274 19.7668 602.661 20.6979 602.148 21.6838C601.653 22.7654 601.234 23.8805 600.895 25.0206C600.258 35.6176 596.676 46.619 593.868 56.0999C595.417 54.8016 597.092 53.6514 598.68 52.4043C599.199 51.9576 599.87 51.729 600.554 51.7666C601.053 51.8023 601.531 51.9846 601.927 52.2905C602.324 52.5965 602.621 53.0125 602.782 53.4866C602.943 53.9607 602.961 54.4718 602.833 54.9558C602.705 55.4399 602.437 55.8755 602.063 56.2081C599.785 58.0018 597.302 59.5848 595.321 61.7258C594.892 62.2608 594.511 62.8325 594.182 63.4341C594.059 63.72 593.952 64.0128 593.863 64.311C594.187 65.6492 594.592 66.9702 595.002 68.297C595.944 71.0976 596.532 74.0054 596.75 76.9523C597.889 90.8918 597.171 102.144 595.543 110.799C596.234 110.297 596.961 109.846 597.718 109.449C598.017 109.3 598.343 109.211 598.676 109.187C599.01 109.163 599.345 109.206 599.662 109.311C599.979 109.417 600.273 109.584 600.525 109.803C600.778 110.022 600.985 110.289 601.134 110.588C601.284 110.887 601.373 111.213 601.397 111.547C601.421 111.88 601.378 112.215 601.273 112.532C601.167 112.85 601 113.143 600.781 113.396C600.561 113.648 600.295 113.855 599.996 114.005C599.597 114.216 599.21 114.432 598.857 114.671C598.003 115.292 597.216 115.998 596.505 116.778C593.817 120.046 592.052 124.522 591.574 125.183C589.945 130.769 589.336 134.294 589.729 141.127C590.64 153.529 595.002 165.937 600.742 176.858C605.491 185.897 611.238 194.376 617.876 202.135C624.304 209.498 629.127 213.142 631.24 215.05C633.005 216.638 634.508 218.13 636.444 220.009ZM602.011 126.02C601.517 126.119 601.005 126.07 600.539 125.879C600.073 125.687 599.675 125.361 599.394 124.943C599.113 124.525 598.963 124.032 598.962 123.529C598.961 123.025 599.11 122.532 599.39 122.113C599.669 121.694 600.067 121.367 600.532 121.174C600.998 120.981 601.51 120.93 602.004 121.028C602.498 121.127 602.952 121.369 603.308 121.726C603.664 122.082 603.906 122.536 604.004 123.03C604.129 123.69 603.99 124.373 603.618 124.932C603.245 125.49 602.668 125.881 602.011 126.02Z" fill="#EADCEA"/>
<path d="M718.88 30.47C717.198 31.2957 715.571 32.2316 714.012 33.2715C707.298 37.9613 701.734 44.1113 697.738 51.2597C697.684 51.3481 697.623 51.4319 697.555 51.5103C691.326 74.2873 687.875 92.4349 683.149 115.907C681.885 122.17 681.065 127.198 678.935 133.286C675.279 143.706 669.796 152.276 663.111 160.96C663.008 161.091 662.906 161.21 662.798 161.324C662.615 162.434 662.416 163.545 662.228 164.661C660.224 176.676 661.847 190.929 662.701 204.316C662.701 204.088 662.701 203.866 662.661 203.638C662.951 208.12 663.276 212.698 664.665 217.003C664.825 217.441 665.001 217.862 665.201 218.278C675.057 196.742 687.061 174.603 693.888 151.86C694.737 149.013 695.534 146.2 696.166 143.319C697.222 137.976 697.604 132.522 697.305 127.084C697.105 124.367 696.759 121.662 696.268 118.982C694.524 121.017 692.54 122.834 690.358 124.391C690.017 124.681 689.607 124.877 689.168 124.961L688.49 125C687.818 124.952 687.192 124.639 686.75 124.13C686.308 123.621 686.086 122.957 686.133 122.284C686.151 121.957 686.236 121.637 686.382 121.343C686.528 121.05 686.732 120.789 686.981 120.576C691.229 117.649 694.953 113.077 697.43 108.618C699.537 101.848 702.06 94.7354 705.892 85.4708C705.858 85.1152 705.899 84.7564 706.011 84.4174C709.109 74.982 710.612 67.2321 709.997 57.1476C710.015 56.82 710.099 56.4994 710.245 56.2056C710.391 55.9118 710.595 55.651 710.846 55.4393C711.18 55.1418 711.587 54.9378 712.025 54.848C712.463 54.7583 712.917 54.7859 713.342 54.928C713.766 55.0702 714.145 55.3219 714.441 55.6577C714.736 55.9934 714.938 56.4013 715.025 56.8401C715.219 59.4929 715.255 62.1549 715.134 64.812C717.742 59.2943 721.602 51.328 723.453 47.5812C723.554 47.1032 723.771 46.6574 724.085 46.2829C725.862 42.6557 727.553 38.9715 728.441 35.0254C728.885 32.7281 729 30.3795 728.783 28.0499C728.105 28.0157 727.427 28.01 726.75 28.0499C724.492 28.2752 722.258 28.6904 720.07 29.2912C719.824 29.8116 719.403 30.2288 718.88 30.47Z" fill="#EADCEA"/>
<path d="M568.421 49.0617C568.421 48.9535 568.421 48.7884 568.421 48.6688C568.404 48.7998 568.415 48.9308 568.421 49.0617Z" fill="#EADCEA"/>
<path d="M600.559 15.1695C600.662 15.0556 600.764 14.9361 600.872 14.8222C602.196 13.4701 603.75 12.3651 605.462 11.5594C603.245 10.2611 601 9.01403 598.726 7.81824C599.531 10.0203 600.12 12.2954 600.485 14.6115C600.514 14.8165 600.531 14.9816 600.559 15.1695Z" fill="#EADCEA"/>
<path d="M687.032 96.603C686.941 97.0472 686.884 97.349 686.975 96.8934C686.981 96.882 687.021 96.6771 687.032 96.603Z" fill="#EADCEA"/>
<path d="M578.984 118.577C580.681 123.463 582.596 128.262 584.729 132.973C584.924 131.231 585.222 129.502 585.623 127.796C585.566 127.631 585.509 127.472 585.458 127.312C582.087 116.701 580.102 105.697 579.553 94.5761C579.127 86.7895 579.52 78.9797 580.726 71.2752C579.239 70.5141 577.8 69.6642 576.416 68.7299C576.138 68.5429 575.899 68.3031 575.714 68.0241C575.529 67.7451 575.401 67.4323 575.337 67.1037C575.272 66.7751 575.274 66.437 575.34 66.1088C575.406 65.7806 575.537 65.4687 575.724 65.1909C575.911 64.9131 576.15 64.6748 576.429 64.4897C576.708 64.3046 577.021 64.1763 577.35 64.112C577.679 64.0478 578.017 64.0489 578.345 64.1153C578.673 64.1817 578.985 64.3121 579.263 64.499L579.365 64.5674C577.087 54.1241 575.197 43.4246 576.473 32.7308C576.857 29.6154 577.46 26.531 578.278 23.5004C577.89 18.478 577.452 13.4101 575.875 8.60417C575.274 6.91336 574.485 5.2955 573.523 3.78113C570.032 12.6414 568.671 22.7943 568.261 32.2866C568.001 38.4237 568.102 44.5708 568.563 50.6962C568.652 51.1401 568.622 51.5996 568.478 52.0286L568.415 52.1482C571.405 71.7592 568.819 88.694 578.984 118.577Z" fill="#EADCEA"/>
<path d="M618.348 54.9211C618.752 54.5225 619.162 54.1296 619.595 53.7822C620.104 53.3668 620.754 53.1642 621.408 53.2167C622.063 53.2692 622.672 53.5729 623.108 54.0641C623.544 54.5553 623.774 55.1961 623.748 55.8525C623.723 56.5089 623.445 57.13 622.972 57.586C622.249 58.2109 621.568 58.8823 620.933 59.5961C619.183 61.6861 617.674 63.9668 616.435 66.395C614.816 69.9137 613.621 73.6125 612.876 77.4134C610.57 89.1151 611.088 102.514 614.664 113.743C614.664 113.817 614.698 113.891 614.709 113.965C618.633 119.83 621.235 126.925 623.547 133.718C624.459 127.602 625.833 121.564 627.658 115.656C627.603 115.519 627.56 115.378 627.527 115.235C626.639 101.54 628.399 87.2588 629.429 73.9855C629.399 73.6512 629.426 73.3142 629.509 72.989C629.745 70.5081 629.827 68.0148 629.754 65.5238C629.613 63.6831 629.264 61.8644 628.712 60.1028C628.518 59.579 628.307 59.0665 628.08 58.5597C627.93 58.2606 627.841 57.9349 627.817 57.6014C627.793 57.2678 627.836 56.9328 627.941 56.6156C628.047 56.2983 628.214 56.005 628.434 55.7523C628.653 55.4997 628.919 55.2927 629.218 55.1431C629.518 54.9936 629.843 54.9044 630.177 54.8807C630.51 54.857 630.845 54.8992 631.163 55.005C631.48 55.1107 631.773 55.2779 632.026 55.497C632.278 55.7162 632.485 55.9829 632.635 56.282C632.886 56.8514 633.113 57.3924 633.318 57.9618C633.793 56.0224 634.15 54.0562 634.389 52.0739C634.715 49.5463 634.829 46.9959 634.73 44.4493C634.523 41.6964 633.988 38.9781 633.136 36.3521C632.109 33.569 630.772 30.9102 629.15 28.4257C626.921 29.8105 624.892 31.4946 623.12 33.4309C622.302 34.4229 621.558 35.4735 620.894 36.5741C620.749 42.7669 619.895 48.9227 618.348 54.9211Z" fill="#EADCEA"/>
<path d="M656.021 179.46C652.833 175.281 649.245 170.509 646.763 165.64C645.134 162.446 642.925 157.196 641.547 153.523C636.877 141.064 633.745 128.218 633.256 114.836C629.898 124.708 627.98 135.012 627.562 145.431C627.642 145.712 627.675 146.005 627.658 146.297L627.522 146.94C627.525 146.955 627.525 146.971 627.522 146.986C627.453 149.161 627.419 151.336 627.419 153.512C627.564 153.755 627.661 154.023 627.704 154.303C630.021 170.583 633.37 189.294 642.378 202.795C644.206 205.482 646.345 207.944 648.75 210.13C650.148 211.342 651.675 212.397 653.305 213.273C655.12 214.083 657 214.738 658.925 215.232C657.997 210.95 657.787 206.548 657.502 202.186C657.012 194.698 656.289 187.193 656.181 179.682C656.123 179.612 656.069 179.538 656.021 179.46Z" fill="#EADCEA"/>
<path d="M787.57 82.3333C787.246 80.2549 786.858 78.1879 786.386 76.1379C785.552 79.0393 784.391 81.8362 782.924 84.4743C784.381 83.7682 786.375 82.8287 787.57 82.3333Z" fill="#EADCEA"/>
<path d="M779.245 80.608C780.489 78.049 781.433 75.3548 782.058 72.5791C782.486 70.4301 782.634 68.2347 782.497 66.0478C782.494 65.7696 782.556 65.4945 782.679 65.2449C781.858 63.5377 780.922 61.8882 779.877 60.3079C778.709 58.638 777.414 57.0599 776.005 55.5874C770.32 56.2296 764.868 58.2145 760.101 61.3785C758.593 62.4109 757.216 63.6233 756.001 64.9886C755.782 65.2147 755.51 65.383 755.21 65.4783C750.13 74.5436 742.523 84.5029 736.168 92.6855C735.996 93.2535 735.619 93.7368 735.109 94.0408C730.235 100.304 724.637 107.445 719.934 114.244C714.701 121.817 709.61 129.539 703.016 137.101C702.773 137.355 702.463 137.536 702.122 137.625C701.439 144.179 699.919 149.77 697.897 156.103C707.429 146.24 728.583 127.534 737.535 119.545C739.387 116.191 740.796 112.609 741.726 108.891C742.011 107.39 742.14 105.864 742.113 104.336C742.133 104.009 742.218 103.689 742.364 103.396C742.509 103.102 742.713 102.841 742.961 102.628C743.211 102.406 743.501 102.235 743.817 102.126C744.132 102.016 744.466 101.97 744.799 101.989C745.132 102.009 745.458 102.094 745.758 102.24C746.059 102.385 746.327 102.589 746.549 102.838C746.991 103.36 747.219 104.029 747.186 104.712C747.218 107.077 746.907 109.434 746.264 111.71C754.156 104.558 761.855 97.6737 770.715 91.6435C771.957 90.6057 773.118 89.4749 774.189 88.2611C776.163 85.9131 777.86 83.3451 779.245 80.608Z" fill="#EADCEA"/>
<path d="M732.837 38.1629C735.767 36.3284 738.944 34.9228 742.272 33.989C737.837 31.25 736.635 30.3162 733.908 29.2343C734.048 32.2492 733.686 35.2665 732.837 38.1629Z" fill="#EADCEA"/>
<path d="M748.229 38.0605C746.097 38.25 743.994 38.6896 741.965 39.3702C739.359 40.3117 736.874 41.5599 734.562 43.0886C732.71 44.3635 731.01 45.846 729.495 47.5073C729.069 48.0236 728.665 48.5589 728.282 49.1131C724.911 56.0943 718.932 68.0978 713.721 79.9817C709.542 89.4053 705.854 99.0397 702.674 108.846C702.681 109.142 702.637 109.436 702.544 109.717L702.253 110.287C702.219 110.361 702.173 110.435 702.139 110.509C700.778 114.87 700.904 114.779 700.682 115.206C701.735 120.033 702.328 124.948 702.452 129.886C705.3 126.305 707.987 122.575 710.601 118.811C718.709 107.138 717.309 108.675 731.533 90.3794C732.979 84.9072 735.046 80.6365 736.128 75.6711C736.54 73.4776 736.702 71.2446 736.612 69.0145C736.633 68.6877 736.719 68.3683 736.865 68.075C737.01 67.7817 737.213 67.5204 737.461 67.3063C737.796 67.0091 738.203 66.8054 738.641 66.7158C739.08 66.6261 739.534 66.6538 739.959 66.7958C740.383 66.9379 740.763 67.1894 741.059 67.5249C741.355 67.8605 741.558 68.2682 741.646 68.7071C741.866 71.9334 741.548 75.1739 740.706 78.2962C744.846 72.6019 749.453 65.8827 752.596 59.6589C754.369 56.0946 755.707 52.3303 756.582 48.4469C756.95 46.5358 757.177 44.6002 757.26 42.6558C753.934 40.7539 752.18 39.8087 749.134 38.0435C748.827 38.0492 748.525 38.0492 748.229 38.0605Z" fill="#EADCEA"/>
<path d="M759.811 55.6159C763.33 53.6386 767.113 52.1718 771.046 51.2598C768.369 49.2896 764.998 47.2055 762.14 45.5029C761.759 48.953 760.977 52.3469 759.811 55.6159Z" fill="#EADCEA"/>
<path d="M730.058 161.973C739.583 153.045 749.421 144.46 759.572 136.218C763.466 133.075 770.533 127.489 774.622 124.562C779.587 121.014 784.028 118.224 789.888 116.3C790.805 109.535 789.985 103.744 789.261 96.9846C788.926 93.8414 788.658 90.6925 788.288 87.5549C783.324 89.7836 778.561 92.4355 774.052 95.4813C773.003 96.3414 771.902 97.1363 770.755 97.8615C770.672 97.9124 770.585 97.9544 770.493 97.9868C761.952 104.251 754.316 111.283 745.917 118.873C748.627 118.304 751.042 117.951 753.951 117.507C754.614 117.382 755.298 117.517 755.865 117.883C756.283 118.162 756.609 118.559 756.802 119.023C756.995 119.488 757.046 119.999 756.949 120.493C756.851 120.986 756.61 121.44 756.254 121.796C755.899 122.153 755.447 122.396 754.954 122.495C749.954 123.264 744.949 124.038 740.148 125.632C739.243 125.957 738.355 126.304 737.472 126.68C737.33 126.742 737.183 126.793 737.034 126.834C728.401 134.527 706.068 154.343 698.444 163.015C696.536 165.217 694.803 167.564 693.262 170.036C693.113 170.279 692.92 170.491 692.692 170.663C685.78 187.979 677.033 204.561 669.346 221.535C669.2 221.857 669.008 222.157 668.777 222.424C668.913 222.577 669.044 222.742 669.181 222.902C682.836 208.894 715.885 175.269 730.058 161.973Z" fill="#EADCEA"/>
<path d="M665.537 226.523C664.039 224.564 662.382 223.722 660.822 220.88C660.581 220.865 660.343 220.824 660.11 220.761C655.993 219.707 651.791 218.631 648.254 216.154C641.512 211.428 636.712 204.327 633.244 196.856C636.265 207.409 640.456 217.59 645.738 227.212C646.086 227.499 646.415 227.809 646.723 228.14L646.951 228.311C647.564 228.524 648.106 228.902 648.516 229.405C649.029 229.718 649.553 230.014 650.088 230.287C653.846 232.081 658.424 233.334 662.661 233.169C663.447 233.105 664.226 232.964 664.984 232.747C665.308 232.616 665.622 232.462 665.924 232.286C666.069 232.172 666.208 232.05 666.339 231.921C666.425 231.808 666.499 231.694 666.573 231.574C666.635 231.421 666.688 231.266 666.732 231.107C666.767 230.816 666.784 230.523 666.784 230.23C666.699 229.567 666.554 228.914 666.351 228.277C666.134 227.669 665.862 227.081 665.537 226.523Z" fill="#EADCEA"/>
<path d="M563.12 33.1919C563.49 22.6575 565.095 10.6426 569.138 1.00793H569.093C567.494 1.59373 565.966 2.35778 564.537 3.28564C563.003 4.38024 561.595 5.64269 560.341 7.04955C558.748 8.96482 557.379 11.0547 556.258 13.2791C555.54 14.7842 554.911 16.33 554.373 17.9085C558.035 23.785 560.5 27.1674 563.12 33.1919Z" fill="#EADCEA"/>
<path d="M749.863 178.811L749.612 179.102L749.863 178.811Z" fill="#EADCEA"/>
<path d="M638.831 238.641C640.18 236.688 641.678 234.826 643.141 232.975C642.851 232.474 642.572 231.967 642.275 231.455C636.86 228.101 631.775 222.236 626.861 217.908C625.591 216.82 624.31 215.761 623.069 214.645C619.279 211.244 615.743 207.571 612.489 203.655C604.756 194.345 596.511 181.385 591.54 169.182C588.322 161.301 585.982 153.46 584.991 145.078C584.94 145.004 584.895 144.926 584.855 144.845C579.516 134.748 575.194 124.147 571.951 113.196C567.965 99.7748 566.399 89.0696 565.443 75.4375C564.6 63.4055 564.184 51.3963 560.198 39.5637C557.989 33.3569 555.802 29.6158 552.591 24.5707C551.689 29.4257 551.409 34.376 551.759 39.3017C552.471 49.1357 554.869 58.3889 557.374 67.8983C567.402 105.97 573.227 130.182 580.601 151.78C587.144 170.731 595.451 189.209 606.675 205.876C614.937 217.982 625.381 229.792 637.874 237.468C638.317 237.738 638.655 238.152 638.831 238.641Z" fill="#EADCEA"/>
<path d="M639.018 100.185C638.281 105.829 638.091 111.53 638.449 117.211C639.417 131.287 643.369 145.619 649.188 158.779C651.058 163.285 653.475 167.544 656.386 171.46C656.502 169.271 656.73 167.089 657.069 164.923C658.521 156.942 659.345 148.86 659.535 140.751C660.047 125.166 659.125 108.914 660.452 93.2947C661.249 83.8081 663.259 75.318 662.797 66.3894C662.671 64.6942 662.435 63.009 662.091 61.3442C659.461 65.0911 656.967 68.9404 654.495 72.7954C648.613 82.0087 643.898 89.4625 639.018 100.185Z" fill="#EADCEA"/>
<path d="M779.815 127.096C773.773 131.241 763.131 139.805 757.231 144.72C759.319 144.365 761.426 144.128 763.541 144.008C763.867 144.026 764.187 144.11 764.481 144.255C764.774 144.399 765.036 144.602 765.249 144.851C765.546 145.185 765.75 145.592 765.839 146.031C765.929 146.47 765.901 146.924 765.759 147.348C765.617 147.773 765.366 148.152 765.03 148.449C764.695 148.745 764.287 148.948 763.848 149.036C760.136 149.228 756.463 149.886 752.915 150.995C751.018 151.66 749.205 152.543 747.511 153.625C746.987 153.996 746.486 154.388 745.996 154.81C745.662 155.095 745.26 155.291 744.829 155.379C738.941 160.599 733.169 165.942 727.513 171.409C717.998 180.611 699.452 199.311 689.333 209.56C690.079 209.56 690.825 209.56 691.571 209.498C702.959 208.66 715.099 204.054 725.298 198.969C728.868 197.192 732.285 195.325 735.445 193.423C736.356 192.853 737.279 192.329 738.178 191.76C752.266 176.539 759.315 167.759 768.99 154.918C774.975 146.946 780.766 138.781 785.247 129.863C786.502 127.397 787.583 124.845 788.481 122.227C785.452 123.587 782.552 125.216 779.815 127.096Z" fill="#EADCEA"/>
<path d="M749.436 179.301C749.555 179.164 749.681 179.016 749.567 179.153L749.436 179.301Z" fill="#EADCEA"/>
<path d="M648.454 41.8813C647.884 42.1888 647.315 42.5077 646.745 42.8665C645.449 43.7996 644.254 44.8665 643.181 46.0495C642.105 47.3384 641.171 48.7397 640.396 50.2291C640.042 50.9926 639.732 51.7759 639.468 52.5752C639.218 54.5568 638.847 56.527 638.42 58.4858C639.559 57.2843 640.778 56.1227 641.991 54.9725C642.237 54.733 642.529 54.5459 642.85 54.4225C643.171 54.2991 643.513 54.2418 643.856 54.2542C644.2 54.2666 644.537 54.3484 644.848 54.4946C645.159 54.6409 645.437 54.8485 645.665 55.1051C645.894 55.3617 646.068 55.6619 646.178 55.9876C646.287 56.3133 646.329 56.6577 646.302 57.0002C646.275 57.3427 646.178 57.6761 646.019 57.9804C645.859 58.2846 645.639 58.5534 645.373 58.7705C643.557 60.4788 641.757 62.2326 640.095 64.1004C638.516 65.9245 637.149 67.9206 636.017 70.0509C635.439 71.2762 634.956 72.544 634.571 73.8432C633.814 83.7 632.783 92.8678 632.481 102.514C637.339 91.057 642.452 82.2935 648.932 72.1008C652.44 66.5887 655.987 61.0596 659.848 55.7753C656.699 50.3715 655.247 47.4446 651.739 44.2957C650.688 43.4323 649.592 42.6263 648.454 41.8813Z" fill="#EADCEA"/>
<path d="M620.398 28.8698C621.877 27.3785 623.504 26.0428 625.255 24.8838C622.776 23.0123 620.263 21.1882 617.716 19.4116C619.105 22.4027 620.01 25.5951 620.398 28.8698Z" fill="#EADCEA"/>
<path d="M582.104 12.5729C583.594 9.04379 585.566 5.73815 587.964 2.75033C585.68 1.77834 583.313 1.01597 580.891 0.472624C579.618 0.233552 578.33 0.0756924 577.036 0C579.809 3.63863 581.261 8.04599 582.104 12.5729Z" fill="#EADCEA"/>
<path d="M666.402 85.7613C665.673 91.0493 665.211 96.3707 665.018 101.705C664.307 118.737 665.411 134.772 664.033 151.063C666.48 147.519 668.686 143.815 670.639 139.976C673.393 134.32 675.44 128.345 676.731 122.188C679.618 108.014 682.391 93.5909 685.552 79.2357C691.092 54.0386 693.427 48.2988 694.725 42.223C695.292 39.5149 695.531 36.7485 695.437 33.9834C690.816 34.9561 686.436 36.8396 682.551 39.5239C676.082 44.011 670.678 49.8932 665.895 56.1398C669.272 65.8143 667.735 75.7451 666.402 85.7613Z" fill="#EADCEA"/>
<path d="M707.458 31.8594C705.112 32.2124 702.76 32.5541 700.42 32.9641C700.587 34.8935 700.571 36.8343 700.374 38.7608C702.53 36.259 704.901 33.9498 707.458 31.8594Z" fill="#EADCEA"/>
<path d="M639.616 42.4337C640.788 41.0877 642.128 39.8974 643.602 38.8919C641.951 37.9011 640.311 36.8875 638.756 35.7544C638.54 35.5949 638.329 35.4241 638.119 35.2646C638.87 37.5948 639.372 39.9979 639.616 42.4337Z" fill="#EADCEA"/>
<path d="M749.612 179.101C749.697 178.999 749.652 179.05 749.567 179.152L749.612 179.101Z" fill="#EADCEA"/>
<path d="M601.015 121.032C600.521 121.129 600.067 121.371 599.71 121.727C599.354 122.083 599.111 122.536 599.012 123.03C598.914 123.524 598.964 124.036 599.156 124.501C599.349 124.967 599.675 125.365 600.093 125.645C600.512 125.924 601.005 126.074 601.508 126.074C602.012 126.074 602.504 125.925 602.923 125.645C603.342 125.365 603.668 124.967 603.86 124.502C604.053 124.036 604.103 123.524 604.004 123.03C603.865 122.373 603.475 121.796 602.917 121.422C602.358 121.049 601.675 120.909 601.015 121.032Z" fill="#EADCEA"/>
<path d="M687.038 96.5862C687.038 96.6773 687.038 96.6602 687.004 96.7684L687.038 96.5862Z" fill="#EADCEA"/>
<path d="M687.004 96.7683C687.004 96.8645 686.964 96.9495 687.004 96.8532V96.7683Z" fill="#EADCEA"/>








































































</svg>