<svg width="531" height="594" viewBox="0 0 531 594" fill="none" xmlns="http://www.w3.org/2000/svg">
<path d="M8.20043 99.9223C2.15511 97.8431 -4.06967 96.3279 -10.3943 95.396C-15.1803 94.6366 -16.3893 94.3369 -21.2953 94.6466C-29.5885 95.1662 -39.9499 97.2445 -47.194 100.252C-48.7944 100.929 -50.3156 101.78 -51.7302 102.79C-52.1045 103.114 -52.4551 103.465 -52.7794 103.839L-52.9992 104.229C-52.9945 104.259 -52.9945 104.289 -52.9992 104.319C-52.9992 104.379 -52.9992 104.439 -52.9992 104.489C-52.8878 104.692 -52.7643 104.889 -52.6295 105.078C-52.1054 105.652 -51.5302 106.177 -50.9109 106.647C-49.5084 107.625 -48.0083 108.455 -46.4346 109.125C-44.7943 109.686 -43.0998 110.074 -41.3788 110.284C-26.7508 111.573 -7.71647 103.22 8.20043 99.9223Z" fill="#EADCEA"/>
<path d="M446.59 274.658C445.59 280.584 444.811 288.987 445.59 294.762C445.665 295.22 445.766 295.674 445.89 296.121C451.126 291.455 457.691 278.785 460.878 273.659C459.039 271.601 457.211 269.543 455.243 267.604C447.32 259.98 437.945 254.026 427.675 250.099C420.265 247.359 412.547 245.537 404.694 244.673C405.371 247.483 406.283 250.23 407.422 252.886C411.938 263.038 418.793 272.051 425.647 280.913C427.972 283.624 429.9 286.652 431.372 289.906C432.567 288.803 433.704 287.639 434.779 286.419C435.388 285.47 435.907 284.467 436.328 283.421C438.077 278.515 438.496 273.999 440.325 268.953C440.435 268.663 440.545 268.364 440.665 268.074C440.888 267.639 441.199 267.256 441.58 266.95C441.96 266.644 442.401 266.421 442.873 266.295C443.485 266.122 444.133 266.111 444.751 266.265C445.369 266.418 445.936 266.731 446.397 267.171C446.857 267.611 447.194 268.164 447.375 268.774C447.556 269.385 447.575 270.032 447.429 270.652C447.077 271.971 446.797 273.309 446.59 274.658Z" fill="#EADCEA"/>
<path d="M87.5052 234.561C85.2622 235.545 83.1372 236.779 81.1704 238.238C80.0695 239.156 79.0652 240.184 78.1729 241.306C77.5603 242.208 77.0382 243.169 76.6141 244.173C76.2678 245.179 76.0234 246.217 75.8847 247.271C75.7897 248.64 75.8299 250.016 76.0046 251.377C76.4457 253.738 77.1426 256.043 78.0829 258.252C79.2448 260.974 80.713 263.555 82.4593 265.945C83.5703 267.258 84.8161 268.45 86.1763 269.503C87.8849 270.677 89.7178 271.658 91.6418 272.43C94.6165 273.472 97.7008 274.169 100.834 274.508C122.736 276.587 150.983 266.305 171.666 258.711C170.357 249.349 169.438 240.317 168.948 231.024C149.174 228.756 123.895 227.307 104.092 230.195C98.4069 230.976 92.8377 232.442 87.5052 234.561Z" fill="#EADCEA"/>
<path d="M29.4634 75.5223C28.9734 75.4623 28.5734 75.4223 29.0634 75.4723L29.4634 75.5223Z" fill="#EADCEA"/>
<path d="M136.385 209.742C147.376 207.624 158.207 204.956 169.088 202.388V201.968C168.389 201.469 167.16 200.14 163.523 197.442C148.535 186.681 129.191 180.366 111.056 178.348C97.5669 177.009 83.7683 177.828 71.2086 183.104C68.0672 184.462 65.0933 186.179 62.3459 188.22C60.8032 189.497 59.4029 190.938 58.1693 192.516C57.378 193.673 56.7083 194.909 56.171 196.203C55.8383 197.178 55.5941 198.182 55.4416 199.201C55.2474 201.036 55.5295 202.891 56.2609 204.586C56.7344 205.573 57.2998 206.513 57.9495 207.394C58.9169 208.5 59.9949 209.505 61.1669 210.391C62.9548 211.6 64.8717 212.605 66.8822 213.389C70.3267 214.582 73.8974 215.373 77.5234 215.747C88.2346 216.746 100.165 215.497 110.816 213.938C115.072 213.369 131.579 210.661 136.385 209.742Z" fill="#EADCEA"/>
<path d="M32.92 162.431C32.5974 161.785 32.2232 161.167 31.8009 160.582C31.0894 159.767 30.2996 159.025 29.4429 158.364C28.0439 157.433 26.5542 156.646 24.9965 156.016C24.2221 155.779 23.4699 155.475 22.7484 155.107C21.8591 155.157 20.9798 155.227 20.1006 155.347C18.3678 155.64 16.6701 156.112 15.0347 156.755C13.7683 157.334 12.566 158.044 11.4477 158.874C10.6236 159.578 9.87065 160.361 9.19955 161.212C8.69628 161.959 8.2647 162.752 7.9106 163.58C7.67986 164.263 7.50935 164.965 7.40103 165.678C7.35111 166.287 7.35111 166.898 7.40103 167.507C7.50844 168.055 7.66219 168.593 7.86064 169.115C8.11213 169.615 8.39931 170.096 8.71993 170.554C9.1383 171.016 9.59269 171.443 10.0788 171.833C10.7531 172.275 11.4654 172.656 12.2071 172.972C13.3351 173.345 14.4961 173.609 15.6742 173.761C19.6337 174.092 23.6153 173.482 27.2947 171.983C28.4079 171.467 29.4686 170.844 30.462 170.124C31.0786 169.589 31.6501 169.005 32.1706 168.376C32.4997 167.87 32.7871 167.339 33.0299 166.787C33.1783 166.337 33.2919 165.876 33.3697 165.408C33.3996 164.936 33.3996 164.462 33.3697 163.989C33.2548 163.46 33.1045 162.94 32.92 162.431Z" fill="#EADCEA"/>
<path d="M227.76 82.8064C227.15 77.8105 227.57 76.012 227.18 72.7347C227.091 72.2676 226.971 71.807 226.82 71.3558C226.706 71.1391 226.579 70.9289 226.441 70.7263C226.219 70.488 225.982 70.2644 225.731 70.0569C225.041 69.6294 224.316 69.2617 223.563 68.9578C222.27 68.4702 220.931 68.1121 219.566 67.8887C211.903 67.3391 199.263 71.3758 192.149 74.3933C189.47 75.4906 186.925 76.892 184.565 78.5699C183.102 79.8587 181.727 81.244 180.449 82.7165C180.185 83.127 179.948 83.5543 179.739 83.9954C179.628 84.3724 179.541 84.7562 179.479 85.1445C179.454 85.5838 179.454 86.0241 179.479 86.4634C195.526 85.2944 211.653 84.0154 227.76 82.8064Z" fill="#EADCEA"/>
<path d="M221.235 44.328C220.086 43.3289 218.917 42.3896 217.698 41.4904C214.346 39.0623 210.713 37.0493 206.877 35.4953C204.328 34.5617 201.684 33.9117 198.993 33.5569C197.024 33.372 195.041 33.4021 193.078 33.6468C191.385 33.945 189.728 34.4171 188.132 35.0557C186.556 35.7913 185.062 36.6923 183.676 37.7435C181.999 39.1502 180.488 40.7424 179.17 42.4896C178.359 43.6452 177.615 44.8462 176.941 46.0866C191.641 44.3871 206.447 43.7993 221.235 44.328Z" fill="#EADCEA"/>
<path d="M176.172 180.966C180.891 179.814 185.791 179.607 190.59 180.356C191.068 180.46 191.518 180.664 191.912 180.953C192.306 181.242 192.636 181.611 192.878 182.035C193.369 182.866 193.511 183.858 193.274 184.794C193.036 185.73 192.438 186.534 191.609 187.031C190.783 187.493 189.817 187.638 188.892 187.44C186.079 187.107 183.235 187.134 180.429 187.52C179.579 187.66 178.74 187.84 177.901 188.05C171.776 229.586 180.419 278.665 192.459 318.842C196.955 303.585 209.675 289.756 221.895 279.475C221.642 277.909 221.518 276.325 221.525 274.738C221.551 269.181 223.11 263.739 226.031 259.011C228.344 255.335 231.099 251.956 234.234 248.95C228.629 249.249 223.014 249.339 217.398 249.189C216.806 249.297 216.196 249.245 215.63 249.04C215.126 248.912 214.656 248.678 214.252 248.351C213.848 248.025 213.52 247.616 213.289 247.15C213.058 246.685 212.931 246.176 212.916 245.657C212.901 245.138 212.998 244.621 213.202 244.144C213.586 237.472 215.925 231.061 219.926 225.709C217.708 225.339 215.5 224.879 213.312 224.35C212.498 224.586 211.628 224.53 210.852 224.19C210.075 223.851 209.443 223.249 209.065 222.491C208.517 221.829 208.226 220.992 208.247 220.133C208.267 219.274 208.596 218.451 209.175 217.815C211.493 206.515 216.799 196.473 224.013 187.47C222.355 184.528 221.209 181.325 220.626 177.998C220.133 175.492 219.945 172.936 220.066 170.384C213.951 169.325 208.815 164.809 204.529 160.522C203.892 159.896 203.504 159.061 203.434 158.17C203.364 157.28 203.618 156.394 204.149 155.676C204.32 155.199 204.585 154.761 204.929 154.387C210.004 148.832 215.67 143.746 222.344 140.199C245.485 127.889 277.479 128.039 296.283 139.2C296.958 137.885 297.861 136.701 298.951 135.703C300.918 133.982 303.106 132.53 305.456 131.386C308.343 129.928 311.331 128.669 314.288 127.39C316.312 126.449 318.383 125.615 320.493 124.892C323.729 123.873 327.094 123.324 330.485 123.263C343.714 123.263 353.956 132.406 363.518 141.528C390.436 167.167 412.707 191.657 435.569 222.122C440.565 228.726 445.301 234.921 448.558 242.775C450.706 247.921 450.826 250.069 451.456 254.925C458.02 259.761 460.598 262.548 465.384 267.864C467.2 263.327 469.452 258.977 472.109 254.875C473.378 252.921 474.841 251.1 476.475 249.439C474.336 243.959 471.853 238.62 469.041 233.452C437.277 176.339 385.979 121.455 336.27 79.579C326.293 70.9466 315.86 62.855 305.016 55.339C305.805 63.5922 305.885 71.2159 307.464 78.7298C307.707 79.6447 307.6 80.6171 307.164 81.4575C306.937 81.8797 306.629 82.2529 306.257 82.5557C305.885 82.8586 305.457 83.0852 304.998 83.2225C304.539 83.3599 304.057 83.4053 303.58 83.3562C303.103 83.3071 302.64 83.1644 302.218 82.9363C301.786 82.7103 301.405 82.3976 301.099 82.0176C300.793 81.6377 300.569 81.1987 300.44 80.7281C298.152 69.7971 298.591 60.6746 297.113 50.1033C286.334 43.1811 275.143 36.9246 263.6 31.3687C252.02 25.8133 245.745 23.5052 237.821 20.3778C218.697 12.824 199.973 3.68151 179.36 1.28348C173.427 0.670442 167.443 0.767725 161.534 1.57325C156.644 2.33764 151.861 3.67924 147.286 5.56997C143.796 7.12193 140.5 9.07697 137.464 11.3952C135.028 13.3999 132.831 15.6798 130.919 18.1896C129.326 20.4791 127.986 22.9348 126.923 25.5135C126.011 28.078 125.384 30.7352 125.054 33.437C124.772 37.0732 124.896 40.7294 125.424 44.3381C126.993 53.9002 130.56 62.9228 133.657 72.0652C146.906 111.073 147.975 149.182 176.172 180.966ZM233.125 107.816C231.422 112.126 229.332 116.273 226.88 120.206C225.074 123.119 222.894 125.782 220.396 128.129C217.782 130.599 214.701 132.522 211.333 133.784C209.67 134.41 207.945 134.859 206.187 135.123C204.885 135.356 203.564 135.47 202.241 135.463C194.837 135.253 184.815 132.086 180.179 126.54C178.178 124.353 177.045 121.511 176.992 118.547C176.959 116.328 177.607 114.151 178.85 112.312C179.474 111.375 180.22 110.525 181.068 109.784C181.924 109.048 182.836 108.38 183.796 107.786C189.941 104.059 198.784 102.44 205.828 101.561C213.611 100.562 224.952 100.012 232.426 101.001C232.903 101.108 233.352 101.311 233.746 101.6C234.14 101.889 234.47 102.257 234.714 102.68C234.966 103.119 235.124 103.606 235.178 104.11C235.232 104.614 235.181 105.123 235.028 105.606C234.875 106.089 234.623 106.534 234.289 106.915C233.954 107.295 233.545 107.602 233.085 107.816H233.125ZM233.035 67.439C235.493 71.9953 234.194 75.8021 235.134 82.9762C235.284 83.8255 235.443 84.6649 235.643 85.4942C235.834 86.1469 235.838 86.84 235.653 87.4946C235.469 88.1491 235.105 88.7387 234.601 89.1961C234.098 89.6535 233.477 89.9601 232.808 90.0812C232.138 90.2022 231.449 90.1327 230.817 89.8806H230.557C213.392 91.1595 196.236 92.5284 179.07 93.7774C178.513 93.8029 177.958 93.6925 177.453 93.4557C176.948 93.219 176.509 92.863 176.172 92.4185C175.549 92.4322 174.933 92.2842 174.384 91.9888C173.949 91.7659 173.566 91.4541 173.26 91.0737C172.953 90.6933 172.73 90.2527 172.605 89.7806C172.251 88.2485 172.11 86.6751 172.185 85.1045C172.226 84.3352 172.326 83.5701 172.485 82.8164C173.315 79.619 174.973 77.6007 177.421 75.2526C180.14 72.4765 183.383 70.2688 186.963 68.7579C195.368 64.8119 204.317 62.1478 213.511 60.8545C215.979 60.5066 218.48 60.473 220.955 60.7545C222.291 60.9571 223.603 61.2918 224.872 61.7537C226.263 62.1784 227.604 62.7547 228.869 63.4723C229.966 64.103 230.954 64.906 231.796 65.8504C232.243 66.3426 232.645 66.8743 232.995 67.439H233.035ZM168.518 46.856C171.246 40.3513 175.513 34.2364 181.448 30.4395C186.24 27.3977 191.855 25.911 197.525 26.183C200.453 26.3067 203.355 26.7865 206.167 27.6118C209.153 28.4918 212.044 29.6632 214.8 31.1089C220.582 34.2171 225.855 38.1896 230.438 42.8892C231.115 43.5545 231.51 44.4557 231.54 45.4051C231.57 46.3544 231.232 47.2786 230.597 47.9851C230.626 48.4854 230.552 48.9863 230.381 49.4571C230.209 49.9279 229.943 50.3587 229.598 50.7228C229.269 51.0722 228.873 51.3515 228.434 51.5438C227.994 51.7361 227.52 51.8375 227.04 51.8419C209.191 50.908 191.294 51.5768 173.564 53.8402C172.897 53.8597 172.237 53.6935 171.658 53.36C171.08 53.0266 170.605 52.5391 170.287 51.9518C169.789 51.7362 169.346 51.4128 168.988 51.0051C168.63 50.5973 168.368 50.1153 168.219 49.5937C167.969 48.68 168.061 47.7064 168.478 46.856H168.518Z" fill="#EADCEA"/>
<path d="M28.6036 128.299C15.6118 125.372 2.20005 124.8 -10.9938 126.61C-21.3853 128.279 -30.228 132.216 -35.5036 136.242C-36.2466 136.847 -36.9354 137.516 -37.562 138.241L-37.2322 138.401C-35.8777 138.818 -34.4855 139.103 -33.0756 139.25C-25.1722 139.969 -12.013 138.76 -4.04954 137.601C9.86901 135.503 20.9099 131.956 28.6036 128.299Z" fill="#EADCEA"/>
<path d="M146.387 285.779C145.967 285.839 145.607 285.899 146.017 285.829L146.387 285.779Z" fill="#EADCEA"/>
<path d="M194.057 413.304C200.052 405.97 204.749 401.384 207.606 394.46C208.193 392.819 208.609 391.121 208.845 389.394C208.99 387.519 208.94 385.634 208.695 383.769C208.605 383.289 208.505 382.769 208.416 382.31C206.028 386.706 204.359 390.673 201.811 394.3C200.752 395.848 199.584 397.317 198.314 398.696C189.641 407.979 177.961 413.224 166.34 418.25C166.1 418.387 165.845 418.497 165.581 418.58L160.695 420.698C144.778 427.693 143.349 429.691 131.309 437.305C131.278 437.369 131.251 437.436 131.229 437.504C127.632 445.618 124.515 451.443 123.785 456.739C123.715 457.523 123.715 458.312 123.785 459.097C123.905 459.696 124.075 460.285 124.295 460.855C124.659 461.583 125.091 462.276 125.584 462.924C126.741 464.249 128.041 465.442 129.461 466.481C134.682 469.948 140.247 472.867 146.067 475.193C149.077 476.322 152.204 477.11 155.389 477.541C157.616 477.725 159.856 477.678 162.074 477.402C163.948 477.06 165.793 476.569 167.589 475.933C170.083 452.914 179.287 431.135 194.057 413.304Z" fill="#EADCEA"/>
<path d="M279.547 356.591C280.064 356.719 280.545 356.961 280.956 357.3C290.888 352.145 300.939 342.633 307.934 334.189C282.684 328.754 252.979 336.917 227.08 341.344V341.483C225.801 344.981 224.682 348.538 223.703 352.125C241.878 350.016 261.792 352.315 279.547 356.591Z" fill="#EADCEA"/>
<path d="M122.316 322.039C118.56 323.648 115.102 325.037 110.326 326.885C111.535 334.929 110.776 337.297 111.675 339.875C111.775 340.055 111.875 340.234 111.985 340.404C112.182 340.608 112.388 340.801 112.604 340.984C113.378 341.467 114.194 341.878 115.042 342.213C118.614 343.42 122.296 344.277 126.033 344.771C129.861 345.102 133.713 344.988 137.514 344.431C146.457 342.972 154.93 339.655 163.353 336.438C174.344 332.181 176.162 331.731 183.027 329.843C184.655 329.393 186.284 329.024 187.932 328.724C182.872 312.93 178.702 296.865 175.443 280.604C156.049 286.319 127.342 284.87 111.186 297.23C109.2 298.882 107.407 300.752 105.84 302.805C105.203 303.698 104.658 304.652 104.211 305.653C104.072 306.088 103.962 306.532 103.882 306.982C103.862 307.375 103.862 307.768 103.882 308.161C104.611 311.588 106.879 314.336 108.628 319.761C112.278 318.382 115.892 316.934 119.469 315.415C119.922 315.278 120.398 315.234 120.868 315.286C121.339 315.337 121.794 315.483 122.207 315.715C122.769 316.024 123.239 316.477 123.57 317.027C123.901 317.576 124.081 318.204 124.093 318.845C124.104 319.487 123.945 320.12 123.634 320.681C123.322 321.242 122.867 321.71 122.316 322.039Z" fill="#EADCEA"/>
<path d="M319.144 133.195C314.708 135.113 308.233 137.751 304.676 140.399C304.116 140.876 303.598 141.401 303.128 141.967C302.616 142.668 302.302 143.493 302.218 144.356C302.18 145.096 302.207 145.838 302.298 146.574C302.739 148.708 303.409 150.788 304.297 152.779C312.75 172.003 329.556 190.937 345.133 204.846C347.711 207.144 350.309 209.442 353.077 211.51C367.385 221.702 384.371 225.219 399.119 234.981C399.914 235.441 400.522 236.166 400.837 237.029C410.641 237.589 420.307 239.61 429.514 243.024C434.242 244.76 438.809 246.906 443.162 249.439C442.735 247.881 442.208 246.353 441.584 244.863C438.856 238.818 434.949 233.402 430.992 228.107C426.876 222.621 422.729 217.116 418.453 211.77C401.435 190.547 383.079 170.433 363.498 151.55C354.715 143.107 347.511 135.653 338.648 132.066C336.763 131.385 334.81 130.91 332.823 130.647C330.932 130.499 329.03 130.545 327.148 130.787C324.396 131.279 321.711 132.087 319.144 133.195Z" fill="#EADCEA"/>
<path d="M227.59 175.66C227.951 177.868 228.575 180.025 229.448 182.085C255.107 177.638 282.265 178.168 305.626 170.564C302.128 165.2 299.153 159.511 296.743 153.578C295.885 151.47 295.304 149.261 295.014 147.003C292.159 145.102 289.107 143.514 285.912 142.267C280.839 140.441 275.566 139.227 270.205 138.65C252.939 136.972 232.526 140.579 218.767 151.24C216.376 153.219 214.107 155.342 211.973 157.595C213.072 158.594 214.201 159.593 215.4 160.482C216.651 161.373 217.99 162.133 219.397 162.751C220.179 163.021 220.985 163.218 221.805 163.34C222.548 163.38 223.293 163.36 224.033 163.28C225.177 163.052 226.298 162.718 227.38 162.281C231.716 160.283 236.373 156.725 240.279 153.748C240.817 153.39 241.453 153.212 242.098 153.238C242.816 153.231 243.521 153.436 244.123 153.827C244.726 154.217 245.2 154.777 245.487 155.436C245.774 156.094 245.86 156.823 245.735 157.53C245.61 158.237 245.28 158.892 244.786 159.413C239.79 163.36 233.365 168.276 227.38 169.985C227.283 171.879 227.353 173.778 227.59 175.66Z" fill="#EADCEA"/>
<path d="M272.083 369.92C253.459 373.257 233.385 381.271 216.129 389.154C216.037 390.602 215.823 392.039 215.49 393.451C212.972 403.652 205.798 410.147 198.104 419.869C198.639 420.307 199.018 420.906 199.183 421.577C199.959 424.943 201.022 428.235 202.361 431.419C202.8 432.419 203.26 433.348 203.749 434.297C226.78 411.546 248.992 391.592 272.083 369.92Z" fill="#EADCEA"/>
<path d="M94.1197 367.302C99.2426 371.22 104.826 374.495 110.746 377.054C113.957 378.257 117.32 379.011 120.738 379.292C121.246 379.31 121.749 379.407 122.227 379.582L122.986 379.252C125.511 378.143 127.887 376.723 130.06 375.026C133.226 372.349 136.061 369.304 138.503 365.953C139.322 364.804 140.112 363.625 140.871 362.436C141.359 361.585 142.152 360.949 143.089 360.658C144.946 360.553 146.799 360.921 148.475 361.727C150.204 363.905 154.88 370.24 156.518 372.458L156.858 372.518C158.017 372.758 159.186 372.938 160.365 373.087C164.027 373.414 167.715 373.32 171.356 372.808C176.107 372.023 180.748 370.682 185.185 368.811C190.251 366.568 195.022 363.712 199.393 360.308C199.773 359.998 200.142 359.668 200.512 359.359C199.253 356.361 196.515 350.366 194.867 346.539C194.49 346.202 194.191 345.787 193.989 345.323C193.787 344.859 193.688 344.357 193.698 343.852C192.699 341.503 191.599 338.966 190.341 335.718C188.697 335.961 187.072 336.312 185.475 336.767C182.067 337.707 178.86 338.496 173.115 340.564C156.788 346.429 139.312 355.332 120.708 351.375C117.643 350.768 114.634 349.902 111.715 348.787C110.793 348.439 109.909 347.997 109.077 347.469C108.246 346.962 107.484 346.351 106.809 345.65C106.154 344.959 105.605 344.175 105.181 343.322C104.781 342.513 104.486 341.657 104.301 340.774C103.592 337.117 103.942 333.92 103.202 328.584C102.708 325.369 101.846 322.221 100.634 319.202C99.6352 316.894 98.3662 314.656 97.4769 312.287C96.4715 309.821 96.2756 307.099 96.9174 304.514C98.0863 301.001 100.072 297.817 102.713 295.222C104.89 292.897 107.354 290.858 110.047 289.157C128.032 277.856 155.639 279.075 173.994 273.439C173.554 270.988 173.141 268.537 172.755 266.086C149.234 274.708 109.027 289.236 86.2462 278.076C81.6765 275.862 77.8047 272.433 75.0554 268.164C72.6106 264.27 70.7238 260.052 69.45 255.634C67.5815 248.31 68.4508 241.576 73.3368 235.77C89.3836 216.846 143.989 221.033 168.658 223.78C168.538 219.204 168.538 214.628 168.658 210.052C157.458 212.709 146.277 215.437 134.946 217.466C132.548 217.895 117.82 220.333 114.373 220.863C98.4961 223.311 75.8847 226.218 61.4166 219.114C58.3358 217.624 55.5472 215.594 53.1834 213.119C51.0536 210.811 49.5023 208.03 48.6571 205.006C47.9064 202.089 47.8789 199.033 48.5772 196.103C50.2858 189.329 55.2917 183.923 61.0869 180.276C90.6426 161.701 142.6 171.873 169.857 193.265C170.127 190.867 170.447 188.459 170.807 186.071C163.158 177.403 156.789 167.686 151.892 157.215C142.7 137.531 138.903 118.887 133.517 97.9139C132.826 97.9546 132.136 97.8097 131.519 97.4943C129.72 96.8648 125.204 95.4959 122.656 94.6566C103.49 88.5162 83.9049 83.7678 64.0544 80.4483C69.5191 90.8819 73.3346 102.099 75.3651 113.701C75.5199 114.307 75.5199 114.943 75.3651 115.549C75.2452 115.849 75.1353 116.139 75.0254 116.439C74.5624 117.287 73.783 117.919 72.8568 118.196C71.9305 118.473 70.9323 118.373 70.0795 117.917C69.6457 117.693 69.2634 117.381 68.9571 117.001C68.6509 116.621 68.4274 116.181 68.3009 115.709C66.1539 102.701 61.5453 90.2212 54.7221 78.9395C24.8767 74.3733 -5.16857 72.3949 -35.6635 71.5856C-61.2025 70.9062 -102.498 69.9569 -122.672 85.5141C-124.596 87.0815 -126.33 88.8689 -127.838 90.8397C-129.001 92.4968 -129.973 94.28 -130.735 96.1554C-131.438 98.1279 -131.92 100.172 -132.174 102.25C-132.339 104.212 -132.339 106.184 -132.174 108.145C-131.977 108.83 -131.903 109.544 -131.954 110.254C-131.954 110.584 -131.954 110.454 -131.784 111.363C-131.625 111.936 -131.604 112.539 -131.724 113.121C-131.22 116.258 -130.334 119.322 -129.087 122.244C-126.71 127.379 -123.71 132.201 -120.154 136.602C-105.616 154.587 -81.6256 171.453 -61.4423 182.744C-58.7145 184.273 -55.9468 185.742 -53.1691 187.17C-52.6902 187.011 -52.1831 186.953 -51.6807 187.002C-51.1782 187.05 -50.6913 187.203 -50.2515 187.45C-46.3214 184.786 -42.3013 182.258 -38.1914 179.866C-37.78 179.621 -37.3244 179.459 -36.8504 179.39C-36.3765 179.321 -35.8936 179.345 -35.4292 179.463C-34.9648 179.58 -34.5281 179.788 -34.144 180.074C-33.7599 180.36 -33.4359 180.719 -33.1905 181.13C-32.9451 181.542 -32.7832 181.997 -32.7139 182.471C-32.6446 182.945 -32.6694 183.428 -32.7868 183.893C-32.9041 184.357 -33.1118 184.794 -33.398 185.178C-33.6841 185.562 -34.0431 185.886 -34.4545 186.131C-38.8242 188.656 -43.084 191.35 -47.2339 194.215C-46.9642 195.014 -46.6744 195.803 -46.3547 196.593C-44.7409 200.002 -42.7249 203.205 -40.3496 206.135C-31.9765 216.406 -20.436 223.78 -10.0446 231.174C-9.46394 231.487 -8.97752 231.949 -8.63572 232.513C-8.18609 233.582 -8.48585 232.953 -7.88634 233.782C27.0649 281.573 44.5805 330.892 94.1197 367.302ZM-53.5088 113.641C-55.5675 112.446 -57.365 110.849 -58.7944 108.945C-59.8263 107.523 -60.3442 105.793 -60.2632 104.039C-60.1488 102.032 -59.3194 100.132 -57.9252 98.6833C-55.4172 95.8756 -51.2606 93.9872 -47.7335 92.6882C-37.472 88.8314 -22.3844 86.823 -15.8298 87.3426C-13.2419 87.5524 -7.58659 88.4817 -5.03868 88.9513C3.66415 90.59 12.2571 93.0679 20.0906 97.2844C20.7988 97.8068 21.3563 98.507 21.707 99.314C22.0576 100.121 22.1889 101.006 22.0875 101.881C21.9861 102.755 21.6556 103.586 21.1295 104.292C20.6034 104.997 19.9004 105.551 19.0914 105.897C6.89149 105.947 -11.5433 114.121 -27.8699 116.788C-31.0177 117.36 -34.2041 117.694 -37.402 117.788C-43.3571 117.788 -48.4529 116.868 -53.5088 113.641ZM-8.48585 145.565C-14.9006 146.324 -25.4719 147.163 -31.8866 146.694C-34.7555 146.622 -37.5923 146.072 -40.2797 145.065C-42.0538 144.426 -43.5394 143.17 -44.4662 141.528C-44.8334 140.787 -45.0603 139.984 -45.1357 139.16C-45.1734 138.649 -45.1465 138.135 -45.0557 137.631C-44.9388 136.824 -44.6746 136.045 -44.2764 135.333C-43.3854 133.738 -42.1906 132.332 -40.7593 131.197C-37.6119 128.609 -34.0048 126.301 -27.4303 123.633C-21.9516 121.379 -16.189 119.889 -10.3043 119.206C6.23204 117.038 24.3671 118.997 36.1974 122.873C37.1411 123.126 37.9548 123.725 38.4755 124.552C38.9639 125.686 39.1752 126.92 39.0918 128.152C39.0084 129.384 38.6327 130.578 37.9959 131.636C23.8675 139.67 7.52098 143.666 -8.48585 145.565ZM40.3939 167.696C39.2952 171.696 36.6586 175.097 33.06 177.159C30.9132 178.447 28.5861 179.406 26.1556 180.006C22.1625 181.083 17.9949 181.355 13.8957 180.806C10.3306 180.343 6.98959 178.81 4.31361 176.409C2.7039 174.854 1.49091 172.935 0.77652 170.814C-0.140457 167.816 -0.105545 164.608 0.87645 161.631C1.241 160.556 1.70251 159.516 2.25531 158.524C3.5175 156.332 5.21822 154.424 7.25121 152.919C11.6776 149.392 17.4728 147.923 23.0382 147.753C23.5639 147.736 24.0865 147.839 24.5669 148.053L24.9067 148.123C25.4903 148.324 26.0609 148.561 26.6152 148.832C28.8781 149.578 31.0268 150.634 33 151.969C33.9946 152.632 34.9366 153.37 35.8177 154.178C36.6161 154.968 37.3512 155.82 38.0159 156.726C39.1791 158.275 39.9939 160.057 40.4043 161.951C40.8147 163.845 40.8112 165.804 40.3939 167.696Z" fill="#EADCEA"/>
<path d="M387.878 236.87C372.491 228.876 359.431 226.228 345.363 214.668C335.751 219.564 326.089 224.39 316.277 228.896C308.497 232.569 300.486 235.733 292.297 238.368C277.264 243.147 261.783 246.378 246.095 248.01C245.995 248.14 245.885 248.26 245.765 248.37C241.386 251.864 237.418 255.843 233.935 260.23C232.478 262.276 231.255 264.478 230.288 266.795C229.628 268.635 229.169 270.541 228.919 272.48C228.919 272.96 228.849 273.479 228.839 273.939C239.262 265.891 250.651 259.178 262.741 253.955C293.316 241.236 331.005 244.653 363.588 239.867C370.083 238.898 377.127 237.309 387.878 236.87Z" fill="#EADCEA"/>
<path d="M140.232 422.866C146.519 419.19 153.057 415.958 159.796 413.194C160.061 413.042 160.342 412.922 160.635 412.835C170.097 408.748 180.019 404.552 188.192 398.197C190.788 396.123 193.135 393.755 195.187 391.143C199.373 385.148 201.062 379.232 205.808 372.828C205.198 371.029 204.529 369.151 203.43 366.343C194.352 373.534 183.568 378.254 172.125 380.042C172.858 381.042 173.493 382.109 174.024 383.229C174.839 384.946 175.478 386.74 175.932 388.585C176.181 389.502 176.074 390.48 175.633 391.322C175.289 391.963 174.763 392.487 174.12 392.826C173.477 393.166 172.747 393.305 172.024 393.227C171.302 393.148 170.619 392.856 170.064 392.386C169.508 391.917 169.106 391.293 168.908 390.593C168.66 389.45 168.326 388.328 167.909 387.236C167.261 385.848 166.474 384.529 165.561 383.299C165.41 383.145 165.273 382.978 165.151 382.799C150.573 383.329 135.036 392.651 119.839 398.397C110.796 401.824 102.703 404.222 97.0773 408.478C96.1699 409.219 95.3427 410.053 94.6093 410.966C94.2041 411.579 93.8499 412.224 93.5502 412.895C93.3419 413.548 93.1849 414.216 93.0806 414.893C93.0323 415.8 93.059 416.709 93.1605 417.611C93.4807 419.246 93.9696 420.843 94.6193 422.377C96.078 425.574 97.902 428.592 100.055 431.369C101.3 432.893 102.703 434.279 104.241 435.506C105.186 436.158 106.19 436.72 107.239 437.185C108.112 437.472 109.008 437.686 109.917 437.824C110.986 437.894 112.06 437.864 113.124 437.734C116.739 436.985 120.193 435.602 123.326 433.648C129.161 430.25 134.576 426.334 140.232 422.866Z" fill="#EADCEA"/>
<path d="M145.457 285.919L145.837 285.859L145.457 285.919Z" fill="#EADCEA"/>
<path d="M272.463 362.476C255.897 358.949 238.641 357.48 221.785 359.668C220.327 366.371 219.325 373.164 218.787 380.002C235.254 372.728 254.548 365.344 272.463 362.476Z" fill="#EADCEA"/>
<path d="M376.567 356.811C348.071 364.525 320.883 375.895 292.237 384.308C291.821 384.427 291.388 384.467 290.958 384.428C287.37 389.919 284.468 395.828 282.315 402.024C320.024 395.349 345.663 379.132 376.567 356.811Z" fill="#EADCEA"/>
<path d="M266.847 521.875C267.573 523.337 268.443 524.723 269.445 526.012C272.613 529.818 276.44 533.006 280.436 536.683C291.008 505.279 309.922 479.43 312.01 448.176C298.774 462.962 286.927 478.937 276.619 495.896C272.703 502.481 268.956 508.356 267.047 513.102C266.585 514.354 266.25 515.65 266.048 516.969C266 517.748 266.017 518.53 266.098 519.307C266.272 520.183 266.523 521.043 266.847 521.875Z" fill="#EADCEA"/>
<path d="M252.789 518.738C263.141 503.89 265.998 486.834 274.032 469.008C277.029 462.454 280.326 454.74 284.443 448.705C287.441 444.299 288.799 442.8 294.845 437.974C300.43 433.518 308.533 427.553 312.68 422.177C313.212 421.415 313.674 420.605 314.059 419.759C314.149 419.459 314.229 419.16 314.289 418.86C312.334 418.833 310.379 418.957 308.443 419.229C293.076 421.747 277.469 432.499 265.738 442.71C265.843 443.033 265.897 443.37 265.898 443.709C263.41 467.939 249.912 493.039 239.76 517.099C242.042 517.811 244.382 518.319 246.754 518.618C248.761 518.793 250.777 518.834 252.789 518.738Z" fill="#EADCEA"/>
<path d="M461.437 370.66C461.842 367.187 461.842 363.68 461.437 360.208C461.328 359.459 461.198 358.709 461.068 357.96C460.708 357.89 460.318 357.79 459.599 357.68C458.83 357.627 458.057 357.644 457.291 357.73C456.444 357.89 455.614 358.131 454.813 358.45C453.614 359.026 452.479 359.726 451.426 360.538C449.362 362.317 447.511 364.328 445.91 366.533C432.201 385.777 423.928 423.306 417.563 437.095C405.014 464.073 382.263 486.404 366.236 512.033C361.38 519.797 352.947 530.558 348.33 542.238C347.371 544.783 346.701 547.427 346.332 550.122C346.202 551.451 346.202 552.79 346.332 554.119C346.332 554.189 346.332 554.248 346.332 554.318C365.317 528.739 384.751 499.014 401.437 475.134C417.723 451.843 434.31 429.821 449.397 406.34C452.615 393.221 459.559 383.199 461.437 370.66Z" fill="#EADCEA"/>
<path d="M264.819 415.812C264.819 415.732 264.769 415.652 264.749 415.582L264.529 415.463C264.238 415.379 263.941 415.316 263.64 415.273C262.683 415.223 261.723 415.263 260.773 415.393C257.394 416.059 254.1 417.098 250.951 418.49C244.044 421.581 237.557 425.536 231.647 430.26C222.654 437.544 213.571 447.186 209.265 458.038C208.45 460.24 207.881 462.525 207.566 464.852C207.425 466.445 207.448 468.049 207.636 469.638C207.882 470.977 208.257 472.288 208.755 473.555C209.391 474.903 210.164 476.183 211.063 477.372C212.391 478.93 213.889 480.335 215.53 481.558C216.339 482.118 217.178 482.657 218.038 483.157C226.261 472.865 231.207 469.448 243.417 452.792C249.682 444.159 255.317 435.476 260.113 427.233C261.599 424.811 262.918 422.291 264.06 419.689C264.411 418.716 264.672 417.713 264.839 416.692C264.852 416.398 264.845 416.105 264.819 415.812Z" fill="#EADCEA"/>
<path d="M225.272 505.578C225.88 506.856 226.616 508.068 227.47 509.196C228.661 510.608 230.001 511.888 231.467 513.012C231.996 513.382 232.546 513.732 233.095 514.071C242.178 492.519 253.309 471.546 257.495 450.284C247.593 459.996 236.952 472.516 229.928 484.556C228.14 487.555 226.574 490.681 225.242 493.908C224.719 495.379 224.347 496.899 224.133 498.444C224.041 499.646 224.064 500.854 224.203 502.051C224.437 503.261 224.796 504.442 225.272 505.578Z" fill="#EADCEA"/>
<path d="M403.415 397.757C403.86 397.285 404.422 396.94 405.044 396.758L405.893 396.628C409.291 389.82 413.164 383.259 417.484 376.994C419.253 374.444 421.164 371.995 423.209 369.66C426.114 366.333 429.531 363.49 433.331 361.237C433.823 359.6 434.204 357.931 434.47 356.241C434.53 355.49 434.53 354.735 434.47 353.983C434.413 353.692 434.336 353.405 434.24 353.124C434.177 353 434.107 352.88 434.03 352.764L433.82 352.564C433.692 352.484 433.559 352.414 433.421 352.355C433.094 352.255 432.76 352.181 432.421 352.135C431.574 352.092 430.724 352.128 429.883 352.245C427.361 352.732 424.901 353.499 422.549 354.533C418.471 356.285 414.622 358.53 411.089 361.217C376.278 389.024 354.485 402.114 319.524 439.823C319.577 440.042 319.603 440.267 319.604 440.492C319.493 441.313 319.456 442.142 319.494 442.97C318.975 480.199 297.113 508.106 286.671 540.889C286.56 541.237 286.413 541.572 286.232 541.889C288.862 544.265 291.686 546.417 294.675 548.323C295.254 547.964 295.804 547.574 296.353 547.164C305.566 539.481 313.11 522.994 319.214 510.944C321.213 506.887 321.563 506.568 328.317 493.359C335.711 478.93 343.355 463.883 352.677 450.394C364.197 433.648 378.096 418.011 403.415 397.757Z" fill="#EADCEA"/>
<path d="M522.457 334.479C522.099 334.059 521.712 333.665 521.298 333.3C521.006 333.103 520.702 332.923 520.389 332.76C520.061 332.651 519.728 332.561 519.39 332.491C518.897 332.456 518.403 332.456 517.911 332.491C516.938 332.677 515.984 332.955 515.063 333.32C514.514 333.58 513.964 333.86 513.435 334.149C514.17 336.112 514.797 338.113 515.313 340.144C518.291 339.417 521.221 338.506 524.086 337.417C523.638 336.388 523.092 335.404 522.457 334.479Z" fill="#EADCEA"/>
<path d="M522.477 248.1C521.878 252.727 520.868 257.892 517.002 260.52C515.848 261.288 514.48 261.67 513.095 261.609C511.652 261.519 510.253 261.08 509.018 260.33C507.879 259.616 506.843 258.749 505.941 257.752C503.953 255.545 502.319 253.044 501.095 250.338C499.837 247.708 498.907 244.933 498.327 242.075C497.363 243.577 496.521 245.154 495.809 246.791C495.479 247.591 495.19 248.4 494.91 249.219C494.653 250.144 494.043 250.93 493.211 251.408C492.687 252.166 491.898 252.701 490.999 252.906C490.1 253.111 489.157 252.973 488.355 252.517L487.896 252.287C487.57 252.167 487.236 252.07 486.896 251.997C486.59 251.977 486.283 251.977 485.977 251.997C485.583 252.078 485.196 252.188 484.818 252.327C484.173 252.64 483.558 253.011 482.98 253.436C481.75 254.477 480.632 255.642 479.642 256.913C473.278 265.416 468.601 279.025 465.804 289.256C464.394 294.155 463.296 299.137 462.516 304.174C462.195 307.237 462.108 310.32 462.257 313.397C462.656 326.106 465.104 339.205 467.382 351.955C468.2 355.823 468.751 359.742 469.031 363.685C469.671 379.902 461.967 390.063 457.511 404.741C466.243 400.535 474.836 392.022 480.801 384.438C483.379 381.051 483.429 380.371 489.185 373.167C494.94 365.963 504.232 355.242 507.649 347.618C508 346.722 508.268 345.796 508.449 344.851C508.504 344.139 508.504 343.424 508.449 342.712C507.929 339.815 506.95 338.066 506.29 335.718C505.46 333.144 505.492 330.369 506.38 327.815C508.379 322.589 512.885 318.822 515.243 313.826C516.089 311.295 516.691 308.688 517.042 306.043C517.529 302.237 517.563 298.386 517.141 294.572C516.821 292.208 516.2 289.894 515.293 287.688C514.968 287.129 514.796 286.495 514.793 285.849C514.708 285.07 514.88 284.284 515.283 283.611C520.279 276.807 524.855 273.859 527.693 267.714C528.776 264.937 529.547 262.049 529.991 259.101C530.281 256.572 530.281 254.017 529.991 251.488C529.672 249.436 529.129 247.426 528.372 245.492C527.637 243.869 526.736 242.325 525.684 240.886C524.665 239.621 523.517 238.465 522.257 237.439C522.007 237.249 521.748 237.079 521.488 236.9C522.783 240.484 523.124 244.344 522.477 248.1ZM477.024 332.261C476.797 333.2 476.207 334.012 475.383 334.517C474.559 335.023 473.569 335.181 472.628 334.959C471.657 334.707 470.822 334.087 470.3 333.23C469.469 332.059 468.558 330.947 467.572 329.903C466.889 329.223 466.489 328.309 466.453 327.345C466.442 326.852 466.531 326.361 466.716 325.904C466.9 325.446 467.175 325.03 467.524 324.682C467.873 324.333 468.29 324.059 468.748 323.877C469.206 323.694 469.697 323.606 470.19 323.618C470.642 323.606 471.091 323.689 471.51 323.861C471.928 324.033 472.305 324.291 472.618 324.617C474.032 326.157 475.35 327.782 476.565 329.483C476.82 329.884 476.993 330.332 477.072 330.801C477.151 331.269 477.134 331.749 477.024 332.211V332.261ZM480.801 288.777C479.376 287.398 477.957 286.006 476.545 284.6C475.953 283.916 475.637 283.035 475.657 282.131C475.678 281.226 476.035 280.361 476.658 279.705C477.281 279.048 478.125 278.646 479.028 278.578C479.93 278.51 480.826 278.779 481.541 279.335C482.95 280.733 484.368 282.132 485.797 283.501C486.402 284.184 486.728 285.068 486.713 285.98C486.698 286.891 486.342 287.764 485.715 288.426C485.088 289.088 484.236 289.491 483.326 289.556C482.417 289.621 481.516 289.343 480.801 288.777ZM496.968 314.526C495.869 316.697 494.79 318.879 493.731 321.07C493.501 321.496 493.188 321.872 492.812 322.177C492.437 322.482 492.004 322.71 491.54 322.847C491.076 322.985 490.589 323.029 490.108 322.978C489.626 322.927 489.16 322.781 488.735 322.549C488.313 322.322 487.94 322.013 487.637 321.642C487.334 321.27 487.107 320.842 486.97 320.383C486.832 319.923 486.787 319.441 486.836 318.964C486.885 318.487 487.028 318.025 487.256 317.603C488.315 315.405 489.394 313.223 490.493 311.059C490.807 310.475 491.275 309.99 491.846 309.655C492.417 309.32 493.069 309.149 493.731 309.16C494.356 309.161 494.97 309.322 495.514 309.629C496.058 309.935 496.515 310.376 496.84 310.91C497.165 311.444 497.347 312.052 497.37 312.676C497.392 313.3 497.254 313.92 496.968 314.476V314.526Z" fill="#EADCEA"/>
<path d="M273.462 284.001C269.754 283.603 266.013 283.629 262.311 284.081C260.119 284.437 257.971 285.03 255.907 285.849C254.896 286.316 253.933 286.878 253.029 287.528C251.708 288.708 250.519 290.028 249.482 291.464C244.536 298.459 241.159 307.871 238.621 316.074C264.28 322.169 305.496 318.013 328.157 304.454C312.27 295.571 291.537 286.069 273.462 284.001Z" fill="#EADCEA"/>
<path d="M512.265 253.706C512.545 253.901 512.839 254.075 513.145 254.225L513.285 254.075C513.53 253.706 513.747 253.318 513.934 252.916C515.165 249.408 515.642 245.68 515.333 241.975C515.177 241.06 514.939 240.161 514.623 239.288C514.335 238.69 514.001 238.115 513.624 237.569C513.195 237.06 512.724 236.589 512.215 236.16C510.377 234.871 509.907 235.071 509.138 234.092C508.203 234.3 507.284 234.577 506.39 234.921C506.011 235.091 505.631 235.291 505.251 235.491C505.251 235.651 505.181 235.8 505.151 235.96C505.061 237.099 505.081 238.243 505.211 239.377C505.922 243.824 507.675 248.039 510.327 251.677C510.911 252.411 511.559 253.089 512.265 253.706Z" fill="#EADCEA"/>
<path d="M219.337 107.786C210.274 108.056 198.574 109.145 190.191 112.602C188.826 113.207 187.527 113.95 186.314 114.82C185.838 115.222 185.4 115.667 185.005 116.149C184.819 116.438 184.652 116.738 184.505 117.048C184.423 117.341 184.357 117.638 184.305 117.937C184.221 118.691 184.338 119.453 184.645 120.146C184.891 120.627 185.175 121.088 185.494 121.525C186.119 122.227 186.808 122.869 187.553 123.443C189.15 124.514 190.859 125.408 192.649 126.111C195.195 127.036 197.835 127.676 200.522 128.019C201.943 128.144 203.372 128.124 204.789 127.959C206.453 127.665 208.083 127.203 209.655 126.58C211.238 125.843 212.739 124.938 214.131 123.883C216.045 122.266 217.769 120.436 219.267 118.427C221.587 115.06 223.574 111.477 225.202 107.726C223.243 107.696 221.285 107.726 219.337 107.786Z" fill="#EADCEA"/>
<path d="M169.318 510.794C167.48 501.925 166.719 492.867 167.05 483.816C164.161 484.605 161.182 485.015 158.187 485.035C153.907 484.977 149.666 484.224 145.627 482.807C138.544 480.271 131.809 476.85 125.584 472.626C123.294 471.123 121.269 469.253 119.589 467.09C115.502 461.904 115.832 455.829 118.08 449.604C118.889 447.356 119.809 445.148 120.768 442.95C116.891 444.744 112.584 445.403 108.348 444.848C105.571 444.393 102.93 443.329 100.614 441.731C99.2273 440.774 97.9298 439.694 96.7375 438.504C93.9338 435.559 91.5469 432.244 89.6434 428.652C87.9411 425.69 86.7329 422.47 86.0663 419.119C85.7768 417.65 85.686 416.147 85.7965 414.653C85.9595 412.006 86.8252 409.45 88.3045 407.249C89.0368 406.171 89.8735 405.167 90.8024 404.252C98.3162 397.198 110.546 394.63 124.535 388.635C133.357 384.798 142.13 380.491 151.423 377.804C149.311 374.939 147.189 372.085 145.058 369.241C142.912 372.375 140.459 375.287 137.734 377.933C134.094 381.551 129.756 384.389 124.984 386.277C124.191 386.527 123.333 386.473 122.576 386.127C122.067 386.434 121.482 386.594 120.888 386.586C117.795 386.428 114.731 385.915 111.755 385.058C106.39 383.449 100.884 380.971 92.8607 375.326C79.1968 365.763 66.8129 354.49 56.0111 341.783C54.8853 344.308 53.8195 346.862 52.8137 349.447C49.324 358.541 46.9747 368.032 45.8194 377.704C43.6912 399.166 48.5572 420.299 53.4232 441.751C56.7336 437.929 59.8291 433.926 62.6956 429.761C63.0089 429.183 63.4712 428.7 64.0345 428.362L64.9037 427.982C65.8352 427.717 66.8338 427.832 67.6805 428.302C68.5271 428.773 69.1527 429.559 69.42 430.49C69.5557 430.943 69.599 431.419 69.5476 431.889C69.4961 432.36 69.3508 432.815 69.1203 433.228C65.4218 438.64 61.3802 443.81 57.0202 448.705C84.088 480.539 110.236 513.712 144.079 538.561C154.99 546.465 169.308 555.307 181.528 560.073C186.403 561.924 191.481 563.188 196.655 563.84C197.315 563.9 197.984 563.94 198.654 563.98C184.825 549.172 173.255 530.528 169.318 510.794Z" fill="#EADCEA"/>
<path d="M335.411 280.693C335.884 281.686 336.453 282.629 337.11 283.511C338.069 284.619 339.14 285.623 340.307 286.509C349.3 292.714 364.677 295.801 375.658 297.03C383.521 297.839 394.173 298.169 401.637 297.16C403.11 296.925 404.556 296.544 405.953 296.021C406.501 295.763 407.026 295.459 407.522 295.112C407.741 294.914 407.947 294.704 408.141 294.482C408.241 294.312 408.331 294.152 408.411 293.983C408.491 293.813 408.511 293.593 408.551 293.393C408.571 293.06 408.571 292.727 408.551 292.394C408.408 291.737 408.214 291.092 407.971 290.465C407.195 288.894 406.257 287.407 405.174 286.029C402.689 283.047 399.866 280.364 396.761 278.036C394.265 276.33 391.584 274.916 388.767 273.819C377.257 269.593 364.267 269.123 352.877 267.514C345.483 266.515 340.996 265.576 334.582 265.126C334.136 269.052 334.089 273.012 334.442 276.947C334.647 278.223 334.971 279.478 335.411 280.693Z" fill="#EADCEA"/>
<path d="M313.289 573.892C313.116 573.421 313.042 572.92 313.072 572.419C313.101 571.918 313.234 571.429 313.461 570.982C313.688 570.535 314.005 570.139 314.393 569.82C314.78 569.501 315.228 569.265 315.711 569.128C316.193 568.99 316.698 568.953 317.196 569.019C317.693 569.086 318.171 569.254 318.6 569.514C319.029 569.773 319.4 570.119 319.69 570.528C319.98 570.938 320.182 571.403 320.283 571.894C321.384 575.946 322.221 580.064 322.791 584.224C329.116 576.75 335.191 569.076 341.116 561.243C340.399 559.99 339.854 558.645 339.498 557.246C331.504 561.173 321.922 561.402 313.079 559.824C312.604 559.714 312.156 559.509 311.762 559.22C311.369 558.932 311.038 558.566 310.791 558.145C310.542 557.743 310.377 557.296 310.305 556.829C310.233 556.362 310.255 555.885 310.372 555.427C324.6 513.812 352.277 480.839 377.936 443.629C384.74 433.777 392.524 421.957 398.299 411.356C384.78 422.906 372.76 435.056 361.949 449.754C349.28 467.28 340.537 485.725 330.895 504.289C329.186 507.577 327.418 510.834 325.749 514.141C321.303 522.914 316.826 532.446 311.271 540.739C307.914 545.735 304.127 550.731 299.071 554.168C298.921 554.692 298.655 555.176 298.294 555.584C297.932 555.992 297.484 556.314 296.982 556.527C296.481 556.739 295.937 556.837 295.393 556.813C294.848 556.789 294.316 556.643 293.835 556.387C284.953 551.391 277.938 544.316 270.085 537.132C267.934 535.217 265.93 533.143 264.09 530.927C263.221 529.885 262.417 528.791 261.682 527.65C260.62 525.927 259.796 524.069 259.234 522.125C258.005 523.893 256.696 525.622 255.297 527.271C254.869 527.71 254.337 528.036 253.75 528.217C253.163 528.398 252.541 528.428 251.939 528.306C251.337 528.184 250.776 527.912 250.307 527.517C249.837 527.121 249.474 526.614 249.252 526.041C245.26 525.935 241.304 525.262 237.502 524.043C232.859 522.597 228.561 520.217 224.872 517.049C222.321 514.833 220.259 512.111 218.817 509.055C218.287 507.938 217.853 506.779 217.518 505.588C216.907 503.334 216.681 500.993 216.849 498.664C216.986 496.247 217.512 493.869 218.407 491.62C216.15 490.611 213.993 489.393 211.963 487.983C209.77 486.501 207.775 484.744 206.028 482.757C204.484 480.97 203.199 478.976 202.211 476.832C201.698 475.711 201.273 474.552 200.942 473.365C200.071 469.981 199.898 466.456 200.432 463.003C201.361 456.229 205.058 448.955 208.995 443.479C212.612 438.404 216.743 433.716 221.325 429.491C227.911 423.352 235.307 418.144 243.307 414.014C248.772 411.296 256.646 407.939 262.711 407.939C264.577 407.865 266.432 408.26 268.106 409.088C269.257 409.688 270.23 410.578 270.931 411.669C271.632 412.761 272.036 414.017 272.103 415.313C272.593 419.769 269.565 425.424 267.347 429.301C266.348 431.03 265.349 432.748 264.3 434.457C272.003 428.102 280.846 421.917 289.749 417.761C294.67 415.346 299.877 413.563 305.246 412.455C310.28 411.372 315.48 411.297 320.543 412.235C321.084 412.369 321.587 412.625 322.014 412.982C322.441 413.339 322.781 413.79 323.009 414.298C323.236 414.807 323.344 415.36 323.326 415.917C323.307 416.473 323.162 417.019 322.901 417.511C322.442 418.34 321.902 419.149 321.502 419.999C321.46 420.394 321.387 420.785 321.283 421.168C320.807 422.829 320.047 424.394 319.034 425.794C317.432 428.019 315.615 430.08 313.609 431.949C307.324 437.834 299.93 442.86 295.254 447.156C293.94 448.301 292.757 449.588 291.727 450.993C288.576 455.611 285.853 460.508 283.594 465.621C280.676 471.926 278.598 476.612 276.35 482.717C289.948 461.924 306.135 442.77 323.421 425.135C329.556 418.9 335.811 412.775 342.295 406.91C362.189 388.924 384.091 373.477 405.933 356.081C405.254 356.631 408.171 354.223 410.489 352.744C415.215 349.747 422.619 346.09 428.045 345.22C429.286 345.005 430.542 344.888 431.802 344.871C435.379 344.871 438.027 346.259 439.385 347.938C439.826 348.438 440.211 348.984 440.534 349.567C440.815 350.125 441.056 350.703 441.254 351.295C441.871 353.65 441.936 356.115 441.444 358.499C442.003 358.439 442.553 358.399 443.122 358.379C444.046 357.333 445.048 356.357 446.12 355.462C447.603 354.159 449.249 353.054 451.016 352.175C451.982 351.7 452.985 351.303 454.013 350.986C455.492 350.58 457.016 350.365 458.55 350.346C458.909 350.346 459.269 350.346 459.629 350.346C457.301 337.357 454.283 319.991 454.883 306.792C455.204 302.408 455.913 298.061 457.001 293.803C453.933 298.249 449.008 305.083 443.782 303.844C442.719 303.598 441.749 303.054 440.984 302.276C439.607 300.685 438.725 298.726 438.446 296.64C438.273 295.568 438.143 294.499 438.056 293.433C437.031 294.46 435.954 295.433 434.829 296.351C433.962 297.099 432.937 297.642 431.832 297.939C431.015 298.136 430.163 298.132 429.348 297.926C428.534 297.721 427.781 297.321 427.156 296.76C425.007 294.852 424.668 291.515 421.021 286.768C413.187 276.637 405.523 266.955 400.487 255.144C399.256 252.351 398.283 249.452 397.58 246.482C397.39 245.662 397.17 244.853 396.97 244.044C389.331 243.822 381.688 244.276 374.129 245.402C368.724 246.252 364.037 247.291 354.226 248.31C323.381 251.487 291.767 249.479 264.15 261.16C258.454 263.688 252.934 266.592 247.623 269.852C232.975 278.765 218.058 290.645 207.896 304.364C204.853 308.51 202.33 313.013 200.382 317.773C199.299 320.675 198.555 323.693 198.164 326.766C197.955 329.095 198.002 331.44 198.304 333.76C198.724 336.198 199.003 336.408 198.863 337.517C203.35 348.368 208.515 358.499 212.502 370.13C213.861 359.769 216.323 349.583 219.846 339.745C219.998 339.114 220.315 338.534 220.765 338.066L221.375 337.577C221.451 336.853 221.742 336.168 222.21 335.61C222.678 335.053 223.303 334.649 224.003 334.449C253.418 329.503 286.481 319.971 314.928 328.454C315.553 328.613 316.127 328.932 316.592 329.378C317.058 329.825 317.4 330.384 317.586 331.002C317.726 331.454 317.772 331.93 317.722 332.401C317.673 332.871 317.527 333.327 317.296 333.74C312.393 340.627 306.691 346.909 300.31 352.454C295.493 356.825 290.169 360.602 284.453 363.705C284.774 364.432 284.834 365.247 284.623 366.013C284.691 366.479 284.674 366.953 284.573 367.412C284.36 368.326 283.802 369.121 283.014 369.63C257.825 393.461 231.936 416.592 207.336 441.031C206.647 441.717 205.72 442.111 204.749 442.131C204.343 442.472 203.869 442.721 203.358 442.861C202.847 443.002 202.312 443.031 201.789 442.945C201.266 442.86 200.768 442.662 200.329 442.367C199.889 442.071 199.519 441.684 199.243 441.231C196.601 436.713 194.524 431.888 193.058 426.863C188.362 433.929 184.44 441.48 181.358 449.385C178.112 458.065 175.932 467.107 174.863 476.312C173.938 485.437 174.13 494.641 175.433 503.72C176.495 511.224 178.544 518.555 181.528 525.522C193.268 552.23 218.287 577.659 246.524 588.71C252.355 590.933 258.435 592.439 264.629 593.196C282.305 594.825 298.921 587.201 315.987 587.921C315.458 583.181 314.556 578.49 313.289 573.892ZM327.637 260.3C327.627 259.67 327.779 259.047 328.077 258.492L328.657 257.702C329.003 257.34 329.421 257.053 329.884 256.859C330.347 256.665 330.845 256.569 331.347 256.576C331.849 256.584 332.343 256.695 332.8 256.902C333.257 257.11 333.666 257.409 334.002 257.782C339.997 258.192 345.992 259.101 351.987 260.03C368.274 262.568 388.737 262.408 402.136 273.1C404.875 275.233 407.398 277.629 409.67 280.254C411.824 282.599 413.549 285.304 414.766 288.247C415.76 290.566 415.998 293.139 415.445 295.601C415.068 296.923 414.433 298.156 413.575 299.23C412.717 300.304 411.655 301.196 410.449 301.856C407.349 303.467 403.945 304.41 400.457 304.624C392.928 305.3 385.352 305.276 377.826 304.554C366.166 303.495 354.016 301.257 343.305 296.56C339.108 294.712 334.632 292.084 331.714 288.517C330.831 287.489 330.061 286.371 329.416 285.18C328.121 282.755 327.313 280.101 327.038 277.366C326.418 272.36 327.028 266.955 327.637 260.3ZM308.653 320.301C282.385 327.625 252.399 327.545 234.144 322.479C233.291 322.536 232.445 322.28 231.766 321.76C231.127 321.518 230.57 321.1 230.158 320.555C229.746 320.01 229.496 319.359 229.438 318.678C229.379 317.997 229.514 317.314 229.827 316.707C230.14 316.099 230.618 315.593 231.207 315.245C233.665 307.182 237.452 296.42 242.098 289.336C243.456 287.163 245.059 285.151 246.874 283.341C248.489 281.703 250.406 280.393 252.519 279.484C254.691 278.49 256.971 277.752 259.314 277.286C261.788 276.807 264.298 276.537 266.817 276.477C273.176 276.458 279.509 277.261 285.662 278.865C301.889 282.862 320.074 291.405 334.772 299.898C334.998 299.779 335.236 299.682 335.481 299.608L336.4 299.468C337.367 299.449 338.301 299.814 339 300.482C339.698 301.151 340.104 302.069 340.127 303.035C340.148 303.515 340.07 303.994 339.898 304.443C339.726 304.891 339.464 305.3 339.128 305.643L337.989 306.542C337.607 307.028 337.109 307.41 336.54 307.651C333.075 310.211 329.347 312.395 325.419 314.166C320.008 316.66 314.405 318.711 308.663 320.301H308.653ZM274.231 403.392C277.198 393.19 282.055 383.635 288.55 375.226C293.19 369.149 298.522 363.634 304.436 358.789C306.275 357.27 308.173 355.792 310.042 354.353C320.563 345.77 327.527 333.87 338.688 325.057C340.052 323.968 341.484 322.967 342.975 322.059C347.481 319.342 353.756 317.233 358.882 315.874C382.672 309.55 408.471 311.098 432.941 310.389C433.552 310.379 434.155 310.522 434.697 310.806C435.238 311.089 435.7 311.504 436.039 312.011C436.379 312.519 436.587 313.104 436.642 313.713C436.698 314.321 436.6 314.934 436.358 315.495C436.381 316.14 436.237 316.781 435.938 317.353C426.946 334.619 412.368 340.284 396.97 350.986C396.558 351.514 395.998 351.907 395.362 352.115C388.507 356.961 376.937 365.793 363.758 374.686C336.88 392.821 312.36 404.711 280.246 409.727C279.641 409.887 279.004 409.887 278.398 409.727L277.509 409.387C276.673 408.93 276.047 408.167 275.76 407.259C275.137 406.852 274.656 406.261 274.384 405.568C274.112 404.875 274.062 404.115 274.241 403.392H274.231Z" fill="#EADCEA"/>
<path d="M412.548 430.22C418.123 415.403 425.537 386.336 436.338 367.932C435.346 368.514 434.392 369.158 433.48 369.86C421.94 379.372 413.657 397.727 406.193 412.135C396.92 430.06 379.695 453.931 368.834 469.088C350.309 494.897 329.866 523.174 318.875 553.299C322.094 553.564 325.332 553.494 328.537 553.089C330.859 552.714 333.134 552.087 335.321 551.221C336.431 550.708 337.503 550.117 338.528 549.452C338.708 549.345 338.895 549.252 339.088 549.172C339.388 546.526 339.998 543.923 340.907 541.419C345.013 529.848 351.967 520.486 358.102 511.214C359.871 508.546 361.54 505.798 363.318 503.14C377.257 482.327 394.083 464.362 405.893 443.669C408.432 439.352 410.656 434.858 412.548 430.22Z" fill="#EADCEA"/>
<path d="M380.374 348.268C384.371 347.269 388.367 346.359 392.364 345.37C406.423 335.478 417.344 331.262 426.026 319.691C426.466 319.072 426.876 318.442 427.285 317.813C402.496 318.223 372.9 316.984 350.349 326.406C347.65 327.663 345.108 329.233 342.775 331.082C334.152 338.146 327.488 347.908 319.654 355.532C316.969 358.114 314.111 360.511 311.101 362.706C306.53 366.387 302.266 370.433 298.352 374.806C325.979 366.123 352.757 355.182 380.374 348.268Z" fill="#EADCEA"/>
<path d="M306.905 225.119C317.086 220.693 329.476 214.518 339.428 209.472C328.445 199.647 318.531 188.688 309.852 176.779C298.781 180.776 284.653 182.954 272.883 184.293C259.174 185.851 244.646 186.781 231.587 189.049C231.267 190.488 230.587 190.627 227.4 194.954C223.92 199.781 221.051 205.02 218.857 210.551C218.002 212.865 217.285 215.227 216.709 217.625C219.538 218.271 222.4 218.768 225.282 219.114C231.143 219.641 237.047 219.466 242.867 218.594C247.274 217.895 251.62 216.926 255.946 215.857C256.837 215.7 257.753 215.879 258.519 216.359C259.286 216.838 259.847 217.585 260.095 218.454C260.344 219.323 260.261 220.253 259.864 221.065C259.467 221.877 258.783 222.513 257.945 222.851C247.813 225.349 238.651 227.137 228.499 226.598C228.428 226.696 228.351 226.789 228.269 226.878C227.46 227.797 226.681 228.736 225.941 229.715C224.398 231.895 223.104 234.241 222.084 236.71C221.49 238.383 221.042 240.105 220.745 241.855C250.221 242.225 280.896 236.25 306.905 225.119Z" fill="#EADCEA"/>
<path d="M472.658 324.627C471.957 323.963 471.023 323.602 470.058 323.623C469.092 323.644 468.174 324.044 467.502 324.737C467.171 325.084 466.912 325.493 466.741 325.941C466.569 326.389 466.489 326.866 466.503 327.345C466.539 328.309 466.939 329.223 467.622 329.903C468.591 330.949 469.485 332.061 470.3 333.23C470.822 334.06 471.64 334.66 472.588 334.909C473.529 335.131 474.519 334.973 475.343 334.467C476.167 333.962 476.757 333.151 476.985 332.211C477.099 331.753 477.121 331.277 477.049 330.81C476.977 330.343 476.812 329.896 476.565 329.493C475.363 327.793 474.058 326.168 472.658 324.627Z" fill="#EADCEA"/>
<path d="M495.489 309.53C495.064 309.298 494.598 309.152 494.117 309.101C493.635 309.05 493.148 309.094 492.684 309.232C492.22 309.369 491.788 309.597 491.412 309.902C491.036 310.207 490.724 310.583 490.493 311.008C489.394 313.18 488.315 315.362 487.256 317.553C487.028 317.975 486.885 318.437 486.836 318.914C486.787 319.391 486.833 319.873 486.97 320.333C487.107 320.792 487.334 321.22 487.637 321.592C487.94 321.963 488.313 322.272 488.735 322.499C489.16 322.731 489.626 322.877 490.108 322.928C490.589 322.979 491.076 322.935 491.54 322.797C492.004 322.66 492.437 322.432 492.813 322.127C493.188 321.822 493.501 321.446 493.731 321.02C494.79 318.822 495.869 316.641 496.968 314.476C497.415 313.621 497.511 312.626 497.235 311.702C496.959 310.778 496.332 309.998 495.489 309.53Z" fill="#EADCEA"/>
<path d="M485.847 283.451C484.419 282.082 483 280.683 481.591 279.285C480.876 278.729 479.98 278.46 479.078 278.528C478.176 278.596 477.331 278.998 476.708 279.654C476.085 280.311 475.728 281.176 475.708 282.081C475.687 282.985 476.003 283.866 476.595 284.55C478.007 285.956 479.426 287.348 480.851 288.727C481.566 289.293 482.467 289.571 483.376 289.506C484.286 289.441 485.138 289.038 485.765 288.376C486.392 287.714 486.748 286.841 486.763 285.93C486.778 285.018 486.452 284.134 485.847 283.451Z" fill="#EADCEA"/>
</svg>
